NotoSansAdlamUnjoined-Regular.ufo
<glyph name="exclam" format="2">
  <advance width="269"/>
  <unicode hex="0021"/>
  <outline>
    <contour>
      <point x="163" y="201" type="line"/>
      <point x="188" y="714" type="line"/>
      <point x="81" y="714" type="line"/>
      <point x="106" y="201" type="line"/>
    </contour>
    <contour>
      <point x="72" y="54" type="curve" smooth="yes"/>
      <point x="72" y="6"/>
      <point x="99" y="-14"/>
      <point x="134" y="-14" type="curve" smooth="yes"/>
      <point x="167" y="-14"/>
      <point x="196" y="6"/>
      <point x="196" y="54" type="curve" smooth="yes"/>
      <point x="196" y="103"/>
      <point x="167" y="121"/>
      <point x="134" y="121" type="curve" smooth="yes"/>
      <point x="99" y="121"/>
      <point x="72" y="103"/>
    </contour>
  </outline>
</glyph>
<glyph name="quotedbl" format="2">
  <advance width="408"/>
  <unicode hex="0022"/>
  <outline>
    <contour>
      <point x="160" y="714" type="line"/>
      <point x="65" y="714" type="line"/>
      <point x="85" y="456" type="line"/>
      <point x="140" y="456" type="line"/>
    </contour>
    <contour>
      <point x="343" y="714" type="line"/>
      <point x="248" y="714" type="line"/>
      <point x="268" y="456" type="line"/>
      <point x="323" y="456" type="line"/>
    </contour>
  </outline>
</glyph>
<glyph name="numbersign" format="2">
  <advance width="646"/>
  <unicode hex="0023"/>
  <outline>
    <contour>
      <point x="480" y="436" type="line"/>
      <point x="620" y="436" type="line"/>
      <point x="620" y="502" type="line"/>
      <point x="493" y="502" type="line"/>
      <point x="533" y="714" type="line"/>
      <point x="464" y="714" type="line"/>
      <point x="424" y="502" type="line"/>
      <point x="280" y="502" type="line"/>
      <point x="320" y="714" type="line"/>
      <point x="248" y="714" type="line"/>
      <point x="208" y="502" type="line"/>
      <point x="62" y="502" type="line"/>
      <point x="62" y="436" type="line"/>
      <point x="196" y="436" type="line"/>
      <point x="164" y="276" type="line"/>
      <point x="25" y="276" type="line"/>
      <point x="25" y="209" type="line"/>
      <point x="151" y="209" type="line"/>
      <point x="113" y="0" type="line"/>
      <point x="183" y="0" type="line"/>
      <point x="222" y="209" type="line"/>
      <point x="365" y="209" type="line"/>
      <point x="324" y="0" type="line"/>
      <point x="395" y="0" type="line"/>
      <point x="436" y="209" type="line"/>
      <point x="586" y="209" type="line"/>
      <point x="586" y="276" type="line"/>
      <point x="449" y="276" type="line"/>
    </contour>
    <contour>
      <point x="235" y="276" type="line"/>
      <point x="266" y="436" type="line"/>
      <point x="409" y="436" type="line"/>
      <point x="378" y="276" type="line"/>
    </contour>
  </outline>
</glyph>
<glyph name="dollar" format="2">
  <advance width="572"/>
  <unicode hex="0024"/>
  <outline>
    <contour>
      <point x="253" y="-58" type="line"/>
      <point x="317" y="-58" type="line"/>
      <point x="317" y="53" type="line"/>
      <point x="444" y="66"/>
      <point x="516" y="127"/>
      <point x="516" y="220" type="curve" smooth="yes"/>
      <point x="516" y="320"/>
      <point x="449" y="357"/>
      <point x="317" y="395" type="curve"/>
      <point x="317" y="596" type="line"/>
      <point x="370" y="592"/>
      <point x="423" y="578"/>
      <point x="466" y="561" type="curve"/>
      <point x="493" y="635" type="line"/>
      <point x="445" y="655"/>
      <point x="388" y="670"/>
      <point x="317" y="672" type="curve"/>
      <point x="317" y="759" type="line"/>
      <point x="253" y="759" type="line"/>
      <point x="253" y="671" type="line"/>
      <point x="136" y="664"/>
      <point x="62" y="606"/>
      <point x="62" y="508" type="curve" smooth="yes"/>
      <point x="62" y="413"/>
      <point x="121" y="364"/>
      <point x="253" y="328" type="curve"/>
      <point x="253" y="126" type="line"/>
      <point x="185" y="127"/>
      <point x="107" y="146"/>
      <point x="62" y="167" type="curve"/>
      <point x="62" y="82" type="line"/>
      <point x="105" y="62"/>
      <point x="179" y="50"/>
      <point x="253" y="49" type="curve"/>
    </contour>
    <contour>
      <point x="317" y="131" type="curve"/>
      <point x="317" y="307" type="line"/>
      <point x="404" y="285"/>
      <point x="430" y="264"/>
      <point x="430" y="214" type="curve" smooth="yes"/>
      <point x="430" y="169"/>
      <point x="395" y="139"/>
    </contour>
    <contour>
      <point x="253" y="417" type="line"/>
      <point x="173" y="437"/>
      <point x="148" y="462"/>
      <point x="148" y="515" type="curve" smooth="yes"/>
      <point x="148" y="559"/>
      <point x="181" y="589"/>
      <point x="253" y="594" type="curve"/>
    </contour>
  </outline>
</glyph>
<glyph name="percent" format="2">
  <advance width="831"/>
  <unicode hex="0025"/>
  <outline>
    <contour>
      <point x="195" y="724" type="curve" smooth="yes"/>
      <point x="94" y="724"/>
      <point x="49" y="642"/>
      <point x="49" y="501" type="curve" smooth="yes"/>
      <point x="49" y="360"/>
      <point x="100" y="276"/>
      <point x="195" y="276" type="curve" smooth="yes"/>
      <point x="298" y="276"/>
      <point x="345" y="360"/>
      <point x="345" y="501" type="curve" smooth="yes"/>
      <point x="345" y="642"/>
      <point x="293" y="724"/>
    </contour>
    <contour>
      <point x="195" y="662" type="curve" smooth="yes"/>
      <point x="247" y="662"/>
      <point x="272" y="608"/>
      <point x="272" y="501" type="curve" smooth="yes"/>
      <point x="272" y="393"/>
      <point x="247" y="339"/>
      <point x="195" y="339" type="curve" smooth="yes"/>
      <point x="144" y="339"/>
      <point x="122" y="394"/>
      <point x="122" y="501" type="curve" smooth="yes"/>
      <point x="122" y="608"/>
      <point x="144" y="662"/>
    </contour>
    <contour>
      <point x="652" y="714" type="line"/>
      <point x="575" y="714" type="line"/>
      <point x="179" y="0" type="line"/>
      <point x="256" y="0" type="line"/>
    </contour>
    <contour>
      <point x="632" y="438" type="curve" smooth="yes"/>
      <point x="531" y="438"/>
      <point x="486" y="356"/>
      <point x="486" y="215" type="curve" smooth="yes"/>
      <point x="486" y="74"/>
      <point x="537" y="-10"/>
      <point x="632" y="-10" type="curve" smooth="yes"/>
      <point x="735" y="-10"/>
      <point x="782" y="74"/>
      <point x="782" y="215" type="curve" smooth="yes"/>
      <point x="782" y="356"/>
      <point x="729" y="438"/>
    </contour>
    <contour>
      <point x="632" y="375" type="curve" smooth="yes"/>
      <point x="684" y="375"/>
      <point x="709" y="322"/>
      <point x="709" y="215" type="curve" smooth="yes"/>
      <point x="709" y="106"/>
      <point x="684" y="53"/>
      <point x="632" y="53" type="curve" smooth="yes"/>
      <point x="581" y="53"/>
      <point x="559" y="107"/>
      <point x="559" y="215" type="curve" smooth="yes"/>
      <point x="559" y="322"/>
      <point x="581" y="375"/>
    </contour>
  </outline>
</glyph>
<glyph name="ampersand" format="2">
  <advance width="732"/>
  <unicode hex="0026"/>
  <outline>
    <contour>
      <point x="304" y="725" type="curve" smooth="yes"/>
      <point x="190" y="725"/>
      <point x="120" y="667"/>
      <point x="120" y="569" type="curve" smooth="yes"/>
      <point x="120" y="496"/>
      <point x="164" y="444"/>
      <point x="207" y="396" type="curve"/>
      <point x="112" y="342"/>
      <point x="53" y="288"/>
      <point x="53" y="186" type="curve" smooth="yes"/>
      <point x="53" y="60"/>
      <point x="140" y="-10"/>
      <point x="278" y="-10" type="curve" smooth="yes"/>
      <point x="389" y="-10"/>
      <point x="461" y="28"/>
      <point x="524" y="84" type="curve"/>
      <point x="611" y="0" type="line"/>
      <point x="730" y="0" type="line"/>
      <point x="584" y="142" type="line"/>
      <point x="634" y="197"/>
      <point x="665" y="271"/>
      <point x="686" y="357" type="curve"/>
      <point x="597" y="357" type="line"/>
      <point x="582" y="294"/>
      <point x="562" y="239"/>
      <point x="527" y="198" type="curve"/>
      <point x="334" y="384" type="line"/>
      <point x="416" y="432"/>
      <point x="477" y="487"/>
      <point x="477" y="571" type="curve" smooth="yes"/>
      <point x="477" y="668"/>
      <point x="411" y="725"/>
    </contour>
    <contour>
      <point x="260" y="341" type="curve"/>
      <point x="468" y="139" type="line"/>
      <point x="426" y="100"/>
      <point x="366" y="68"/>
      <point x="281" y="68" type="curve" smooth="yes"/>
      <point x="198" y="68"/>
      <point x="145" y="116"/>
      <point x="145" y="189" type="curve" smooth="yes"/>
      <point x="145" y="261"/>
      <point x="188" y="298"/>
    </contour>
    <contour>
      <point x="301" y="653" type="curve" smooth="yes"/>
      <point x="355" y="653"/>
      <point x="390" y="619"/>
      <point x="390" y="571" type="curve" smooth="yes"/>
      <point x="390" y="517"/>
      <point x="359" y="481"/>
      <point x="280" y="436" type="curve"/>
      <point x="232" y="485"/>
      <point x="206" y="522"/>
      <point x="206" y="570" type="curve" smooth="yes"/>
      <point x="206" y="622"/>
      <point x="245" y="653"/>
    </contour>
  </outline>
</glyph>
<glyph name="quotesingle" format="2">
  <advance width="225"/>
  <unicode hex="0027"/>
  <outline>
    <contour>
      <point x="160" y="714" type="line"/>
      <point x="65" y="714" type="line"/>
      <point x="85" y="456" type="line"/>
      <point x="140" y="456" type="line"/>
    </contour>
  </outline>
</glyph>
<glyph name="asterisk" format="2">
  <advance width="551"/>
  <unicode hex="002A"/>
  <outline>
    <contour>
      <point x="322" y="760" type="line"/>
      <point x="224" y="760" type="line"/>
      <point x="245" y="568" type="line"/>
      <point x="55" y="622" type="line"/>
      <point x="41" y="530" type="line"/>
      <point x="223" y="515" type="line"/>
      <point x="106" y="357" type="line"/>
      <point x="195" y="310" type="line"/>
      <point x="272" y="485" type="line"/>
      <point x="357" y="310" type="line"/>
      <point x="443" y="357" type="line"/>
      <point x="324" y="515" type="line"/>
      <point x="508" y="530" type="line"/>
      <point x="494" y="622" type="line"/>
      <point x="302" y="568" type="line"/>
    </contour>
  </outline>
</glyph>
<glyph name="plus" format="2">
  <advance width="557"/>
  <unicode hex="002B"/>
  <outline>
    <contour>
      <point x="314" y="388" type="line"/>
      <point x="314" y="595" type="line"/>
      <point x="242" y="595" type="line"/>
      <point x="242" y="388" type="line"/>
      <point x="43" y="388" type="line"/>
      <point x="43" y="317" type="line"/>
      <point x="242" y="317" type="line"/>
      <point x="242" y="111" type="line"/>
      <point x="314" y="111" type="line"/>
      <point x="314" y="317" type="line"/>
      <point x="513" y="317" type="line"/>
      <point x="513" y="388" type="line"/>
    </contour>
  </outline>
</glyph>
<glyph name="hyphen" format="2">
  <advance width="302"/>
  <unicode hex="002D"/>
  <outline>
    <contour>
      <point x="30" y="229" type="line"/>
      <point x="272" y="229" type="line"/>
      <point x="272" y="307" type="line"/>
      <point x="30" y="307" type="line"/>
    </contour>
  </outline>
</glyph>
<glyph name="slash" format="2">
  <advance width="372"/>
  <unicode hex="002F"/>
  <outline>
    <contour>
      <point x="362" y="714" type="line"/>
      <point x="276" y="714" type="line"/>
      <point x="10" y="0" type="line"/>
      <point x="96" y="0" type="line"/>
    </contour>
  </outline>
</glyph>
<glyph name="zero" format="2">
  <advance width="572"/>
  <unicode hex="0030"/>
  <outline>
    <contour>
      <point x="523" y="358" type="curve" smooth="yes"/>
      <point x="523" y="590"/>
      <point x="445" y="725"/>
      <point x="285" y="725" type="curve" smooth="yes"/>
      <point x="114" y="725"/>
      <point x="49" y="589"/>
      <point x="49" y="358" type="curve" smooth="yes"/>
      <point x="49" y="127"/>
      <point x="124" y="-10"/>
      <point x="285" y="-10" type="curve" smooth="yes"/>
      <point x="456" y="-10"/>
      <point x="523" y="127"/>
    </contour>
    <contour>
      <point x="137" y="358" type="curve" smooth="yes"/>
      <point x="137" y="553"/>
      <point x="177" y="650"/>
      <point x="285" y="650" type="curve" smooth="yes"/>
      <point x="392" y="650"/>
      <point x="434" y="553"/>
      <point x="434" y="358" type="curve" smooth="yes"/>
      <point x="434" y="161"/>
      <point x="392" y="65"/>
      <point x="285" y="65" type="curve" smooth="yes"/>
      <point x="177" y="65"/>
      <point x="137" y="162"/>
    </contour>
  </outline>
</glyph>
<glyph name="one" format="2">
  <advance width="572"/>
  <unicode hex="0031"/>
  <outline>
    <contour>
      <point x="355" y="0" type="line"/>
      <point x="355" y="714" type="line"/>
      <point x="282" y="714" type="line"/>
      <point x="89" y="564" type="line"/>
      <point x="135" y="505" type="line"/>
      <point x="211" y="567" type="line" smooth="yes"/>
      <point x="237" y="589"/>
      <point x="252" y="600"/>
      <point x="273" y="622" type="curve"/>
      <point x="270" y="584"/>
      <point x="269" y="556"/>
      <point x="269" y="499" type="curve" smooth="yes"/>
      <point x="269" y="0" type="line"/>
    </contour>
  </outline>
</glyph>
<glyph name="two" format="2">
  <advance width="572"/>
  <unicode hex="0032"/>
  <outline>
    <contour>
      <point x="520" y="0" type="line"/>
      <point x="520" y="80" type="line"/>
      <point x="159" y="80" type="line"/>
      <point x="159" y="84" type="line"/>
      <point x="308" y="231" type="line" smooth="yes"/>
      <point x="418" y="338"/>
      <point x="491" y="422"/>
      <point x="491" y="534" type="curve" smooth="yes"/>
      <point x="491" y="652"/>
      <point x="408" y="724"/>
      <point x="275" y="724" type="curve" smooth="yes"/>
      <point x="184" y="724"/>
      <point x="112" y="687"/>
      <point x="56" y="640" type="curve"/>
      <point x="103" y="581" type="line"/>
      <point x="158" y="624"/>
      <point x="205" y="649"/>
      <point x="275" y="649" type="curve" smooth="yes"/>
      <point x="350" y="649"/>
      <point x="401" y="607"/>
      <point x="401" y="529" type="curve" smooth="yes"/>
      <point x="401" y="432"/>
      <point x="342" y="370"/>
      <point x="235" y="262" type="curve" smooth="yes"/>
      <point x="48" y="73" type="line"/>
      <point x="48" y="0" type="line"/>
    </contour>
  </outline>
</glyph>
<glyph name="three" format="2">
  <advance width="572"/>
  <unicode hex="0033"/>
  <outline>
    <contour>
      <point x="493" y="547" type="curve" smooth="yes"/>
      <point x="493" y="649"/>
      <point x="421" y="724"/>
      <point x="272" y="724" type="curve" smooth="yes"/>
      <point x="176" y="724"/>
      <point x="100" y="690"/>
      <point x="49" y="650" type="curve"/>
      <point x="93" y="590" type="line"/>
      <point x="146" y="625"/>
      <point x="196" y="650"/>
      <point x="273" y="650" type="curve" smooth="yes"/>
      <point x="353" y="650"/>
      <point x="403" y="610"/>
      <point x="403" y="541" type="curve" smooth="yes"/>
      <point x="403" y="460"/>
      <point x="341" y="406"/>
      <point x="224" y="406" type="curve" smooth="yes"/>
      <point x="154" y="406" type="line"/>
      <point x="154" y="331" type="line"/>
      <point x="223" y="331" type="line" smooth="yes"/>
      <point x="349" y="331"/>
      <point x="423" y="294"/>
      <point x="423" y="205" type="curve" smooth="yes"/>
      <point x="423" y="117"/>
      <point x="370" y="64"/>
      <point x="242" y="64" type="curve" smooth="yes"/>
      <point x="178" y="64"/>
      <point x="105" y="81"/>
      <point x="45" y="111" type="curve"/>
      <point x="45" y="29" type="line"/>
      <point x="104" y="0"/>
      <point x="166" y="-10"/>
      <point x="241" y="-10" type="curve" smooth="yes"/>
      <point x="430" y="-10"/>
      <point x="515" y="78"/>
      <point x="515" y="203" type="curve" smooth="yes"/>
      <point x="515" y="297"/>
      <point x="459" y="358"/>
      <point x="345" y="372" type="curve"/>
      <point x="345" y="376" type="line"/>
      <point x="435" y="394"/>
      <point x="493" y="451"/>
    </contour>
  </outline>
</glyph>
<glyph name="four" format="2">
  <advance width="572"/>
  <unicode hex="0034"/>
  <outline>
    <contour>
      <point x="552" y="162" type="line"/>
      <point x="552" y="241" type="line"/>
      <point x="448" y="241" type="line"/>
      <point x="448" y="718" type="line"/>
      <point x="357" y="718" type="line"/>
      <point x="21" y="237" type="line"/>
      <point x="21" y="162" type="line"/>
      <point x="363" y="162" type="line"/>
      <point x="363" y="0" type="line"/>
      <point x="448" y="0" type="line"/>
      <point x="448" y="162" type="line"/>
    </contour>
    <contour>
      <point x="363" y="241" type="line"/>
      <point x="107" y="241" type="line"/>
      <point x="321" y="546" type="line" smooth="yes"/>
      <point x="335" y="566"/>
      <point x="353" y="599"/>
      <point x="364" y="624" type="curve"/>
      <point x="368" y="624" type="line"/>
      <point x="366" y="580"/>
      <point x="363" y="535"/>
      <point x="363" y="466" type="curve" smooth="yes"/>
    </contour>
  </outline>
</glyph>
<glyph name="five" format="2">
  <advance width="572"/>
  <unicode hex="0035"/>
  <outline>
    <contour>
      <point x="275" y="438" type="curve" smooth="yes"/>
      <point x="228" y="438"/>
      <point x="188" y="431"/>
      <point x="165" y="427" type="curve"/>
      <point x="182" y="634" type="line"/>
      <point x="465" y="634" type="line"/>
      <point x="465" y="714" type="line"/>
      <point x="107" y="714" type="line"/>
      <point x="80" y="377" type="line"/>
      <point x="124" y="349" type="line"/>
      <point x="153" y="356"/>
      <point x="208" y="364"/>
      <point x="246" y="364" type="curve" smooth="yes"/>
      <point x="370" y="364"/>
      <point x="425" y="312"/>
      <point x="425" y="219" type="curve" smooth="yes"/>
      <point x="425" y="114"/>
      <point x="354" y="65"/>
      <point x="249" y="65" type="curve" smooth="yes"/>
      <point x="186" y="65"/>
      <point x="111" y="83"/>
      <point x="63" y="112" type="curve"/>
      <point x="63" y="29" type="line"/>
      <point x="107" y="3"/>
      <point x="174" y="-10"/>
      <point x="248" y="-10" type="curve" smooth="yes"/>
      <point x="416" y="-10"/>
      <point x="515" y="80"/>
      <point x="515" y="228" type="curve" smooth="yes"/>
      <point x="515" y="361"/>
      <point x="421" y="438"/>
    </contour>
  </outline>
</glyph>
<glyph name="six" format="2">
  <advance width="572"/>
  <unicode hex="0036"/>
  <outline>
    <contour>
      <point x="55" y="305" type="curve" smooth="yes"/>
      <point x="55" y="91"/>
      <point x="162" y="-10"/>
      <point x="298" y="-10" type="curve" smooth="yes"/>
      <point x="437" y="-10"/>
      <point x="525" y="81"/>
      <point x="525" y="230" type="curve" smooth="yes"/>
      <point x="525" y="368"/>
      <point x="442" y="447"/>
      <point x="318" y="447" type="curve" smooth="yes"/>
      <point x="232" y="447"/>
      <point x="179" y="410"/>
      <point x="149" y="363" type="curve"/>
      <point x="143" y="363" type="line"/>
      <point x="150" y="519"/>
      <point x="199" y="652"/>
      <point x="384" y="652" type="curve" smooth="yes"/>
      <point x="414" y="652"/>
      <point x="446" y="648"/>
      <point x="470" y="640" type="curve"/>
      <point x="470" y="715" type="line"/>
      <point x="448" y="721"/>
      <point x="410" y="724"/>
      <point x="382" y="724" type="curve" smooth="yes"/>
      <point x="113" y="724"/>
      <point x="55" y="510"/>
    </contour>
    <contour>
      <point x="297" y="64" type="curve" smooth="yes"/>
      <point x="196" y="64"/>
      <point x="144" y="160"/>
      <point x="144" y="247" type="curve" smooth="yes"/>
      <point x="144" y="310"/>
      <point x="206" y="378"/>
      <point x="300" y="378" type="curve" smooth="yes"/>
      <point x="392" y="378"/>
      <point x="438" y="321"/>
      <point x="438" y="230" type="curve" smooth="yes"/>
      <point x="438" y="117"/>
      <point x="381" y="64"/>
    </contour>
  </outline>
</glyph>
<glyph name="eight" format="2">
  <advance width="572"/>
  <unicode hex="0038"/>
  <outline>
    <contour>
      <point x="285" y="724" type="curve" smooth="yes"/>
      <point x="163" y="724"/>
      <point x="72" y="663"/>
      <point x="72" y="554" type="curve" smooth="yes"/>
      <point x="72" y="466"/>
      <point x="127" y="413"/>
      <point x="197" y="373" type="curve"/>
      <point x="118" y="337"/>
      <point x="49" y="279"/>
      <point x="49" y="182" type="curve" smooth="yes"/>
      <point x="49" y="61"/>
      <point x="134" y="-10"/>
      <point x="288" y="-10" type="curve" smooth="yes"/>
      <point x="430" y="-10"/>
      <point x="522" y="65"/>
      <point x="522" y="185" type="curve" smooth="yes"/>
      <point x="522" y="282"/>
      <point x="451" y="335"/>
      <point x="363" y="378" type="curve"/>
      <point x="437" y="416"/>
      <point x="499" y="467"/>
      <point x="499" y="553" type="curve" smooth="yes"/>
      <point x="499" y="664"/>
      <point x="410" y="724"/>
    </contour>
    <contour>
      <point x="135" y="181" type="curve" smooth="yes"/>
      <point x="135" y="254"/>
      <point x="182" y="299"/>
      <point x="270" y="337" type="curve"/>
      <point x="286" y="331" type="line" smooth="yes"/>
      <point x="377" y="296"/>
      <point x="436" y="253"/>
      <point x="436" y="184" type="curve" smooth="yes"/>
      <point x="436" y="111"/>
      <point x="383" y="60"/>
      <point x="286" y="60" type="curve" smooth="yes"/>
      <point x="183" y="60"/>
      <point x="135" y="112"/>
    </contour>
    <contour>
      <point x="284" y="653" type="curve" smooth="yes"/>
      <point x="361" y="653"/>
      <point x="412" y="616"/>
      <point x="412" y="550" type="curve" smooth="yes"/>
      <point x="412" y="478"/>
      <point x="358" y="441"/>
      <point x="289" y="412" type="curve"/>
      <point x="216" y="443"/>
      <point x="158" y="476"/>
      <point x="158" y="550" type="curve" smooth="yes"/>
      <point x="158" y="616"/>
      <point x="210" y="653"/>
    </contour>
  </outline>
</glyph>
<glyph name="nine" format="2">
  <advance width="572"/>
  <unicode hex="0039"/>
  <outline>
    <contour>
      <point x="520" y="409" type="curve" smooth="yes"/>
      <point x="520" y="622"/>
      <point x="414" y="724"/>
      <point x="278" y="724" type="curve" smooth="yes"/>
      <point x="140" y="724"/>
      <point x="50" y="632"/>
      <point x="50" y="483" type="curve" smooth="yes"/>
      <point x="50" y="345"/>
      <point x="132" y="267"/>
      <point x="255" y="267" type="curve" smooth="yes"/>
      <point x="342" y="267"/>
      <point x="395" y="304"/>
      <point x="425" y="350" type="curve"/>
      <point x="431" y="350" type="line"/>
      <point x="425" y="194"/>
      <point x="376" y="62"/>
      <point x="190" y="62" type="curve" smooth="yes"/>
      <point x="160" y="62"/>
      <point x="126" y="67"/>
      <point x="102" y="75" type="curve"/>
      <point x="102" y="0" type="line"/>
      <point x="124" y="-7"/>
      <point x="165" y="-10"/>
      <point x="192" y="-10" type="curve" smooth="yes"/>
      <point x="462" y="-10"/>
      <point x="520" y="204"/>
    </contour>
    <contour>
      <point x="278" y="650" type="curve" smooth="yes"/>
      <point x="380" y="650"/>
      <point x="431" y="553"/>
      <point x="431" y="467" type="curve" smooth="yes"/>
      <point x="431" y="403"/>
      <point x="370" y="336"/>
      <point x="274" y="336" type="curve" smooth="yes"/>
      <point x="181" y="336"/>
      <point x="137" y="392"/>
      <point x="137" y="484" type="curve" smooth="yes"/>
      <point x="137" y="596"/>
      <point x="195" y="650"/>
    </contour>
  </outline>
</glyph>
<glyph name="colon" format="2">
  <advance width="268"/>
  <unicode hex="003A"/>
  <outline>
    <contour>
      <point x="72" y="54" type="curve" smooth="yes"/>
      <point x="72" y="6"/>
      <point x="99" y="-14"/>
      <point x="133" y="-14" type="curve" smooth="yes"/>
      <point x="167" y="-14"/>
      <point x="196" y="6"/>
      <point x="196" y="54" type="curve" smooth="yes"/>
      <point x="196" y="103"/>
      <point x="167" y="121"/>
      <point x="133" y="121" type="curve" smooth="yes"/>
      <point x="99" y="121"/>
      <point x="72" y="103"/>
    </contour>
    <contour>
      <point x="72" y="482" type="curve" smooth="yes"/>
      <point x="72" y="434"/>
      <point x="99" y="414"/>
      <point x="133" y="414" type="curve" smooth="yes"/>
      <point x="167" y="414"/>
      <point x="196" y="434"/>
      <point x="196" y="482" type="curve" smooth="yes"/>
      <point x="196" y="532"/>
      <point x="167" y="550"/>
      <point x="133" y="550" type="curve" smooth="yes"/>
      <point x="99" y="550"/>
      <point x="72" y="532"/>
    </contour>
  </outline>
</glyph>
<glyph name="greater" format="2">
  <advance width="558"/>
  <unicode hex="003E"/>
  <outline>
    <contour>
      <point x="43" y="194" type="line"/>
      <point x="43" y="116" type="line"/>
      <point x="514" y="323" type="line"/>
      <point x="514" y="373" type="line"/>
      <point x="43" y="608" type="line"/>
      <point x="43" y="530" type="line"/>
      <point x="420" y="351" type="line"/>
    </contour>
  </outline>
</glyph>
<glyph name="question" format="2">
  <advance width="434"/>
  <unicode hex="003F"/>
  <outline>
    <contour>
      <point x="140" y="201" type="line"/>
      <point x="210" y="201" type="line"/>
      <point x="210" y="218" type="line" smooth="yes"/>
      <point x="210" y="275"/>
      <point x="223" y="301"/>
      <point x="290" y="358" type="curve" smooth="yes"/>
      <point x="362" y="418"/>
      <point x="408" y="459"/>
      <point x="408" y="549" type="curve" smooth="yes"/>
      <point x="408" y="657"/>
      <point x="336" y="724"/>
      <point x="209" y="724" type="curve" smooth="yes"/>
      <point x="129" y="724"/>
      <point x="65" y="703"/>
      <point x="12" y="675" type="curve"/>
      <point x="43" y="605" type="line"/>
      <point x="89" y="627"/>
      <point x="137" y="647"/>
      <point x="203" y="647" type="curve" smooth="yes"/>
      <point x="281" y="647"/>
      <point x="324" y="611"/>
      <point x="324" y="547" type="curve" smooth="yes"/>
      <point x="324" y="487"/>
      <point x="301" y="463"/>
      <point x="224" y="398" type="curve" smooth="yes"/>
      <point x="159" y="343"/>
      <point x="140" y="303"/>
      <point x="140" y="228" type="curve" smooth="yes"/>
    </contour>
    <contour>
      <point x="117" y="54" type="curve" smooth="yes"/>
      <point x="117" y="6"/>
      <point x="143" y="-14"/>
      <point x="179" y="-14" type="curve" smooth="yes"/>
      <point x="212" y="-14"/>
      <point x="240" y="6"/>
      <point x="240" y="54" type="curve" smooth="yes"/>
      <point x="240" y="103"/>
      <point x="212" y="121"/>
      <point x="179" y="121" type="curve" smooth="yes"/>
      <point x="143" y="121"/>
      <point x="117" y="103"/>
    </contour>
  </outline>
</glyph>
<glyph name="at" format="2">
  <advance width="883"/>
  <unicode hex="0040"/>
  <outline>
    <contour>
      <point x="833" y="357" type="curve" smooth="yes"/>
      <point x="833" y="578"/>
      <point x="682" y="714"/>
      <point x="474" y="714" type="curve" smooth="yes"/>
      <point x="210" y="714"/>
      <point x="50" y="529"/>
      <point x="50" y="280" type="curve" smooth="yes"/>
      <point x="50" y="48"/>
      <point x="189" y="-89"/>
      <point x="425" y="-89" type="curve" smooth="yes"/>
      <point x="511" y="-89"/>
      <point x="583" y="-72"/>
      <point x="640" y="-48" type="curve"/>
      <point x="640" y="20" type="line"/>
      <point x="583" y="-2"/>
      <point x="506" y="-23"/>
      <point x="425" y="-23" type="curve" smooth="yes"/>
      <point x="229" y="-23"/>
      <point x="122" y="86"/>
      <point x="122" y="283" type="curve" smooth="yes"/>
      <point x="122" y="495"/>
      <point x="246" y="648"/>
      <point x="474" y="648" type="curve" smooth="yes"/>
      <point x="640" y="648"/>
      <point x="763" y="543"/>
      <point x="763" y="358" type="curve" smooth="yes"/>
      <point x="763" y="255"/>
      <point x="728" y="171"/>
      <point x="666" y="171" type="curve" smooth="yes"/>
      <point x="633" y="171"/>
      <point x="604" y="187"/>
      <point x="604" y="257" type="curve" smooth="yes"/>
      <point x="604" y="261"/>
      <point x="604" y="269"/>
      <point x="605" y="293" type="curve" smooth="yes"/>
      <point x="615" y="496" type="line"/>
      <point x="583" y="508"/>
      <point x="521" y="520"/>
      <point x="462" y="520" type="curve" smooth="yes"/>
      <point x="332" y="520"/>
      <point x="250" y="426"/>
      <point x="250" y="295" type="curve" smooth="yes"/>
      <point x="250" y="183"/>
      <point x="307" y="109"/>
      <point x="409" y="109" type="curve" smooth="yes"/>
      <point x="480" y="109"/>
      <point x="526" y="147"/>
      <point x="550" y="196" type="curve"/>
      <point x="555" y="196" type="line"/>
      <point x="563" y="150"/>
      <point x="599" y="109"/>
      <point x="660" y="109" type="curve" smooth="yes"/>
      <point x="776" y="109"/>
      <point x="833" y="235"/>
    </contour>
    <contour>
      <point x="328" y="293" type="curve" smooth="yes"/>
      <point x="328" y="375"/>
      <point x="364" y="457"/>
      <point x="463" y="457" type="curve" smooth="yes"/>
      <point x="491" y="457"/>
      <point x="519" y="452"/>
      <point x="537" y="447" type="curve"/>
      <point x="531" y="322" type="line" smooth="yes"/>
      <point x="526" y="233"/>
      <point x="496" y="171"/>
      <point x="422" y="171" type="curve" smooth="yes"/>
      <point x="364" y="171"/>
      <point x="328" y="207"/>
    </contour>
  </outline>
</glyph>
<glyph name="A" format="2">
  <advance width="639"/>
  <unicode hex="0041"/>
  <anchor x="324" y="0" name="bottom"/>
  <anchor x="318" y="714" name="top"/>
  <anchor x="519" y="714" name="topright"/>
  <outline>
    <contour>
      <point x="545" y="0" type="line"/>
      <point x="638" y="0" type="line"/>
      <point x="360" y="717" type="line"/>
      <point x="279" y="717" type="line"/>
      <point x="0" y="0" type="line"/>
      <point x="91" y="0" type="line"/>
      <point x="176" y="221" type="line"/>
      <point x="459" y="221" type="line"/>
    </contour>
    <contour>
      <point x="432" y="301" type="line"/>
      <point x="206" y="301" type="line"/>
      <point x="287" y="517" type="line" smooth="yes"/>
      <point x="295" y="540"/>
      <point x="308" y="583"/>
      <point x="318" y="624" type="curve"/>
      <point x="325" y="599"/>
      <point x="346" y="533"/>
      <point x="352" y="517" type="curve" smooth="yes"/>
    </contour>
  </outline>
</glyph>
<glyph name="D" format="2">
  <advance width="730"/>
  <unicode hex="0044"/>
  <anchor x="342" y="0" name="bottom"/>
  <anchor x="365" y="357" name="center"/>
  <anchor x="361" y="714" name="top"/>
  <anchor x="710" y="714" name="topright"/>
  <outline>
    <contour>
      <point x="669" y="364" type="curve" smooth="yes"/>
      <point x="669" y="593"/>
      <point x="532" y="714"/>
      <point x="317" y="714" type="curve" smooth="yes"/>
      <point x="97" y="714" type="line"/>
      <point x="97" y="0" type="line"/>
      <point x="296" y="0" type="line" smooth="yes"/>
      <point x="531" y="0"/>
      <point x="669" y="123"/>
    </contour>
    <contour>
      <point x="574" y="361" type="curve" smooth="yes"/>
      <point x="574" y="173"/>
      <point x="477" y="77"/>
      <point x="284" y="77" type="curve" smooth="yes"/>
      <point x="187" y="77" type="line"/>
      <point x="187" y="637" type="line"/>
      <point x="304" y="637" type="line" smooth="yes"/>
      <point x="476" y="637"/>
      <point x="574" y="551"/>
    </contour>
  </outline>
</glyph>
<glyph name="E" format="2">
  <advance width="556"/>
  <unicode hex="0045"/>
  <anchor x="300" y="0" name="bottom"/>
  <anchor x="305" y="714" name="top"/>
  <anchor x="536" y="714" name="topright"/>
  <outline>
    <contour>
      <point x="496" y="0" type="line"/>
      <point x="496" y="79" type="line"/>
      <point x="187" y="79" type="line"/>
      <point x="187" y="334" type="line"/>
      <point x="478" y="334" type="line"/>
      <point x="478" y="412" type="line"/>
      <point x="187" y="412" type="line"/>
      <point x="187" y="635" type="line"/>
      <point x="496" y="635" type="line"/>
      <point x="496" y="714" type="line"/>
      <point x="97" y="714" type="line"/>
      <point x="97" y="0" type="line"/>
    </contour>
  </outline>
</glyph>
<glyph name="G" format="2">
  <advance width="728"/>
  <unicode hex="0047"/>
  <anchor x="402" y="0" name="bottom"/>
  <anchor x="405" y="714" name="top"/>
  <anchor x="708" y="714" name="topright"/>
  <outline>
    <contour>
      <point x="407" y="377" type="line"/>
      <point x="407" y="297" type="line"/>
      <point x="564" y="297" type="line"/>
      <point x="564" y="85" type="line"/>
      <point x="528" y="76"/>
      <point x="487" y="68"/>
      <point x="424" y="68" type="curve" smooth="yes"/>
      <point x="232" y="68"/>
      <point x="155" y="186"/>
      <point x="155" y="357" type="curve" smooth="yes"/>
      <point x="155" y="535"/>
      <point x="255" y="645"/>
      <point x="426" y="645" type="curve" smooth="yes"/>
      <point x="494" y="645"/>
      <point x="559" y="626"/>
      <point x="610" y="604" type="curve"/>
      <point x="644" y="682" type="line"/>
      <point x="583" y="708"/>
      <point x="511" y="724"/>
      <point x="431" y="724" type="curve" smooth="yes"/>
      <point x="197" y="724"/>
      <point x="61" y="580"/>
      <point x="61" y="357" type="curve" smooth="yes"/>
      <point x="61" y="131"/>
      <point x="181" y="-10"/>
      <point x="403" y="-10" type="curve" smooth="yes"/>
      <point x="503" y="-10"/>
      <point x="577" y="2"/>
      <point x="654" y="27" type="curve"/>
      <point x="654" y="377" type="line"/>
    </contour>
  </outline>
</glyph>
<glyph name="H" format="2">
  <advance width="741"/>
  <unicode hex="0048"/>
  <anchor x="368" y="0" name="bottom"/>
  <anchor x="371" y="357" name="center"/>
  <anchor x="371" y="714" name="top"/>
  <anchor x="721" y="714" name="topright"/>
  <outline>
    <contour>
      <point x="643" y="0" type="line"/>
      <point x="643" y="714" type="line"/>
      <point x="553" y="714" type="line"/>
      <point x="553" y="412" type="line"/>
      <point x="187" y="412" type="line"/>
      <point x="187" y="714" type="line"/>
      <point x="97" y="714" type="line"/>
      <point x="97" y="0" type="line"/>
      <point x="187" y="0" type="line"/>
      <point x="187" y="333" type="line"/>
      <point x="553" y="333" type="line"/>
      <point x="553" y="0" type="line"/>
    </contour>
  </outline>
</glyph>
<glyph name="I" format="2">
  <advance width="339"/>
  <unicode hex="0049"/>
  <anchor x="170" y="0" name="bottom"/>
  <anchor x="170" y="714" name="top"/>
  <anchor x="319" y="714" name="topright"/>
  <outline>
    <contour>
      <point x="298" y="0" type="line"/>
      <point x="298" y="52" type="line"/>
      <point x="214" y="71" type="line"/>
      <point x="214" y="642" type="line"/>
      <point x="298" y="662" type="line"/>
      <point x="298" y="714" type="line"/>
      <point x="40" y="714" type="line"/>
      <point x="40" y="662" type="line"/>
      <point x="124" y="642" type="line"/>
      <point x="124" y="71" type="line"/>
      <point x="40" y="52" type="line"/>
      <point x="40" y="0" type="line"/>
    </contour>
  </outline>
</glyph>
<glyph name="K" format="2">
  <advance width="619"/>
  <unicode hex="004B"/>
  <anchor x="330" y="0" name="bottom"/>
  <anchor x="340" y="714" name="top"/>
  <anchor x="599" y="714" name="topright"/>
  <outline>
    <contour>
      <point x="619" y="0" type="line"/>
      <point x="325" y="403" type="line"/>
      <point x="608" y="714" type="line"/>
      <point x="503" y="714" type="line"/>
      <point x="310" y="498" type="line" smooth="yes"/>
      <point x="269" y="452"/>
      <point x="227" y="407"/>
      <point x="187" y="362" type="curve"/>
      <point x="187" y="714" type="line"/>
      <point x="97" y="714" type="line"/>
      <point x="97" y="0" type="line"/>
      <point x="187" y="0" type="line"/>
      <point x="187" y="277" type="line"/>
      <point x="260" y="341" type="line"/>
      <point x="513" y="0" type="line"/>
    </contour>
  </outline>
</glyph>
<glyph name="M" format="2">
  <advance width="907"/>
  <unicode hex="004D"/>
  <anchor x="448" y="0" name="bottom"/>
  <anchor x="454" y="714" name="top"/>
  <anchor x="887" y="714" name="topright"/>
  <outline>
    <contour>
      <point x="412" y="0" type="line"/>
      <point x="486" y="0" type="line"/>
      <point x="724" y="625" type="line"/>
      <point x="728" y="625" type="line"/>
      <point x="725" y="582"/>
      <point x="721" y="508"/>
      <point x="721" y="439" type="curve" smooth="yes"/>
      <point x="721" y="0" type="line"/>
      <point x="810" y="0" type="line"/>
      <point x="810" y="714" type="line"/>
      <point x="678" y="714" type="line"/>
      <point x="454" y="129" type="line"/>
      <point x="450" y="129" type="line"/>
      <point x="230" y="714" type="line"/>
      <point x="97" y="714" type="line"/>
      <point x="97" y="0" type="line"/>
      <point x="180" y="0" type="line"/>
      <point x="180" y="433" type="line" smooth="yes"/>
      <point x="180" y="509"/>
      <point x="177" y="585"/>
      <point x="173" y="626" type="curve"/>
      <point x="177" y="626" type="line"/>
    </contour>
  </outline>
</glyph>
<glyph name="N" format="2">
  <advance width="760"/>
  <unicode hex="004E"/>
  <anchor x="380" y="0" name="bottom"/>
  <anchor x="380" y="714" name="top"/>
  <anchor x="740" y="714" name="topright"/>
  <outline>
    <contour>
      <point x="663" y="0" type="line"/>
      <point x="663" y="714" type="line"/>
      <point x="579" y="714" type="line"/>
      <point x="579" y="311" type="line" smooth="yes"/>
      <point x="579" y="246"/>
      <point x="584" y="155"/>
      <point x="586" y="123" type="curve"/>
      <point x="582" y="123" type="line"/>
      <point x="201" y="714" type="line"/>
      <point x="97" y="714" type="line"/>
      <point x="97" y="0" type="line"/>
      <point x="180" y="0" type="line"/>
      <point x="180" y="399" type="line" smooth="yes"/>
      <point x="180" y="472"/>
      <point x="175" y="546"/>
      <point x="172" y="593" type="curve"/>
      <point x="176" y="593" type="line"/>
      <point x="558" y="0" type="line"/>
    </contour>
  </outline>
</glyph>
<glyph name="O" format="2">
  <advance width="781"/>
  <unicode hex="004F"/>
  <anchor x="392" y="0" name="bottom"/>
  <anchor x="391" y="357" name="center"/>
  <anchor x="391" y="714" name="top"/>
  <anchor x="761" y="714" name="topright"/>
  <outline>
    <contour>
      <point x="720" y="358" type="curve" smooth="yes"/>
      <point x="720" y="580"/>
      <point x="606" y="725"/>
      <point x="392" y="725" type="curve" smooth="yes"/>
      <point x="168" y="725"/>
      <point x="61" y="578"/>
      <point x="61" y="359" type="curve" smooth="yes"/>
      <point x="61" y="138"/>
      <point x="168" y="-10"/>
      <point x="391" y="-10" type="curve" smooth="yes"/>
      <point x="606" y="-10"/>
      <point x="720" y="137"/>
    </contour>
    <contour>
      <point x="156" y="358" type="curve" smooth="yes"/>
      <point x="156" y="538"/>
      <point x="230" y="646"/>
      <point x="392" y="646" type="curve" smooth="yes"/>
      <point x="553" y="646"/>
      <point x="625" y="538"/>
      <point x="625" y="358" type="curve" smooth="yes"/>
      <point x="625" y="178"/>
      <point x="553" y="68"/>
      <point x="391" y="68" type="curve" smooth="yes"/>
      <point x="230" y="68"/>
      <point x="156" y="178"/>
    </contour>
  </outline>
</glyph>
<glyph name="P" format="2">
  <advance width="605"/>
  <unicode hex="0050"/>
  <anchor x="303" y="0" name="bottom"/>
  <anchor x="317" y="714" name="top"/>
  <anchor x="585" y="714" name="topright"/>
  <outline>
    <contour>
      <point x="286" y="714" type="curve" smooth="yes"/>
      <point x="97" y="714" type="line"/>
      <point x="97" y="0" type="line"/>
      <point x="187" y="0" type="line"/>
      <point x="187" y="278" type="line"/>
      <point x="269" y="278" type="line" smooth="yes"/>
      <point x="483" y="278"/>
      <point x="554" y="386"/>
      <point x="554" y="504" type="curve" smooth="yes"/>
      <point x="554" y="637"/>
      <point x="473" y="714"/>
    </contour>
    <contour>
      <point x="278" y="637" type="line" smooth="yes"/>
      <point x="404" y="637"/>
      <point x="461" y="592"/>
      <point x="461" y="500" type="curve" smooth="yes"/>
      <point x="461" y="395"/>
      <point x="395" y="355"/>
      <point x="259" y="355" type="curve" smooth="yes"/>
      <point x="187" y="355" type="line"/>
      <point x="187" y="637" type="line"/>
    </contour>
  </outline>
</glyph>
<glyph name="Q" format="2">
  <advance width="781"/>
  <unicode hex="0051"/>
  <anchor x="391" y="-170" name="bottom"/>
  <anchor x="391" y="714" name="top"/>
  <anchor x="761" y="714" name="topright"/>
  <outline>
    <contour>
      <point x="720" y="358" type="curve" smooth="yes"/>
      <point x="720" y="580"/>
      <point x="606" y="725"/>
      <point x="392" y="725" type="curve" smooth="yes"/>
      <point x="168" y="725"/>
      <point x="61" y="578"/>
      <point x="61" y="359" type="curve" smooth="yes"/>
      <point x="61" y="138"/>
      <point x="168" y="-10"/>
      <point x="391" y="-10" type="curve" smooth="yes"/>
      <point x="399" y="-10"/>
      <point x="408" y="-9"/>
      <point x="416" y="-9" type="curve"/>
      <point x="554" y="-170" type="line"/>
      <point x="683" y="-170" type="line"/>
      <point x="512" y="8" type="line"/>
      <point x="649" y="54"/>
      <point x="720" y="183"/>
    </contour>
    <contour>
      <point x="156" y="358" type="curve" smooth="yes"/>
      <point x="156" y="538"/>
      <point x="230" y="646"/>
      <point x="392" y="646" type="curve" smooth="yes"/>
      <point x="553" y="646"/>
      <point x="625" y="538"/>
      <point x="625" y="358" type="curve" smooth="yes"/>
      <point x="625" y="178"/>
      <point x="553" y="68"/>
      <point x="391" y="68" type="curve" smooth="yes"/>
      <point x="230" y="68"/>
      <point x="156" y="178"/>
    </contour>
  </outline>
</glyph>
<glyph name="R" format="2">
  <advance width="622"/>
  <unicode hex="0052"/>
  <anchor x="328" y="0" name="bottom"/>
  <anchor x="311" y="714" name="top"/>
  <anchor x="602" y="714" name="topright"/>
  <outline>
    <contour>
      <point x="294" y="714" type="curve" smooth="yes"/>
      <point x="97" y="714" type="line"/>
      <point x="97" y="0" type="line"/>
      <point x="187" y="0" type="line"/>
      <point x="187" y="295" type="line"/>
      <point x="329" y="295" type="line"/>
      <point x="502" y="0" type="line"/>
      <point x="607" y="0" type="line"/>
      <point x="411" y="320" type="line"/>
      <point x="483" y="345"/>
      <point x="554" y="397"/>
      <point x="554" y="511" type="curve" smooth="yes"/>
      <point x="554" y="647"/>
      <point x="471" y="714"/>
    </contour>
    <contour>
      <point x="289" y="636" type="line" smooth="yes"/>
      <point x="406" y="636"/>
      <point x="461" y="600"/>
      <point x="461" y="507" type="curve" smooth="yes"/>
      <point x="461" y="417"/>
      <point x="410" y="371"/>
      <point x="294" y="371" type="curve" smooth="yes"/>
      <point x="187" y="371" type="line"/>
      <point x="187" y="636" type="line"/>
    </contour>
  </outline>
</glyph>
<glyph name="S" format="2">
  <advance width="549"/>
  <unicode hex="0053"/>
  <anchor x="257" y="0" name="bottom"/>
  <anchor x="285" y="714" name="top"/>
  <anchor x="529" y="714" name="topright"/>
  <outline>
    <contour>
      <point x="502" y="191" type="curve" smooth="yes"/>
      <point x="502" y="303"/>
      <point x="433" y="350"/>
      <point x="307" y="397" type="curve" smooth="yes"/>
      <point x="191" y="440"/>
      <point x="151" y="469"/>
      <point x="151" y="541" type="curve" smooth="yes"/>
      <point x="151" y="603"/>
      <point x="197" y="645"/>
      <point x="286" y="645" type="curve" smooth="yes"/>
      <point x="348" y="645"/>
      <point x="407" y="628"/>
      <point x="457" y="607" type="curve"/>
      <point x="485" y="684" type="line"/>
      <point x="431" y="708"/>
      <point x="366" y="724"/>
      <point x="288" y="724" type="curve" smooth="yes"/>
      <point x="153" y="724"/>
      <point x="60" y="655"/>
      <point x="60" y="542" type="curve" smooth="yes"/>
      <point x="60" y="431"/>
      <point x="122" y="374"/>
      <point x="244" y="330" type="curve" smooth="yes"/>
      <point x="373" y="283"/>
      <point x="412" y="253"/>
      <point x="412" y="183" type="curve" smooth="yes"/>
      <point x="412" y="112"/>
      <point x="357" y="68"/>
      <point x="251" y="68" type="curve" smooth="yes"/>
      <point x="175" y="68"/>
      <point x="99" y="89"/>
      <point x="51" y="110" type="curve"/>
      <point x="51" y="24" type="line"/>
      <point x="96" y="2"/>
      <point x="167" y="-10"/>
      <point x="247" y="-10" type="curve" smooth="yes"/>
      <point x="403" y="-10"/>
      <point x="502" y="64"/>
    </contour>
  </outline>
</glyph>
<glyph name="U" format="2">
  <advance width="731"/>
  <unicode hex="0055"/>
  <anchor x="364" y="0" name="bottom"/>
  <anchor x="366" y="714" name="top"/>
  <anchor x="711" y="714" name="topright"/>
  <outline>
    <contour>
      <point x="640" y="714" type="line"/>
      <point x="551" y="714" type="line"/>
      <point x="551" y="252" type="line" smooth="yes"/>
      <point x="551" y="144"/>
      <point x="496" y="68"/>
      <point x="367" y="68" type="curve" smooth="yes"/>
      <point x="242" y="68"/>
      <point x="180" y="135"/>
      <point x="180" y="251" type="curve" smooth="yes"/>
      <point x="180" y="714" type="line"/>
      <point x="90" y="714" type="line"/>
      <point x="90" y="254" type="line" smooth="yes"/>
      <point x="90" y="95"/>
      <point x="184" y="-10"/>
      <point x="362" y="-10" type="curve" smooth="yes"/>
      <point x="551" y="-10"/>
      <point x="640" y="104"/>
      <point x="640" y="252" type="curve" smooth="yes"/>
    </contour>
  </outline>
</glyph>
<glyph name="V" format="2">
  <advance width="600"/>
  <unicode hex="0056"/>
  <anchor x="299" y="0" name="bottom"/>
  <anchor x="303" y="714" name="top"/>
  <anchor x="580" y="714" name="topright"/>
  <outline>
    <contour>
      <point x="600" y="714" type="line"/>
      <point x="505" y="714" type="line"/>
      <point x="345" y="258" type="line" smooth="yes"/>
      <point x="324" y="198"/>
      <point x="309" y="147"/>
      <point x="300" y="100" type="curve"/>
      <point x="290" y="147"/>
      <point x="276" y="197"/>
      <point x="255" y="256" type="curve" smooth="yes"/>
      <point x="94" y="714" type="line"/>
      <point x="0" y="714" type="line"/>
      <point x="255" y="0" type="line"/>
      <point x="345" y="0" type="line"/>
    </contour>
  </outline>
</glyph>
<glyph name="W" format="2">
  <advance width="930"/>
  <unicode hex="0057"/>
  <anchor x="458" y="0" name="bottom"/>
  <anchor x="465" y="714" name="top"/>
  <anchor x="910" y="714" name="topright"/>
  <outline>
    <contour>
      <point x="917" y="714" type="line"/>
      <point x="823" y="714" type="line"/>
      <point x="713" y="279" type="line" smooth="yes"/>
      <point x="697" y="216"/>
      <point x="684" y="157"/>
      <point x="678" y="108" type="curve"/>
      <point x="671" y="154"/>
      <point x="658" y="218"/>
      <point x="639" y="280" type="curve" smooth="yes"/>
      <point x="508" y="714" type="line"/>
      <point x="415" y="714" type="line"/>
      <point x="289" y="283" type="line" smooth="yes"/>
      <point x="272" y="224"/>
      <point x="258" y="160"/>
      <point x="251" y="108" type="curve"/>
      <point x="244" y="158"/>
      <point x="233" y="216"/>
      <point x="217" y="278" type="curve" smooth="yes"/>
      <point x="106" y="714" type="line"/>
      <point x="12" y="714" type="line"/>
      <point x="201" y="0" type="line"/>
      <point x="292" y="0" type="line"/>
      <point x="427" y="465" type="line" smooth="yes"/>
      <point x="445" y="526"/>
      <point x="459" y="591"/>
      <point x="461" y="609" type="curve"/>
      <point x="464" y="591"/>
      <point x="480" y="525"/>
      <point x="497" y="468" type="curve" smooth="yes"/>
      <point x="636" y="0" type="line"/>
      <point x="727" y="0" type="line"/>
    </contour>
  </outline>
</glyph>
<glyph name="X" format="2">
  <advance width="586"/>
  <unicode hex="0058"/>
  <anchor x="293" y="0" name="bottom"/>
  <anchor x="291" y="714" name="top"/>
  <anchor x="565" y="714" name="topright"/>
  <outline>
    <contour>
      <point x="582" y="0" type="line"/>
      <point x="344" y="374" type="line"/>
      <point x="565" y="714" type="line"/>
      <point x="470" y="714" type="line"/>
      <point x="294" y="434" type="line"/>
      <point x="119" y="714" type="line"/>
      <point x="19" y="714" type="line"/>
      <point x="241" y="372" type="line"/>
      <point x="4" y="0" type="line"/>
      <point x="99" y="0" type="line"/>
      <point x="291" y="310" type="line"/>
      <point x="480" y="0" type="line"/>
    </contour>
  </outline>
</glyph>
<glyph name="Y" format="2">
  <advance width="566"/>
  <unicode hex="0059"/>
  <anchor x="283" y="0" name="bottom"/>
  <anchor x="283" y="714" name="top"/>
  <anchor x="546" y="714" name="topright"/>
  <outline>
    <contour>
      <point x="283" y="363" type="line"/>
      <point x="98" y="714" type="line"/>
      <point x="0" y="714" type="line"/>
      <point x="238" y="273" type="line"/>
      <point x="238" y="0" type="line"/>
      <point x="328" y="0" type="line"/>
      <point x="328" y="277" type="line"/>
      <point x="566" y="714" type="line"/>
      <point x="469" y="714" type="line"/>
    </contour>
  </outline>
</glyph>
<glyph name="Z" format="2">
  <advance width="572"/>
  <unicode hex="005A"/>
  <anchor x="297" y="0" name="bottom"/>
  <anchor x="290" y="714" name="top"/>
  <anchor x="552" y="714" name="topright"/>
  <outline>
    <contour>
      <point x="533" y="0" type="line"/>
      <point x="533" y="80" type="line"/>
      <point x="147" y="80" type="line"/>
      <point x="523" y="646" type="line"/>
      <point x="523" y="714" type="line"/>
      <point x="50" y="714" type="line"/>
      <point x="50" y="634" type="line"/>
      <point x="414" y="634" type="line"/>
      <point x="38" y="68" type="line"/>
      <point x="38" y="0" type="line"/>
    </contour>
  </outline>
</glyph>
<glyph name="bracketleft" format="2">
  <advance width="329"/>
  <unicode hex="005B"/>
  <outline>
    <contour>
      <point x="304" y="-158" type="line"/>
      <point x="304" y="-86" type="line"/>
      <point x="166" y="-86" type="line"/>
      <point x="166" y="642" type="line"/>
      <point x="304" y="642" type="line"/>
      <point x="304" y="714" type="line"/>
      <point x="80" y="714" type="line"/>
      <point x="80" y="-158" type="line"/>
    </contour>
  </outline>
</glyph>
<glyph name="backslash" format="2">
  <advance width="372"/>
  <unicode hex="005C"/>
  <outline>
    <contour>
      <point x="96" y="714" type="line"/>
      <point x="10" y="714" type="line"/>
      <point x="276" y="0" type="line"/>
      <point x="363" y="0" type="line"/>
    </contour>
  </outline>
</glyph>
<glyph name="underscore" format="2">
  <advance width="444"/>
  <unicode hex="005F"/>
  <outline>
    <contour>
      <point x="446" y="-154" type="line"/>
      <point x="446" y="-90" type="line"/>
      <point x="-2" y="-90" type="line"/>
      <point x="-2" y="-154" type="line"/>
    </contour>
  </outline>
</glyph>
<glyph name="grave" format="2">
  <advance width="281"/>
  <unicode hex="0060"/>
  <outline>
    <contour>
      <point x="145" y="766" type="curve"/>
      <point x="40" y="766" type="line"/>
      <point x="40" y="756" type="line"/>
      <point x="63" y="719"/>
      <point x="136" y="642"/>
      <point x="182" y="606" type="curve"/>
      <point x="241" y="606" type="line"/>
      <point x="241" y="618" type="line"/>
      <point x="210" y="655"/>
      <point x="167" y="721"/>
    </contour>
  </outline>
</glyph>
<glyph name="a" format="2">
  <advance width="561"/>
  <unicode hex="0061"/>
  <anchor x="281" y="0" name="bottom"/>
  <anchor x="281" y="536" name="top"/>
  <anchor x="511" y="536" name="topright"/>
  <outline>
    <contour>
      <point x="288" y="545" type="curve" smooth="yes"/>
      <point x="218" y="545"/>
      <point x="152" y="524"/>
      <point x="105" y="499" type="curve"/>
      <point x="132" y="433" type="line"/>
      <point x="176" y="454"/>
      <point x="227" y="474"/>
      <point x="283" y="474" type="curve" smooth="yes"/>
      <point x="353" y="474"/>
      <point x="394" y="444"/>
      <point x="394" y="355" type="curve" smooth="yes"/>
      <point x="394" y="323" type="line"/>
      <point x="303" y="320" type="line" smooth="yes"/>
      <point x="128" y="315"/>
      <point x="46" y="256"/>
      <point x="46" y="149" type="curve" smooth="yes"/>
      <point x="46" y="40"/>
      <point x="118" y="-10"/>
      <point x="215" y="-10" type="curve" smooth="yes"/>
      <point x="305" y="-10"/>
      <point x="348" y="17"/>
      <point x="395" y="76" type="curve"/>
      <point x="399" y="76" type="line"/>
      <point x="416" y="0" type="line"/>
      <point x="480" y="0" type="line"/>
      <point x="480" y="365" type="line" smooth="yes"/>
      <point x="480" y="490"/>
      <point x="418" y="545"/>
    </contour>
    <contour>
      <point x="393" y="262" type="line"/>
      <point x="393" y="214" type="line" smooth="yes"/>
      <point x="393" y="110"/>
      <point x="325" y="61"/>
      <point x="235" y="61" type="curve" smooth="yes"/>
      <point x="177" y="61"/>
      <point x="137" y="88"/>
      <point x="137" y="148" type="curve" smooth="yes"/>
      <point x="137" y="216"/>
      <point x="180" y="254"/>
      <point x="314" y="259" type="curve" smooth="yes"/>
    </contour>
  </outline>
</glyph>
<glyph name="b" format="2">
  <advance width="615"/>
  <unicode hex="0062"/>
  <anchor x="322" y="0" name="bottom"/>
  <anchor x="338" y="760" name="top"/>
  <anchor x="515" y="760" name="topright"/>
  <outline>
    <contour>
      <point x="173" y="760" type="line"/>
      <point x="85" y="760" type="line"/>
      <point x="85" y="0" type="line"/>
      <point x="148" y="0" type="line"/>
      <point x="166" y="68" type="line"/>
      <point x="173" y="68" type="line"/>
      <point x="203" y="25"/>
      <point x="255" y="-10"/>
      <point x="339" y="-10" type="curve" smooth="yes"/>
      <point x="471" y="-10"/>
      <point x="560" y="84"/>
      <point x="560" y="268" type="curve" smooth="yes"/>
      <point x="560" y="452"/>
      <point x="472" y="545"/>
      <point x="339" y="545" type="curve" smooth="yes"/>
      <point x="255" y="545"/>
      <point x="203" y="510"/>
      <point x="173" y="465" type="curve"/>
      <point x="168" y="465" type="line"/>
      <point x="170" y="487"/>
      <point x="173" y="530"/>
      <point x="173" y="575" type="curve" smooth="yes"/>
    </contour>
    <contour>
      <point x="324" y="472" type="curve" smooth="yes"/>
      <point x="422" y="472"/>
      <point x="469" y="404"/>
      <point x="469" y="269" type="curve" smooth="yes"/>
      <point x="469" y="136"/>
      <point x="422" y="63"/>
      <point x="326" y="63" type="curve" smooth="yes"/>
      <point x="208" y="63"/>
      <point x="173" y="135"/>
      <point x="173" y="267" type="curve" smooth="yes"/>
      <point x="173" y="271" type="line" smooth="yes"/>
      <point x="173" y="408"/>
      <point x="210" y="472"/>
    </contour>
  </outline>
</glyph>
<glyph name="e" format="2">
  <advance width="564"/>
  <unicode hex="0065"/>
  <anchor x="301" y="0" name="bottom"/>
  <anchor x="285" y="536" name="top"/>
  <anchor x="544" y="536" name="topright"/>
  <outline>
    <contour>
      <point x="292" y="546" type="curve" smooth="yes"/>
      <point x="150" y="546"/>
      <point x="55" y="440"/>
      <point x="55" y="264" type="curve" smooth="yes"/>
      <point x="55" y="85"/>
      <point x="160" y="-10"/>
      <point x="313" y="-10" type="curve" smooth="yes"/>
      <point x="386" y="-10"/>
      <point x="434" y="1"/>
      <point x="489" y="25" type="curve"/>
      <point x="489" y="102" type="line"/>
      <point x="433" y="78"/>
      <point x="385" y="65"/>
      <point x="317" y="65" type="curve" smooth="yes"/>
      <point x="210" y="65"/>
      <point x="149" y="130"/>
      <point x="146" y="251" type="curve"/>
      <point x="513" y="251" type="line"/>
      <point x="513" y="304" type="line" smooth="yes"/>
      <point x="513" y="450"/>
      <point x="429" y="546"/>
    </contour>
    <contour>
      <point x="291" y="474" type="curve" smooth="yes"/>
      <point x="380" y="474"/>
      <point x="420" y="412"/>
      <point x="421" y="321" type="curve"/>
      <point x="148" y="321" type="line"/>
      <point x="157" y="417"/>
      <point x="207" y="474"/>
    </contour>
  </outline>
</glyph>
<glyph name="f" format="2">
  <advance width="344"/>
  <unicode hex="0066"/>
  <anchor x="153" y="0" name="bottom"/>
  <anchor x="252" y="765" name="top"/>
  <anchor x="380" y="765" name="topright"/>
  <outline>
    <contour>
      <point x="332" y="468" type="line"/>
      <point x="332" y="536" type="line"/>
      <point x="197" y="536" type="line"/>
      <point x="197" y="571" type="line" smooth="yes"/>
      <point x="197" y="655"/>
      <point x="225" y="693"/>
      <point x="284" y="693" type="curve" smooth="yes"/>
      <point x="313" y="693"/>
      <point x="342" y="685"/>
      <point x="364" y="678" type="curve"/>
      <point x="387" y="747" type="line"/>
      <point x="361" y="756"/>
      <point x="325" y="765"/>
      <point x="283" y="765" type="curve" smooth="yes"/>
      <point x="173" y="765"/>
      <point x="109" y="708"/>
      <point x="109" y="570" type="curve" smooth="yes"/>
      <point x="109" y="539" type="line"/>
      <point x="15" y="509" type="line"/>
      <point x="15" y="468" type="line"/>
      <point x="109" y="468" type="line"/>
      <point x="109" y="0" type="line"/>
      <point x="197" y="0" type="line"/>
      <point x="197" y="468" type="line"/>
    </contour>
  </outline>
</glyph>
<glyph name="g" format="2">
  <advance width="615"/>
  <unicode hex="0067"/>
  <anchor x="298" y="-240" name="bottom"/>
  <anchor x="297" y="536" name="top"/>
  <anchor x="555" y="536" name="topright"/>
  <outline>
    <contour>
      <point x="275" y="546" type="curve" smooth="yes"/>
      <point x="137" y="546"/>
      <point x="55" y="438"/>
      <point x="55" y="267" type="curve" smooth="yes"/>
      <point x="55" y="92"/>
      <point x="137" y="-10"/>
      <point x="276" y="-10" type="curve" smooth="yes"/>
      <point x="349" y="-10"/>
      <point x="405" y="16"/>
      <point x="442" y="71" type="curve"/>
      <point x="446" y="71" type="line"/>
      <point x="445" y="59"/>
      <point x="443" y="21"/>
      <point x="443" y="5" type="curve" smooth="yes"/>
      <point x="443" y="-16" type="line"/>
      <point x="443" y="-110"/>
      <point x="387" y="-167"/>
      <point x="295" y="-167" type="curve" smooth="yes"/>
      <point x="218" y="-167"/>
      <point x="148" y="-152"/>
      <point x="97" y="-125" type="curve"/>
      <point x="97" y="-206" type="line"/>
      <point x="148" y="-229"/>
      <point x="212" y="-240"/>
      <point x="290" y="-240" type="curve" smooth="yes"/>
      <point x="454" y="-240"/>
      <point x="530" y="-162"/>
      <point x="530" y="-9" type="curve" smooth="yes"/>
      <point x="530" y="536" type="line"/>
      <point x="460" y="536" type="line"/>
      <point x="448" y="465" type="line"/>
      <point x="443" y="465" type="line"/>
      <point x="403" y="520"/>
      <point x="345" y="546"/>
    </contour>
    <contour>
      <point x="287" y="472" type="curve" smooth="yes"/>
      <point x="395" y="472"/>
      <point x="444" y="413"/>
      <point x="444" y="267" type="curve" smooth="yes"/>
      <point x="444" y="246" type="line" smooth="yes"/>
      <point x="444" y="117"/>
      <point x="397" y="62"/>
      <point x="289" y="62" type="curve" smooth="yes"/>
      <point x="195" y="62"/>
      <point x="146" y="134"/>
      <point x="146" y="266" type="curve" smooth="yes"/>
      <point x="146" y="398"/>
      <point x="197" y="472"/>
    </contour>
  </outline>
</glyph>
<glyph name="h" format="2">
  <advance width="618"/>
  <unicode hex="0068"/>
  <anchor x="310" y="0" name="bottom"/>
  <anchor x="309" y="268" name="center"/>
  <anchor x="130" y="760" name="top"/>
  <anchor x="535" y="760" name="topright"/>
  <outline>
    <contour>
      <point x="173" y="760" type="line"/>
      <point x="85" y="760" type="line"/>
      <point x="85" y="0" type="line"/>
      <point x="173" y="0" type="line"/>
      <point x="173" y="277" type="line" smooth="yes"/>
      <point x="173" y="402"/>
      <point x="210" y="472"/>
      <point x="330" y="472" type="curve" smooth="yes"/>
      <point x="412" y="472"/>
      <point x="450" y="429"/>
      <point x="450" y="343" type="curve" smooth="yes"/>
      <point x="450" y="0" type="line"/>
      <point x="537" y="0" type="line"/>
      <point x="537" y="349" type="line" smooth="yes"/>
      <point x="537" y="486"/>
      <point x="471" y="545"/>
      <point x="341" y="545" type="curve" smooth="yes"/>
      <point x="272" y="545"/>
      <point x="208" y="517"/>
      <point x="174" y="462" type="curve"/>
      <point x="168" y="462" type="line"/>
      <point x="171" y="483"/>
      <point x="173" y="511"/>
      <point x="173" y="537" type="curve" smooth="yes"/>
    </contour>
  </outline>
</glyph>
<glyph name="i" format="2">
  <advance width="258"/>
  <unicode hex="0069"/>
  <anchor x="131" y="0" name="bottom"/>
  <anchor x="129" y="737" name="top"/>
  <anchor x="238" y="737" name="topright"/>
  <outline>
    <contour>
      <point x="173" y="536" type="line"/>
      <point x="85" y="536" type="line"/>
      <point x="85" y="0" type="line"/>
      <point x="173" y="0" type="line"/>
    </contour>
    <contour>
      <point x="130" y="737" type="curve" smooth="yes"/>
      <point x="101" y="737"/>
      <point x="78" y="720"/>
      <point x="78" y="681" type="curve" smooth="yes"/>
      <point x="78" y="643"/>
      <point x="101" y="625"/>
      <point x="130" y="625" type="curve" smooth="yes"/>
      <point x="157" y="625"/>
      <point x="181" y="643"/>
      <point x="181" y="681" type="curve" smooth="yes"/>
      <point x="181" y="720"/>
      <point x="157" y="737"/>
    </contour>
  </outline>
</glyph>
<glyph name="j" format="2">
  <advance width="258"/>
  <unicode hex="006A"/>
  <anchor x="22" y="-240" name="bottom"/>
  <anchor x="129" y="737" name="top"/>
  <anchor x="238" y="737" name="topright"/>
  <outline>
    <contour>
      <point x="22" y="-240" type="curve" smooth="yes"/>
      <point x="127" y="-240"/>
      <point x="173" y="-180"/>
      <point x="173" y="-80" type="curve" smooth="yes"/>
      <point x="173" y="536" type="line"/>
      <point x="85" y="536" type="line"/>
      <point x="85" y="-83" type="line" smooth="yes"/>
      <point x="85" y="-148"/>
      <point x="54" y="-167"/>
      <point x="11" y="-167" type="curve" smooth="yes"/>
      <point x="-15" y="-167"/>
      <point x="-35" y="-163"/>
      <point x="-55" y="-157" type="curve"/>
      <point x="-55" y="-228" type="line"/>
      <point x="-37" y="-235"/>
      <point x="-12" y="-240"/>
    </contour>
    <contour>
      <point x="78" y="681" type="curve" smooth="yes"/>
      <point x="78" y="643"/>
      <point x="101" y="625"/>
      <point x="130" y="625" type="curve" smooth="yes"/>
      <point x="157" y="625"/>
      <point x="181" y="643"/>
      <point x="181" y="681" type="curve" smooth="yes"/>
      <point x="181" y="720"/>
      <point x="157" y="737"/>
      <point x="130" y="737" type="curve" smooth="yes"/>
      <point x="101" y="737"/>
      <point x="78" y="720"/>
    </contour>
  </outline>
</glyph>
<glyph name="k" format="2">
  <advance width="534"/>
  <unicode hex="006B"/>
  <anchor x="267" y="0" name="bottom"/>
  <anchor x="129" y="760" name="top"/>
  <anchor x="529" y="760" name="topright"/>
  <outline>
    <contour>
      <point x="172" y="760" type="line"/>
      <point x="85" y="760" type="line"/>
      <point x="85" y="0" type="line"/>
      <point x="172" y="0" type="line"/>
      <point x="172" y="197" type="line"/>
      <point x="233" y="250" type="line"/>
      <point x="419" y="0" type="line"/>
      <point x="525" y="0" type="line"/>
      <point x="293" y="307" type="line"/>
      <point x="510" y="536" type="line"/>
      <point x="407" y="536" type="line"/>
      <point x="236" y="355" type="line" smooth="yes"/>
      <point x="218" y="335"/>
      <point x="184" y="292"/>
      <point x="172" y="276" type="curve"/>
      <point x="168" y="276" type="line"/>
      <point x="169" y="301"/>
      <point x="172" y="342"/>
      <point x="172" y="363" type="curve" smooth="yes"/>
    </contour>
  </outline>
</glyph>
<glyph name="m" format="2">
  <advance width="935"/>
  <unicode hex="006D"/>
  <anchor x="471" y="0" name="bottom"/>
  <anchor x="479" y="536" name="top"/>
  <anchor x="885" y="536" name="topright"/>
  <outline>
    <contour>
      <point x="673" y="546" type="curve" smooth="yes"/>
      <point x="603" y="546"/>
      <point x="537" y="517"/>
      <point x="501" y="456" type="curve"/>
      <point x="496" y="456" type="line"/>
      <point x="470" y="517"/>
      <point x="414" y="546"/>
      <point x="332" y="546" type="curve" smooth="yes"/>
      <point x="268" y="546"/>
      <point x="207" y="519"/>
      <point x="174" y="463" type="curve"/>
      <point x="169" y="463" type="line"/>
      <point x="156" y="536" type="line"/>
      <point x="85" y="536" type="line"/>
      <point x="85" y="0" type="line"/>
      <point x="173" y="0" type="line"/>
      <point x="173" y="278" type="line" smooth="yes"/>
      <point x="173" y="403"/>
      <point x="208" y="472"/>
      <point x="316" y="472" type="curve" smooth="yes"/>
      <point x="391" y="472"/>
      <point x="426" y="429"/>
      <point x="426" y="345" type="curve" smooth="yes"/>
      <point x="426" y="0" type="line"/>
      <point x="513" y="0" type="line"/>
      <point x="513" y="296" type="line" smooth="yes"/>
      <point x="513" y="410"/>
      <point x="554" y="472"/>
      <point x="658" y="472" type="curve" smooth="yes"/>
      <point x="732" y="472"/>
      <point x="767" y="429"/>
      <point x="767" y="345" type="curve" smooth="yes"/>
      <point x="767" y="0" type="line"/>
      <point x="854" y="0" type="line"/>
      <point x="854" y="349" type="line" smooth="yes"/>
      <point x="854" y="487"/>
      <point x="794" y="546"/>
    </contour>
  </outline>
</glyph>
<glyph name="p" format="2">
  <advance width="615"/>
  <unicode hex="0070"/>
  <anchor x="129" y="-240" name="bottom"/>
  <anchor x="332" y="536" name="top"/>
  <anchor x="585" y="536" name="topright"/>
  <outline>
    <contour>
      <point x="340" y="546" type="curve" smooth="yes"/>
      <point x="253" y="546"/>
      <point x="205" y="509"/>
      <point x="173" y="463" type="curve"/>
      <point x="169" y="463" type="line"/>
      <point x="157" y="536" type="line"/>
      <point x="85" y="536" type="line"/>
      <point x="85" y="-240" type="line"/>
      <point x="173" y="-240" type="line"/>
      <point x="173" y="-20" type="line" smooth="yes"/>
      <point x="173" y="5"/>
      <point x="169" y="45"/>
      <point x="167" y="68" type="curve"/>
      <point x="173" y="68" type="line"/>
      <point x="204" y="26"/>
      <point x="256" y="-10"/>
      <point x="339" y="-10" type="curve" smooth="yes"/>
      <point x="472" y="-10"/>
      <point x="560" y="86"/>
      <point x="560" y="269" type="curve" smooth="yes"/>
      <point x="560" y="454"/>
      <point x="472" y="546"/>
    </contour>
    <contour>
      <point x="324" y="472" type="curve" smooth="yes"/>
      <point x="423" y="472"/>
      <point x="469" y="392"/>
      <point x="469" y="270" type="curve" smooth="yes"/>
      <point x="469" y="150"/>
      <point x="423" y="63"/>
      <point x="326" y="63" type="curve" smooth="yes"/>
      <point x="209" y="63"/>
      <point x="173" y="137"/>
      <point x="173" y="269" type="curve" smooth="yes"/>
      <point x="173" y="286" type="line" smooth="yes"/>
      <point x="175" y="411"/>
      <point x="215" y="472"/>
    </contour>
  </outline>
</glyph>
<glyph name="q" format="2">
  <advance width="615"/>
  <unicode hex="0071"/>
  <anchor x="486" y="-240" name="bottom"/>
  <anchor x="308" y="536" name="top"/>
  <anchor x="555" y="536" name="topright"/>
  <outline>
    <contour>
      <point x="442" y="-240" type="line"/>
      <point x="530" y="-240" type="line"/>
      <point x="530" y="536" type="line"/>
      <point x="460" y="536" type="line"/>
      <point x="447" y="463" type="line"/>
      <point x="443" y="463" type="line"/>
      <point x="411" y="509"/>
      <point x="360" y="546"/>
      <point x="276" y="546" type="curve" smooth="yes"/>
      <point x="145" y="546"/>
      <point x="55" y="451"/>
      <point x="55" y="267" type="curve" smooth="yes"/>
      <point x="55" y="83"/>
      <point x="143" y="-10"/>
      <point x="273" y="-10" type="curve" smooth="yes"/>
      <point x="358" y="-10"/>
      <point x="410" y="26"/>
      <point x="441" y="72" type="curve"/>
      <point x="447" y="72" type="line"/>
      <point x="443" y="49"/>
      <point x="442" y="13"/>
      <point x="442" y="-11" type="curve" smooth="yes"/>
    </contour>
    <contour>
      <point x="290" y="63" type="curve" smooth="yes"/>
      <point x="192" y="63"/>
      <point x="146" y="138"/>
      <point x="146" y="265" type="curve" smooth="yes"/>
      <point x="146" y="392"/>
      <point x="192" y="473"/>
      <point x="288" y="473" type="curve" smooth="yes"/>
      <point x="404" y="473"/>
      <point x="443" y="402"/>
      <point x="443" y="266" type="curve" smooth="yes"/>
      <point x="443" y="248" type="line" smooth="yes"/>
      <point x="441" y="123"/>
      <point x="400" y="63"/>
    </contour>
  </outline>
</glyph>
<glyph name="r" format="2">
  <advance width="413"/>
  <unicode hex="0072"/>
  <anchor x="126" y="0" name="bottom"/>
  <anchor x="240" y="536" name="top"/>
  <anchor x="393" y="536" name="topright"/>
  <outline>
    <contour>
      <point x="335" y="546" type="curve" smooth="yes"/>
      <point x="260" y="546"/>
      <point x="205" y="497"/>
      <point x="171" y="438" type="curve"/>
      <point x="167" y="438" type="line"/>
      <point x="157" y="536" type="line"/>
      <point x="85" y="536" type="line"/>
      <point x="85" y="0" type="line"/>
      <point x="173" y="0" type="line"/>
      <point x="173" y="286" type="line" smooth="yes"/>
      <point x="173" y="394"/>
      <point x="246" y="466"/>
      <point x="329" y="466" type="curve" smooth="yes"/>
      <point x="347" y="466"/>
      <point x="370" y="463"/>
      <point x="387" y="459" type="curve"/>
      <point x="398" y="540" type="line"/>
      <point x="380" y="544"/>
      <point x="355" y="546"/>
    </contour>
  </outline>
</glyph>
<glyph name="u" format="2">
  <advance width="618"/>
  <unicode hex="0075"/>
  <anchor x="294" y="0" name="bottom"/>
  <anchor x="309" y="536" name="top"/>
  <anchor x="562" y="536" name="topright"/>
  <outline>
    <contour>
      <point x="533" y="536" type="line"/>
      <point x="445" y="536" type="line"/>
      <point x="445" y="257" type="line" smooth="yes"/>
      <point x="445" y="132"/>
      <point x="406" y="63"/>
      <point x="287" y="63" type="curve" smooth="yes"/>
      <point x="206" y="63"/>
      <point x="168" y="105"/>
      <point x="168" y="191" type="curve" smooth="yes"/>
      <point x="168" y="536" type="line"/>
      <point x="79" y="536" type="line"/>
      <point x="79" y="185" type="line" smooth="yes"/>
      <point x="79" y="49"/>
      <point x="145" y="-10"/>
      <point x="274" y="-10" type="curve" smooth="yes"/>
      <point x="343" y="-10"/>
      <point x="409" y="15"/>
      <point x="444" y="71" type="curve"/>
      <point x="448" y="71" type="line"/>
      <point x="461" y="0" type="line"/>
      <point x="533" y="0" type="line"/>
    </contour>
  </outline>
</glyph>
<glyph name="w" format="2">
  <advance width="786"/>
  <unicode hex="0077"/>
  <anchor x="391" y="0" name="bottom"/>
  <anchor x="393" y="536" name="top"/>
  <anchor x="766" y="536" name="topright"/>
  <outline>
    <contour>
      <point x="523" y="1" type="line"/>
      <point x="626" y="1" type="line"/>
      <point x="775" y="537" type="line"/>
      <point x="685" y="537" type="line"/>
      <point x="610" y="251" type="line" smooth="yes"/>
      <point x="594" y="190"/>
      <point x="578" y="125"/>
      <point x="574" y="92" type="curve"/>
      <point x="570" y="92" type="line"/>
      <point x="565" y="130"/>
      <point x="548" y="189"/>
      <point x="534" y="235" type="curve" smooth="yes"/>
      <point x="442" y="537" type="line"/>
      <point x="346" y="537" type="line"/>
      <point x="251" y="235" type="line" smooth="yes"/>
      <point x="237" y="191"/>
      <point x="222" y="124"/>
      <point x="215" y="91" type="curve"/>
      <point x="211" y="91" type="line"/>
      <point x="206" y="129"/>
      <point x="191" y="193"/>
      <point x="176" y="251" type="curve" smooth="yes"/>
      <point x="102" y="537" type="line"/>
      <point x="11" y="537" type="line"/>
      <point x="158" y="1" type="line"/>
      <point x="258" y="1" type="line"/>
      <point x="354" y="302" type="line" smooth="yes"/>
      <point x="372" y="358"/>
      <point x="385" y="415"/>
      <point x="390" y="445" type="curve"/>
      <point x="394" y="445" type="line"/>
      <point x="400" y="415"/>
      <point x="414" y="358"/>
      <point x="431" y="303" type="curve" smooth="yes"/>
    </contour>
  </outline>
</glyph>
<glyph name="x" format="2">
  <advance width="529"/>
  <unicode hex="0078"/>
  <anchor x="265" y="0" name="bottom"/>
  <anchor x="263" y="536" name="top"/>
  <anchor x="509" y="536" name="topright"/>
  <outline>
    <contour>
      <point x="212" y="274" type="line"/>
      <point x="18" y="0" type="line"/>
      <point x="117" y="0" type="line"/>
      <point x="265" y="214" type="line"/>
      <point x="411" y="0" type="line"/>
      <point x="511" y="0" type="line"/>
      <point x="316" y="274" type="line"/>
      <point x="501" y="536" type="line"/>
      <point x="402" y="536" type="line"/>
      <point x="265" y="334" type="line"/>
      <point x="127" y="536" type="line"/>
      <point x="27" y="536" type="line"/>
    </contour>
  </outline>
</glyph>
<glyph name="y" format="2">
  <advance width="510"/>
  <unicode hex="0079"/>
  <anchor x="94" y="-240" name="bottom"/>
  <anchor x="255" y="536" name="top"/>
  <anchor x="490" y="536" name="topright"/>
  <outline>
    <contour>
      <point x="1" y="536" type="line"/>
      <point x="217" y="-2" type="line"/>
      <point x="189" y="-73" type="line" smooth="yes"/>
      <point x="167" y="-131"/>
      <point x="131" y="-168"/>
      <point x="70" y="-168" type="curve" smooth="yes"/>
      <point x="47" y="-168"/>
      <point x="25" y="-165"/>
      <point x="11" y="-162" type="curve"/>
      <point x="11" y="-232" type="line"/>
      <point x="28" y="-236"/>
      <point x="52" y="-240"/>
      <point x="84" y="-240" type="curve" smooth="yes"/>
      <point x="188" y="-240"/>
      <point x="241" y="-175"/>
      <point x="279" y="-74" type="curve" smooth="yes"/>
      <point x="510" y="536" type="line"/>
      <point x="415" y="536" type="line"/>
      <point x="306" y="232" type="line" smooth="yes"/>
      <point x="287" y="177"/>
      <point x="268" y="118"/>
      <point x="260" y="85" type="curve"/>
      <point x="256" y="85" type="line"/>
      <point x="248" y="129"/>
      <point x="231" y="177"/>
      <point x="211" y="231" type="curve" smooth="yes"/>
      <point x="95" y="536" type="line"/>
    </contour>
  </outline>
</glyph>
<glyph name="z" format="2">
  <advance width="470"/>
  <unicode hex="007A"/>
  <anchor x="242" y="0" name="bottom"/>
  <anchor x="235" y="536" name="top"/>
  <anchor x="430" y="536" name="topright"/>
  <outline>
    <contour>
      <point x="431" y="0" type="line"/>
      <point x="431" y="68" type="line"/>
      <point x="140" y="68" type="line"/>
      <point x="424" y="470" type="line"/>
      <point x="424" y="536" type="line"/>
      <point x="56" y="536" type="line"/>
      <point x="56" y="468" type="line"/>
      <point x="327" y="468" type="line"/>
      <point x="39" y="58" type="line"/>
      <point x="39" y="0" type="line"/>
    </contour>
  </outline>
</glyph>
<glyph name="bar" format="2">
  <advance width="517"/>
  <unicode hex="007C"/>
  <outline>
    <contour>
      <point x="222" y="760" type="line"/>
      <point x="222" y="-241" type="line"/>
      <point x="295" y="-241" type="line"/>
      <point x="295" y="760" type="line"/>
    </contour>
  </outline>
</glyph>
<glyph name="guillemotleft" format="2">
  <advance width="510"/>
  <unicode hex="00AB"/>
  <outline>
    <contour>
      <point x="40" y="270" type="line"/>
      <point x="40" y="257" type="line"/>
      <point x="208" y="56" type="line"/>
      <point x="271" y="93" type="line"/>
      <point x="131" y="264" type="line"/>
      <point x="271" y="435" type="line"/>
      <point x="208" y="471" type="line"/>
    </contour>
    <contour>
      <point x="238" y="270" type="line"/>
      <point x="238" y="257" type="line"/>
      <point x="408" y="56" type="line"/>
      <point x="470" y="93" type="line"/>
      <point x="330" y="264" type="line"/>
      <point x="470" y="435" type="line"/>
      <point x="408" y="471" type="line"/>
    </contour>
  </outline>
</glyph>
<glyph name="guillemotright" format="2">
  <advance width="510"/>
  <unicode hex="00BB"/>
  <outline>
    <contour>
      <point x="470" y="257" type="line"/>
      <point x="470" y="270" type="line"/>
      <point x="300" y="471" type="line"/>
      <point x="238" y="435" type="line"/>
      <point x="378" y="264" type="line"/>
      <point x="238" y="93" type="line"/>
      <point x="300" y="56" type="line"/>
    </contour>
    <contour>
      <point x="271" y="257" type="line"/>
      <point x="271" y="270" type="line"/>
      <point x="102" y="471" type="line"/>
      <point x="40" y="435" type="line"/>
      <point x="180" y="264" type="line"/>
      <point x="40" y="93" type="line"/>
      <point x="102" y="56" type="line"/>
    </contour>
  </outline>
</glyph>
<glyph name="question-ar" format="2">
  <advance width="538"/>
  <unicode hex="061F"/>
  <outline>
    <contour>
      <point x="349" y="201" type="line"/>
      <point x="349" y="228" type="line" smooth="yes"/>
      <point x="349" y="303"/>
      <point x="330" y="343"/>
      <point x="265" y="398" type="curve" smooth="yes"/>
      <point x="188" y="463"/>
      <point x="161" y="487"/>
      <point x="161" y="547" type="curve" smooth="yes"/>
      <point x="161" y="611"/>
      <point x="204" y="647"/>
      <point x="282" y="647" type="curve" smooth="yes"/>
      <point x="350" y="647"/>
      <point x="401" y="623"/>
      <point x="440" y="603" type="curve"/>
      <point x="473" y="675" type="line"/>
      <point x="427" y="702"/>
      <point x="370" y="724"/>
      <point x="282" y="724" type="curve" smooth="yes"/>
      <point x="149" y="724"/>
      <point x="77" y="657"/>
      <point x="77" y="549" type="curve" smooth="yes"/>
      <point x="77" y="459"/>
      <point x="117" y="418"/>
      <point x="189" y="358" type="curve" smooth="yes"/>
      <point x="257" y="302"/>
      <point x="269" y="275"/>
      <point x="269" y="218" type="curve" smooth="yes"/>
      <point x="269" y="201" type="line"/>
    </contour>
    <contour>
      <point x="368" y="54" type="curve" smooth="yes"/>
      <point x="368" y="103"/>
      <point x="342" y="121"/>
      <point x="306" y="121" type="curve" smooth="yes"/>
      <point x="273" y="121"/>
      <point x="245" y="103"/>
      <point x="245" y="54" type="curve" smooth="yes"/>
      <point x="245" y="6"/>
      <point x="273" y="-14"/>
      <point x="306" y="-14" type="curve" smooth="yes"/>
      <point x="342" y="-14"/>
      <point x="368" y="6"/>
    </contour>
  </outline>
</glyph>
<glyph name="kashida-ar" format="2">
  <advance width="245"/>
  <unicode hex="0640"/>
  <outline>
    <contour>
      <point x="245" y="0" type="line"/>
      <point x="245" y="75" type="line"/>
      <point x="-40" y="75" type="line"/>
      <point x="-40" y="0" type="line"/>
    </contour>
  </outline>
</glyph>
<glyph name="quoteleft" format="2">
  <advance width="175"/>
  <unicode hex="2018"/>
  <outline>
    <contour>
      <point x="18" y="469" type="line"/>
      <point x="113" y="469" type="line"/>
      <point x="123" y="538"/>
      <point x="144" y="638"/>
      <point x="163" y="714" type="curve"/>
      <point x="98" y="714" type="line"/>
      <point x="66" y="643"/>
      <point x="30" y="550"/>
      <point x="12" y="480" type="curve"/>
    </contour>
  </outline>
</glyph>
<glyph name="quoteright" format="2">
  <advance width="175"/>
  <unicode hex="2019"/>
  <outline>
    <contour>
      <point x="156" y="714" type="line"/>
      <point x="62" y="714" type="line"/>
      <point x="52" y="644"/>
      <point x="31" y="544"/>
      <point x="12" y="469" type="curve"/>
      <point x="77" y="469" type="line"/>
      <point x="109" y="540"/>
      <point x="145" y="633"/>
      <point x="163" y="703" type="curve"/>
    </contour>
  </outline>
</glyph>
<glyph name="quotesinglbase" format="2">
  <advance width="243"/>
  <unicode hex="201A"/>
  <outline>
    <contour>
      <point x="175" y="116" type="line"/>
      <point x="81" y="116" type="line"/>
      <point x="71" y="46"/>
      <point x="50" y="-54"/>
      <point x="31" y="-129" type="curve"/>
      <point x="96" y="-129" type="line"/>
      <point x="128" y="-58"/>
      <point x="164" y="35"/>
      <point x="182" y="105" type="curve"/>
    </contour>
  </outline>
</glyph>
<glyph name="quotereversed" format="2">
  <advance width="176"/>
  <unicode hex="201B"/>
  <outline>
    <contour>
      <point x="114" y="714" type="curve"/>
      <point x="19" y="714" type="line"/>
      <point x="12" y="703" type="line"/>
      <point x="30" y="633"/>
      <point x="66" y="540"/>
      <point x="99" y="469" type="curve"/>
      <point x="164" y="469" type="line"/>
      <point x="145" y="544"/>
      <point x="124" y="644"/>
    </contour>
  </outline>
</glyph>
<glyph name="quotedblright" format="2">
  <advance width="359"/>
  <unicode hex="201D"/>
  <outline>
    <contour>
      <point x="340" y="714" type="line"/>
      <point x="246" y="714" type="line"/>
      <point x="236" y="644"/>
      <point x="214" y="544"/>
      <point x="195" y="469" type="curve"/>
      <point x="261" y="469" type="line"/>
      <point x="293" y="540"/>
      <point x="329" y="632"/>
      <point x="347" y="703" type="curve"/>
    </contour>
    <contour>
      <point x="155" y="714" type="line"/>
      <point x="61" y="714" type="line"/>
      <point x="51" y="644"/>
      <point x="31" y="544"/>
      <point x="12" y="469" type="curve"/>
      <point x="76" y="469" type="line"/>
      <point x="108" y="540"/>
      <point x="144" y="632"/>
      <point x="162" y="703" type="curve"/>
    </contour>
  </outline>
</glyph>
<glyph name="quotedblbase" format="2">
  <advance width="427"/>
  <unicode hex="201E"/>
  <outline>
    <contour>
      <point x="359" y="116" type="line"/>
      <point x="265" y="116" type="line"/>
      <point x="255" y="46"/>
      <point x="233" y="-54"/>
      <point x="214" y="-129" type="curve"/>
      <point x="280" y="-129" type="line"/>
      <point x="312" y="-58"/>
      <point x="348" y="34"/>
      <point x="366" y="105" type="curve"/>
    </contour>
    <contour>
      <point x="174" y="116" type="line"/>
      <point x="80" y="116" type="line"/>
      <point x="70" y="46"/>
      <point x="50" y="-54"/>
      <point x="31" y="-129" type="curve"/>
      <point x="95" y="-129" type="line"/>
      <point x="127" y="-58"/>
      <point x="163" y="34"/>
      <point x="181" y="105" type="curve"/>
    </contour>
  </outline>
</glyph>
<glyph name="dagger" format="2">
  <advance width="513"/>
  <unicode hex="2020"/>
  <note>
dagger
</note>
  <outline>
    <contour>
      <point x="448" y="484" type="line"/>
      <point x="448" y="571" type="line"/>
      <point x="277" y="556" type="line"/>
      <point x="302" y="760" type="line"/>
      <point x="202" y="760" type="line"/>
      <point x="226" y="556" type="line"/>
      <point x="65" y="571" type="line"/>
      <point x="65" y="484" type="line"/>
      <point x="226" y="499" type="line"/>
      <point x="202" y="0" type="line"/>
      <point x="302" y="0" type="line"/>
      <point x="277" y="499" type="line"/>
    </contour>
  </outline>
</glyph>
<glyph name="daggerdbl" format="2">
  <advance width="502"/>
  <unicode hex="2021"/>
  <outline>
    <contour>
      <point x="276" y="241" type="line"/>
      <point x="297" y="384" type="line"/>
      <point x="276" y="519" type="line"/>
      <point x="447" y="504" type="line"/>
      <point x="447" y="589" type="line"/>
      <point x="276" y="574" type="line"/>
      <point x="300" y="760" type="line"/>
      <point x="199" y="760" type="line"/>
      <point x="223" y="574" type="line"/>
      <point x="55" y="589" type="line"/>
      <point x="55" y="504" type="line"/>
      <point x="223" y="519" type="line"/>
      <point x="202" y="384" type="line"/>
      <point x="223" y="241" type="line"/>
      <point x="55" y="256" type="line"/>
      <point x="55" y="171" type="line"/>
      <point x="223" y="185" type="line"/>
      <point x="199" y="0" type="line"/>
      <point x="300" y="0" type="line"/>
      <point x="276" y="185" type="line"/>
      <point x="447" y="171" type="line"/>
      <point x="447" y="256" type="line"/>
    </contour>
  </outline>
</glyph>
<glyph name="bullet" format="2">
  <advance width="318"/>
  <unicode hex="2022"/>
  <outline>
    <contour>
      <point x="48" y="365" type="curve" smooth="yes"/>
      <point x="48" y="277"/>
      <point x="96" y="241"/>
      <point x="159" y="241" type="curve" smooth="yes"/>
      <point x="221" y="241"/>
      <point x="270" y="277"/>
      <point x="270" y="365" type="curve" smooth="yes"/>
      <point x="270" y="455"/>
      <point x="221" y="489"/>
      <point x="159" y="489" type="curve" smooth="yes"/>
      <point x="96" y="489"/>
      <point x="48" y="455"/>
    </contour>
  </outline>
</glyph>
<glyph name="ellipsis" format="2">
  <advance width="761"/>
  <unicode hex="2026"/>
  <outline>
    <contour>
      <point x="72" y="54" type="curve" smooth="yes"/>
      <point x="72" y="6"/>
      <point x="99" y="-14"/>
      <point x="133" y="-14" type="curve" smooth="yes"/>
      <point x="167" y="-14"/>
      <point x="196" y="6"/>
      <point x="196" y="54" type="curve" smooth="yes"/>
      <point x="196" y="103"/>
      <point x="167" y="121"/>
      <point x="133" y="121" type="curve" smooth="yes"/>
      <point x="99" y="121"/>
      <point x="72" y="103"/>
    </contour>
    <contour>
      <point x="334" y="54" type="curve" smooth="yes"/>
      <point x="334" y="6"/>
      <point x="361" y="-14"/>
      <point x="395" y="-14" type="curve" smooth="yes"/>
      <point x="429" y="-14"/>
      <point x="458" y="6"/>
      <point x="458" y="54" type="curve" smooth="yes"/>
      <point x="458" y="103"/>
      <point x="429" y="121"/>
      <point x="395" y="121" type="curve" smooth="yes"/>
      <point x="361" y="121"/>
      <point x="334" y="103"/>
    </contour>
    <contour>
      <point x="595" y="54" type="curve" smooth="yes"/>
      <point x="595" y="6"/>
      <point x="622" y="-14"/>
      <point x="656" y="-14" type="curve" smooth="yes"/>
      <point x="690" y="-14"/>
      <point x="719" y="6"/>
      <point x="719" y="54" type="curve" smooth="yes"/>
      <point x="719" y="103"/>
      <point x="690" y="121"/>
      <point x="656" y="121" type="curve" smooth="yes"/>
      <point x="622" y="121"/>
      <point x="595" y="103"/>
    </contour>
  </outline>
</glyph>
<glyph name="perthousand" format="2">
  <advance width="1141"/>
  <unicode hex="2030"/>
  <outline>
    <contour>
      <point x="177" y="724" type="curve" smooth="yes"/>
      <point x="76" y="724"/>
      <point x="31" y="642"/>
      <point x="31" y="501" type="curve" smooth="yes"/>
      <point x="31" y="360"/>
      <point x="82" y="276"/>
      <point x="177" y="276" type="curve" smooth="yes"/>
      <point x="280" y="276"/>
      <point x="327" y="360"/>
      <point x="327" y="501" type="curve" smooth="yes"/>
      <point x="327" y="642"/>
      <point x="275" y="724"/>
    </contour>
    <contour>
      <point x="177" y="662" type="curve" smooth="yes"/>
      <point x="229" y="662"/>
      <point x="254" y="608"/>
      <point x="254" y="501" type="curve" smooth="yes"/>
      <point x="254" y="393"/>
      <point x="229" y="339"/>
      <point x="177" y="339" type="curve" smooth="yes"/>
      <point x="126" y="339"/>
      <point x="104" y="394"/>
      <point x="104" y="501" type="curve" smooth="yes"/>
      <point x="104" y="608"/>
      <point x="126" y="662"/>
    </contour>
    <contour>
      <point x="635" y="714" type="line"/>
      <point x="558" y="714" type="line"/>
      <point x="162" y="0" type="line"/>
      <point x="239" y="0" type="line"/>
    </contour>
    <contour>
      <point x="615" y="438" type="curve" smooth="yes"/>
      <point x="514" y="438"/>
      <point x="469" y="356"/>
      <point x="469" y="215" type="curve" smooth="yes"/>
      <point x="469" y="74"/>
      <point x="520" y="-10"/>
      <point x="615" y="-10" type="curve" smooth="yes"/>
      <point x="718" y="-10"/>
      <point x="765" y="74"/>
      <point x="765" y="215" type="curve" smooth="yes"/>
      <point x="765" y="356"/>
      <point x="712" y="438"/>
    </contour>
    <contour>
      <point x="615" y="375" type="curve" smooth="yes"/>
      <point x="667" y="375"/>
      <point x="692" y="322"/>
      <point x="692" y="215" type="curve" smooth="yes"/>
      <point x="692" y="106"/>
      <point x="667" y="53"/>
      <point x="615" y="53" type="curve" smooth="yes"/>
      <point x="564" y="53"/>
      <point x="542" y="107"/>
      <point x="542" y="215" type="curve" smooth="yes"/>
      <point x="542" y="322"/>
      <point x="564" y="375"/>
    </contour>
    <contour>
      <point x="961" y="438" type="curve" smooth="yes"/>
      <point x="860" y="438"/>
      <point x="815" y="356"/>
      <point x="815" y="215" type="curve" smooth="yes"/>
      <point x="815" y="74"/>
      <point x="866" y="-10"/>
      <point x="961" y="-10" type="curve" smooth="yes"/>
      <point x="1064" y="-10"/>
      <point x="1111" y="74"/>
      <point x="1111" y="215" type="curve" smooth="yes"/>
      <point x="1111" y="356"/>
      <point x="1058" y="438"/>
    </contour>
    <contour>
      <point x="961" y="375" type="curve" smooth="yes"/>
      <point x="1013" y="375"/>
      <point x="1038" y="322"/>
      <point x="1038" y="215" type="curve" smooth="yes"/>
      <point x="1038" y="106"/>
      <point x="1013" y="53"/>
      <point x="961" y="53" type="curve" smooth="yes"/>
      <point x="910" y="53"/>
      <point x="888" y="107"/>
      <point x="888" y="215" type="curve" smooth="yes"/>
      <point x="888" y="322"/>
      <point x="910" y="375"/>
    </contour>
  </outline>
</glyph>
<glyph name="guilsinglleft" format="2">
  <advance width="311"/>
  <unicode hex="2039"/>
  <outline>
    <contour>
      <point x="40" y="270" type="line"/>
      <point x="40" y="257" type="line"/>
      <point x="208" y="56" type="line"/>
      <point x="271" y="93" type="line"/>
      <point x="131" y="264" type="line"/>
      <point x="271" y="435" type="line"/>
      <point x="208" y="471" type="line"/>
    </contour>
  </outline>
</glyph>
<glyph name="guilsinglright" format="2">
  <advance width="311"/>
  <unicode hex="203A"/>
  <outline>
    <contour>
      <point x="102" y="471" type="line"/>
      <point x="40" y="435" type="line"/>
      <point x="180" y="264" type="line"/>
      <point x="40" y="93" type="line"/>
      <point x="102" y="56" type="line"/>
      <point x="271" y="257" type="line"/>
      <point x="271" y="270" type="line"/>
    </contour>
  </outline>
</glyph>
<glyph name="fraction" format="2">
  <advance width="128"/>
  <unicode hex="2044"/>
  <outline>
    <contour>
      <point x="319" y="714" type="line"/>
      <point x="244" y="714" type="line"/>
      <point x="-192" y="0" type="line"/>
      <point x="-117" y="0" type="line"/>
    </contour>
  </outline>
</glyph>
<glyph name="reversedsemicolon" format="2">
  <advance width="268"/>
  <unicode hex="204F"/>
  <outline>
    <contour>
      <point x="189" y="483" type="curve" smooth="yes"/>
      <point x="189" y="532"/>
      <point x="160" y="550"/>
      <point x="126" y="550" type="curve" smooth="yes"/>
      <point x="92" y="550"/>
      <point x="65" y="532"/>
      <point x="65" y="483" type="curve" smooth="yes"/>
      <point x="65" y="435"/>
      <point x="92" y="415"/>
      <point x="126" y="415" type="curve" smooth="yes"/>
      <point x="160" y="415"/>
      <point x="189" y="435"/>
    </contour>
    <contour>
      <point x="83" y="116" type="line"/>
      <point x="76" y="105" type="line"/>
      <point x="84" y="28"/>
      <point x="114" y="-57"/>
      <point x="175" y="-152" type="curve"/>
      <point x="227" y="-129" type="line"/>
      <point x="192" y="-53"/>
      <point x="177" y="39"/>
      <point x="177" y="116" type="curve"/>
    </contour>
  </outline>
</glyph>
<glyph name="dottedCircle" format="2">
  <advance width="594"/>
  <unicode hex="25CC"/>
  <note>
uni25CC
</note>
  <outline>
    <contour>
      <point x="455" y="423" type="curve" smooth="yes"/>
      <point x="469.667" y="423"/>
      <point x="481" y="434.333"/>
      <point x="481" y="449" type="curve" smooth="yes"/>
      <point x="481" y="463.667"/>
      <point x="469.667" y="475"/>
      <point x="455" y="475" type="curve" smooth="yes"/>
      <point x="440.333" y="475"/>
      <point x="429" y="463.667"/>
      <point x="429" y="449" type="curve" smooth="yes"/>
      <point x="429" y="434.333"/>
      <point x="440.333" y="423"/>
    </contour>
    <contour>
      <point x="139" y="107" type="curve" smooth="yes"/>
      <point x="153.667" y="107"/>
      <point x="165" y="118.333"/>
      <point x="165" y="133" type="curve" smooth="yes"/>
      <point x="165" y="147.667"/>
      <point x="153.667" y="159"/>
      <point x="139" y="159" type="curve" smooth="yes"/>
      <point x="124.333" y="159"/>
      <point x="113" y="147.667"/>
      <point x="113" y="133" type="curve" smooth="yes"/>
      <point x="113" y="118.333"/>
      <point x="124.333" y="107"/>
    </contour>
    <contour>
      <point x="92" y="181" type="curve" smooth="yes"/>
      <point x="105.333" y="181"/>
      <point x="118" y="192.333"/>
      <point x="118" y="207" type="curve" smooth="yes"/>
      <point x="118" y="221.667"/>
      <point x="105.333" y="233"/>
      <point x="92" y="233" type="curve" smooth="yes"/>
      <point x="78.667" y="233"/>
      <point x="66" y="221.667"/>
      <point x="66" y="207" type="curve" smooth="yes"/>
      <point x="66" y="192.333"/>
      <point x="78.667" y="181"/>
    </contour>
    <contour>
      <point x="213" y="60" type="curve" smooth="yes"/>
      <point x="227.667" y="60"/>
      <point x="239" y="72.667"/>
      <point x="239" y="86" type="curve" smooth="yes"/>
      <point x="239" y="99.333"/>
      <point x="227.667" y="112"/>
      <point x="213" y="112" type="curve" smooth="yes"/>
      <point x="198.333" y="112"/>
      <point x="187" y="99.333"/>
      <point x="187" y="86" type="curve" smooth="yes"/>
      <point x="187" y="72.667"/>
      <point x="198.333" y="60"/>
    </contour>
    <contour>
      <point x="74" y="265" type="curve" smooth="yes"/>
      <point x="87.333" y="265"/>
      <point x="100" y="276.333"/>
      <point x="100" y="291" type="curve" smooth="yes"/>
      <point x="100" y="305.667"/>
      <point x="87.333" y="317"/>
      <point x="74" y="317" type="curve" smooth="yes"/>
      <point x="60.667" y="317"/>
      <point x="48" y="305.667"/>
      <point x="48" y="291" type="curve" smooth="yes"/>
      <point x="48" y="276.333"/>
      <point x="60.667" y="265"/>
    </contour>
    <contour>
      <point x="297" y="42" type="curve" smooth="yes"/>
      <point x="311.667" y="42"/>
      <point x="323" y="54.667"/>
      <point x="323" y="68" type="curve" smooth="yes"/>
      <point x="323" y="81.333"/>
      <point x="311.667" y="94"/>
      <point x="297" y="94" type="curve" smooth="yes"/>
      <point x="282.333" y="94"/>
      <point x="271" y="81.333"/>
      <point x="271" y="68" type="curve" smooth="yes"/>
      <point x="271" y="54.667"/>
      <point x="282.333" y="42"/>
    </contour>
    <contour>
      <point x="92" y="349" type="curve" smooth="yes"/>
      <point x="105.333" y="349"/>
      <point x="118" y="360.333"/>
      <point x="118" y="375" type="curve" smooth="yes"/>
      <point x="118" y="389.667"/>
      <point x="105.333" y="401"/>
      <point x="92" y="401" type="curve" smooth="yes"/>
      <point x="78.667" y="401"/>
      <point x="66" y="389.667"/>
      <point x="66" y="375" type="curve" smooth="yes"/>
      <point x="66" y="360.333"/>
      <point x="78.667" y="349"/>
    </contour>
    <contour>
      <point x="381" y="60" type="curve" smooth="yes"/>
      <point x="395.667" y="60"/>
      <point x="407" y="72.667"/>
      <point x="407" y="86" type="curve" smooth="yes"/>
      <point x="407" y="99.333"/>
      <point x="395.667" y="112"/>
      <point x="381" y="112" type="curve" smooth="yes"/>
      <point x="366.333" y="112"/>
      <point x="355" y="99.333"/>
      <point x="355" y="86" type="curve" smooth="yes"/>
      <point x="355" y="72.667"/>
      <point x="366.333" y="60"/>
    </contour>
    <contour>
      <point x="139" y="423" type="curve" smooth="yes"/>
      <point x="153.667" y="423"/>
      <point x="165" y="434.333"/>
      <point x="165" y="449" type="curve" smooth="yes"/>
      <point x="165" y="463.667"/>
      <point x="153.667" y="475"/>
      <point x="139" y="475" type="curve" smooth="yes"/>
      <point x="124.333" y="475"/>
      <point x="113" y="463.667"/>
      <point x="113" y="449" type="curve" smooth="yes"/>
      <point x="113" y="434.333"/>
      <point x="124.333" y="423"/>
    </contour>
    <contour>
      <point x="455" y="107" type="curve" smooth="yes"/>
      <point x="469.667" y="107"/>
      <point x="481" y="118.333"/>
      <point x="481" y="133" type="curve" smooth="yes"/>
      <point x="481" y="147.667"/>
      <point x="469.667" y="159"/>
      <point x="455" y="159" type="curve" smooth="yes"/>
      <point x="440.333" y="159"/>
      <point x="429" y="147.667"/>
      <point x="429" y="133" type="curve" smooth="yes"/>
      <point x="429" y="118.333"/>
      <point x="440.333" y="107"/>
    </contour>
    <contour>
      <point x="213" y="470" type="curve" smooth="yes"/>
      <point x="227.667" y="470"/>
      <point x="239" y="482.667"/>
      <point x="239" y="496" type="curve" smooth="yes"/>
      <point x="239" y="509.333"/>
      <point x="227.667" y="522"/>
      <point x="213" y="522" type="curve" smooth="yes"/>
      <point x="198.333" y="522"/>
      <point x="187" y="509.333"/>
      <point x="187" y="496" type="curve" smooth="yes"/>
      <point x="187" y="482.667"/>
      <point x="198.333" y="470"/>
    </contour>
    <contour>
      <point x="502" y="181" type="curve" smooth="yes"/>
      <point x="515.333" y="181"/>
      <point x="528" y="192.333"/>
      <point x="528" y="207" type="curve" smooth="yes"/>
      <point x="528" y="221.667"/>
      <point x="515.333" y="233"/>
      <point x="502" y="233" type="curve" smooth="yes"/>
      <point x="488.667" y="233"/>
      <point x="476" y="221.667"/>
      <point x="476" y="207" type="curve" smooth="yes"/>
      <point x="476" y="192.333"/>
      <point x="488.667" y="181"/>
    </contour>
    <contour>
      <point x="297" y="488" type="curve" smooth="yes"/>
      <point x="311.667" y="488"/>
      <point x="323" y="500.667"/>
      <point x="323" y="514" type="curve" smooth="yes"/>
      <point x="323" y="527.333"/>
      <point x="311.667" y="540"/>
      <point x="297" y="540" type="curve" smooth="yes"/>
      <point x="282.333" y="540"/>
      <point x="271" y="527.333"/>
      <point x="271" y="514" type="curve" smooth="yes"/>
      <point x="271" y="500.667"/>
      <point x="282.333" y="488"/>
    </contour>
    <contour>
      <point x="520" y="265" type="curve" smooth="yes"/>
      <point x="533.333" y="265"/>
      <point x="546" y="276.333"/>
      <point x="546" y="291" type="curve" smooth="yes"/>
      <point x="546" y="305.667"/>
      <point x="533.333" y="317"/>
      <point x="520" y="317" type="curve" smooth="yes"/>
      <point x="506.667" y="317"/>
      <point x="494" y="305.667"/>
      <point x="494" y="291" type="curve" smooth="yes"/>
      <point x="494" y="276.333"/>
      <point x="506.667" y="265"/>
    </contour>
    <contour>
      <point x="381" y="470" type="curve" smooth="yes"/>
      <point x="395.667" y="470"/>
      <point x="407" y="482.667"/>
      <point x="407" y="496" type="curve" smooth="yes"/>
      <point x="407" y="509.333"/>
      <point x="395.667" y="522"/>
      <point x="381" y="522" type="curve" smooth="yes"/>
      <point x="366.333" y="522"/>
      <point x="355" y="509.333"/>
      <point x="355" y="496" type="curve" smooth="yes"/>
      <point x="355" y="482.667"/>
      <point x="366.333" y="470"/>
    </contour>
    <contour>
      <point x="502" y="349" type="curve" smooth="yes"/>
      <point x="515.333" y="349"/>
      <point x="528" y="360.333"/>
      <point x="528" y="375" type="curve" smooth="yes"/>
      <point x="528" y="389.667"/>
      <point x="515.333" y="401"/>
      <point x="502" y="401" type="curve" smooth="yes"/>
      <point x="488.667" y="401"/>
      <point x="476" y="389.667"/>
      <point x="476" y="375" type="curve" smooth="yes"/>
      <point x="476" y="360.333"/>
      <point x="488.667" y="349"/>
    </contour>
  </outline>
</glyph>
<glyph name="leftDoubleParen" format="2">
  <advance width="532"/>
  <unicode hex="2E28"/>
  <outline>
    <contour>
      <point x="256" y="272" type="curve" smooth="yes"/>
      <point x="256" y="99"/>
      <point x="308" y="-46"/>
      <point x="411" y="-163" type="curve"/>
      <point x="501" y="-163" type="line"/>
      <point x="397" y="-39"/>
      <point x="345" y="106"/>
      <point x="345" y="273" type="curve" smooth="yes"/>
      <point x="345" y="441"/>
      <point x="397" y="588"/>
      <point x="502" y="714" type="curve"/>
      <point x="411" y="714" type="line"/>
      <point x="308" y="593"/>
      <point x="256" y="445"/>
    </contour>
    <contour>
      <point x="40" y="272" type="curve" smooth="yes"/>
      <point x="40" y="99"/>
      <point x="91" y="-46"/>
      <point x="194" y="-163" type="curve"/>
      <point x="284" y="-163" type="line"/>
      <point x="181" y="-39"/>
      <point x="129" y="106"/>
      <point x="129" y="273" type="curve" smooth="yes"/>
      <point x="129" y="441"/>
      <point x="181" y="588"/>
      <point x="285" y="714" type="curve"/>
      <point x="194" y="714" type="line"/>
      <point x="91" y="593"/>
      <point x="40" y="445"/>
    </contour>
  </outline>
</glyph>
<glyph name="rightDoubleParen" format="2">
  <advance width="531"/>
  <unicode hex="2E29"/>
  <outline>
    <contour>
      <point x="275" y="272" type="curve" smooth="yes"/>
      <point x="275" y="445"/>
      <point x="223" y="592"/>
      <point x="120" y="714" type="curve"/>
      <point x="30" y="714" type="line"/>
      <point x="134" y="588"/>
      <point x="186" y="441"/>
      <point x="186" y="273" type="curve" smooth="yes"/>
      <point x="186" y="106"/>
      <point x="135" y="-39"/>
      <point x="31" y="-163" type="curve"/>
      <point x="120" y="-163" type="line"/>
      <point x="223" y="-45"/>
      <point x="275" y="100"/>
    </contour>
    <contour>
      <point x="491" y="272" type="curve" smooth="yes"/>
      <point x="491" y="445"/>
      <point x="439" y="592"/>
      <point x="335" y="714" type="curve"/>
      <point x="245" y="714" type="line"/>
      <point x="349" y="588"/>
      <point x="402" y="441"/>
      <point x="402" y="273" type="curve" smooth="yes"/>
      <point x="402" y="106"/>
      <point x="350" y="-39"/>
      <point x="246" y="-163" type="curve"/>
      <point x="335" y="-163" type="line"/>
      <point x="439" y="-45"/>
      <point x="491" y="100"/>
    </contour>
  </outline>
</glyph>
<glyph name="commareversed" format="2">
  <advance width="268"/>
  <unicode hex="2E41"/>
  <outline>
    <contour>
      <point x="83" y="116" type="line"/>
      <point x="76" y="105" type="line"/>
      <point x="84" y="28"/>
      <point x="114" y="-57"/>
      <point x="175" y="-152" type="curve"/>
      <point x="227" y="-129" type="line"/>
      <point x="192" y="-53"/>
      <point x="177" y="39"/>
      <point x="177" y="116" type="curve"/>
    </contour>
  </outline>
</glyph>
<glyph name="Alif-adlam" format="2">
  <advance width="685"/>
  <unicode hex="1E900"/>
  <anchor x="345" y="663" name="gemconsonanttop"/>
  <anchor x="331" y="663" name="top"/>
  <anchor x="300" y="745" name="topAlif"/>
  <outline>
    <contour>
      <point x="180" y="577" type="line" smooth="yes"/>
      <point x="180" y="619"/>
      <point x="189" y="635"/>
      <point x="229" y="635" type="curve" smooth="yes"/>
      <point x="520" y="635" type="line"/>
      <point x="523" y="639" type="line"/>
      <point x="477" y="714" type="line"/>
      <point x="202" y="714" type="line" smooth="yes"/>
      <point x="108" y="714"/>
      <point x="90" y="682"/>
      <point x="90" y="596" type="curve" smooth="yes"/>
      <point x="90" y="249" type="line" smooth="yes"/>
      <point x="90" y="56"/>
      <point x="160" y="-10"/>
      <point x="338" y="-10" type="curve" smooth="yes"/>
      <point x="521" y="-10"/>
      <point x="620" y="89"/>
      <point x="620" y="213" type="curve" smooth="yes"/>
      <point x="620" y="311"/>
      <point x="571" y="352"/>
      <point x="546" y="366" type="curve"/>
      <point x="546" y="370" type="line"/>
      <point x="564" y="373"/>
      <point x="603" y="385"/>
      <point x="620" y="398" type="curve"/>
      <point x="593" y="471" type="line"/>
      <point x="571" y="458"/>
      <point x="499" y="433"/>
      <point x="414" y="433" type="curve" smooth="yes"/>
      <point x="351" y="433"/>
      <point x="302" y="442"/>
      <point x="279" y="453" type="curve"/>
      <point x="258" y="376" type="line"/>
      <point x="277" y="366"/>
      <point x="332" y="358"/>
      <point x="398" y="352" type="curve" smooth="yes"/>
      <point x="476" y="345"/>
      <point x="527" y="306"/>
      <point x="527" y="213" type="curve" smooth="yes"/>
      <point x="527" y="119"/>
      <point x="451" y="69"/>
      <point x="340" y="69" type="curve" smooth="yes"/>
      <point x="233" y="69"/>
      <point x="180" y="108"/>
      <point x="180" y="249" type="curve" smooth="yes"/>
    </contour>
  </outline>
</glyph>
<glyph name="Daali-adlam" format="2">
  <advance width="606"/>
  <unicode hex="1E901"/>
  <anchor x="299" y="663" name="gemconsonanttop"/>
  <anchor x="294" y="663" name="top"/>
  <outline>
    <contour>
      <point x="516" y="118" type="curve" smooth="yes"/>
      <point x="516" y="714" type="line"/>
      <point x="426" y="714" type="line"/>
      <point x="426" y="304" type="line"/>
      <point x="423" y="302" type="line"/>
      <point x="411" y="313"/>
      <point x="377" y="329"/>
      <point x="277" y="350" type="curve" smooth="yes"/>
      <point x="180" y="370"/>
      <point x="161" y="388"/>
      <point x="161" y="464" type="curve" smooth="yes"/>
      <point x="161" y="714" type="line"/>
      <point x="71" y="714" type="line"/>
      <point x="71" y="454" type="line" smooth="yes"/>
      <point x="71" y="321"/>
      <point x="122" y="296"/>
      <point x="247" y="272" type="curve" smooth="yes"/>
      <point x="379" y="247"/>
      <point x="426" y="219"/>
      <point x="426" y="156" type="curve" smooth="yes"/>
      <point x="426" y="137" type="line" smooth="yes"/>
      <point x="426" y="95"/>
      <point x="417" y="79"/>
      <point x="377" y="79" type="curve" smooth="yes"/>
      <point x="65" y="79" type="line"/>
      <point x="65" y="0" type="line"/>
      <point x="404" y="0" type="line" smooth="yes"/>
      <point x="498" y="0"/>
      <point x="516" y="32"/>
    </contour>
  </outline>
</glyph>
<glyph name="Laam-adlam" format="2">
  <advance width="806"/>
  <unicode hex="1E902"/>
  <anchor x="383" y="663" name="top"/>
  <outline>
    <contour>
      <point x="716" y="714" type="line"/>
      <point x="626" y="714" type="line"/>
      <point x="626" y="563" type="line" smooth="yes"/>
      <point x="626" y="512"/>
      <point x="610" y="500"/>
      <point x="551" y="450" type="curve" smooth="yes"/>
      <point x="503" y="409"/>
      <point x="491" y="398"/>
      <point x="478" y="384" type="curve"/>
      <point x="475" y="384" type="line"/>
      <point x="475" y="550" type="line" smooth="yes"/>
      <point x="475" y="675"/>
      <point x="421" y="726"/>
      <point x="293" y="726" type="curve" smooth="yes"/>
      <point x="134" y="726"/>
      <point x="75" y="625"/>
      <point x="60" y="595" type="curve"/>
      <point x="60" y="374" type="line"/>
      <point x="150" y="374" type="line"/>
      <point x="150" y="575" type="line"/>
      <point x="163" y="597"/>
      <point x="205" y="647"/>
      <point x="287" y="647" type="curve" smooth="yes"/>
      <point x="360" y="647"/>
      <point x="385" y="614"/>
      <point x="385" y="550" type="curve" smooth="yes"/>
      <point x="385" y="137" type="line" smooth="yes"/>
      <point x="385" y="95"/>
      <point x="376" y="79"/>
      <point x="336" y="79" type="curve" smooth="yes"/>
      <point x="60" y="79" type="line"/>
      <point x="60" y="0" type="line"/>
      <point x="363" y="0" type="line" smooth="yes"/>
      <point x="457" y="0"/>
      <point x="475" y="32"/>
      <point x="475" y="118" type="curve" smooth="yes"/>
      <point x="475" y="233" type="line" smooth="yes"/>
      <point x="475" y="285"/>
      <point x="486" y="300"/>
      <point x="545" y="347" type="curve" smooth="yes"/>
      <point x="585" y="380"/>
      <point x="610" y="399"/>
      <point x="624" y="413" type="curve"/>
      <point x="626" y="412" type="line"/>
      <point x="626" y="0" type="line"/>
      <point x="716" y="0" type="line"/>
    </contour>
  </outline>
</glyph>
<glyph name="Miim-adlam" format="2">
  <advance width="616"/>
  <unicode hex="1E903"/>
  <anchor x="304" y="663" name="top"/>
  <outline>
    <contour>
      <point x="307" y="724" type="curve" smooth="yes"/>
      <point x="147" y="724"/>
      <point x="40" y="664"/>
      <point x="40" y="539" type="curve" smooth="yes"/>
      <point x="40" y="425"/>
      <point x="105" y="370"/>
      <point x="266" y="321" type="curve" smooth="yes"/>
      <point x="407" y="278"/>
      <point x="468" y="237"/>
      <point x="468" y="148" type="curve" smooth="yes"/>
      <point x="468" y="105"/>
      <point x="443" y="79"/>
      <point x="375" y="79" type="curve" smooth="yes"/>
      <point x="46" y="79" type="line"/>
      <point x="46" y="0" type="line"/>
      <point x="375" y="0" type="line" smooth="yes"/>
      <point x="498" y="0"/>
      <point x="561" y="38"/>
      <point x="561" y="148" type="curve" smooth="yes"/>
      <point x="561" y="294"/>
      <point x="480" y="343"/>
      <point x="315" y="393" type="curve" smooth="yes"/>
      <point x="186" y="432"/>
      <point x="133" y="469"/>
      <point x="133" y="542" type="curve" smooth="yes"/>
      <point x="133" y="607"/>
      <point x="186" y="645"/>
      <point x="307" y="645" type="curve" smooth="yes"/>
      <point x="426" y="645"/>
      <point x="468" y="606"/>
      <point x="468" y="542" type="curve" smooth="yes"/>
      <point x="468" y="482"/>
      <point x="440" y="451"/>
      <point x="416" y="425" type="curve"/>
      <point x="488" y="374" type="line"/>
      <point x="507" y="390"/>
      <point x="561" y="443"/>
      <point x="561" y="542" type="curve" smooth="yes"/>
      <point x="561" y="654"/>
      <point x="498" y="724"/>
    </contour>
  </outline>
</glyph>
<glyph name="Ba-adlam" format="2">
  <advance width="753"/>
  <unicode hex="1E904"/>
  <anchor x="355" y="663" name="top"/>
  <outline>
    <contour>
      <point x="693" y="79" type="line"/>
      <point x="471" y="79" type="line" smooth="yes"/>
      <point x="430" y="79"/>
      <point x="421" y="95"/>
      <point x="421" y="137" type="curve" smooth="yes"/>
      <point x="421" y="253" type="line"/>
      <point x="605" y="267"/>
      <point x="698" y="355"/>
      <point x="698" y="512" type="curve" smooth="yes"/>
      <point x="698" y="665"/>
      <point x="609" y="724"/>
      <point x="481" y="724" type="curve" smooth="yes"/>
      <point x="405" y="724"/>
      <point x="351" y="707"/>
      <point x="331" y="694" type="curve"/>
      <point x="331" y="332" type="line"/>
      <point x="285" y="333"/>
      <point x="207" y="346"/>
      <point x="180" y="357" type="curve"/>
      <point x="180" y="714" type="line"/>
      <point x="90" y="714" type="line"/>
      <point x="90" y="0" type="line"/>
      <point x="180" y="0" type="line"/>
      <point x="180" y="272" type="line"/>
      <point x="210" y="262"/>
      <point x="288" y="253"/>
      <point x="331" y="253" type="curve"/>
      <point x="331" y="118" type="line" smooth="yes"/>
      <point x="331" y="32"/>
      <point x="349" y="0"/>
      <point x="444" y="0" type="curve" smooth="yes"/>
      <point x="693" y="0" type="line"/>
    </contour>
    <contour>
      <point x="481" y="645" type="curve" smooth="yes"/>
      <point x="548" y="645"/>
      <point x="605" y="608"/>
      <point x="605" y="506" type="curve" smooth="yes"/>
      <point x="605" y="393"/>
      <point x="543" y="343"/>
      <point x="421" y="332" type="curve"/>
      <point x="421" y="636" type="line"/>
      <point x="431" y="641"/>
      <point x="453" y="645"/>
    </contour>
  </outline>
</glyph>
<glyph name="Sinnyiiyhe-adlam" format="2">
  <advance width="885"/>
  <unicode hex="1E905"/>
  <anchor x="427" y="0" name="bottom"/>
  <anchor x="437" y="663" name="gemconsonanttop"/>
  <anchor x="427" y="663" name="top"/>
  <outline>
    <contour>
      <point x="705" y="577" type="curve" smooth="yes"/>
      <point x="705" y="187" type="line" smooth="yes"/>
      <point x="705" y="112"/>
      <point x="673" y="69"/>
      <point x="604" y="69" type="curve" smooth="yes"/>
      <point x="534" y="69"/>
      <point x="487" y="113"/>
      <point x="487" y="187" type="curve" smooth="yes"/>
      <point x="487" y="535" type="line"/>
      <point x="397" y="535" type="line"/>
      <point x="397" y="187" type="line" smooth="yes"/>
      <point x="397" y="113"/>
      <point x="351" y="69"/>
      <point x="279" y="69" type="curve" smooth="yes"/>
      <point x="207" y="69"/>
      <point x="180" y="120"/>
      <point x="180" y="188" type="curve" smooth="yes"/>
      <point x="180" y="714" type="line"/>
      <point x="90" y="714" type="line"/>
      <point x="90" y="188" type="line" smooth="yes"/>
      <point x="90" y="44"/>
      <point x="159" y="-10"/>
      <point x="269" y="-10" type="curve" smooth="yes"/>
      <point x="366" y="-10"/>
      <point x="419" y="28"/>
      <point x="436" y="65" type="curve"/>
      <point x="442" y="65" type="line"/>
      <point x="459" y="28"/>
      <point x="505" y="-10"/>
      <point x="604" y="-10" type="curve" smooth="yes"/>
      <point x="724" y="-10"/>
      <point x="795" y="44"/>
      <point x="795" y="187" type="curve" smooth="yes"/>
      <point x="795" y="596" type="line" smooth="yes"/>
      <point x="795" y="682"/>
      <point x="777" y="714"/>
      <point x="683" y="714" type="curve" smooth="yes"/>
      <point x="402" y="714" type="line"/>
      <point x="402" y="635" type="line"/>
      <point x="656" y="635" type="line" smooth="yes"/>
      <point x="696" y="635"/>
      <point x="705" y="619"/>
    </contour>
  </outline>
</glyph>
<glyph name="Pe-adlam" format="2">
  <advance width="609"/>
  <unicode hex="1E906"/>
  <anchor x="308" y="663" name="top"/>
  <outline>
    <contour>
      <point x="514" y="79" type="line"/>
      <point x="215" y="79" type="line" smooth="yes"/>
      <point x="188" y="79"/>
      <point x="180" y="90"/>
      <point x="180" y="114" type="curve" smooth="yes"/>
      <point x="180" y="623" type="line"/>
      <point x="198" y="635"/>
      <point x="224" y="645"/>
      <point x="273" y="645" type="curve" smooth="yes"/>
      <point x="367" y="645"/>
      <point x="441" y="574"/>
      <point x="441" y="438" type="curve" smooth="yes"/>
      <point x="441" y="307"/>
      <point x="361" y="231"/>
      <point x="313" y="189" type="curve"/>
      <point x="371" y="124" type="line"/>
      <point x="423" y="168"/>
      <point x="534" y="263"/>
      <point x="534" y="444" type="curve" smooth="yes"/>
      <point x="534" y="633"/>
      <point x="431" y="724"/>
      <point x="273" y="724" type="curve" smooth="yes"/>
      <point x="176" y="724"/>
      <point x="120" y="693"/>
      <point x="90" y="668" type="curve"/>
      <point x="90" y="48" type="line" smooth="yes"/>
      <point x="90" y="17"/>
      <point x="103" y="0"/>
      <point x="140" y="0" type="curve" smooth="yes"/>
      <point x="514" y="0" type="line"/>
    </contour>
  </outline>
</glyph>
<glyph name="Bhe-adlam" format="2">
  <advance width="641"/>
  <unicode hex="1E907"/>
  <anchor x="329" y="663" name="top"/>
  <outline>
    <contour>
      <point x="284" y="635" type="curve" smooth="yes"/>
      <point x="551" y="635" type="line"/>
      <point x="551" y="714" type="line"/>
      <point x="284" y="714" type="line" smooth="yes"/>
      <point x="145" y="714"/>
      <point x="45" y="683"/>
      <point x="45" y="538" type="curve" smooth="yes"/>
      <point x="45" y="446"/>
      <point x="90" y="380"/>
      <point x="177" y="324" type="curve" smooth="yes"/>
      <point x="247" y="278"/>
      <point x="293" y="228"/>
      <point x="293" y="141" type="curve" smooth="yes"/>
      <point x="293" y="92"/>
      <point x="270" y="79"/>
      <point x="229" y="79" type="curve" smooth="yes"/>
      <point x="49" y="79" type="line"/>
      <point x="49" y="0" type="line"/>
      <point x="237" y="0" type="line" smooth="yes"/>
      <point x="275" y="0"/>
      <point x="291" y="0"/>
      <point x="312" y="9" type="curve" smooth="yes"/>
      <point x="354" y="27"/>
      <point x="382" y="67"/>
      <point x="382" y="168" type="curve"/>
      <point x="393" y="196"/>
      <point x="433" y="233"/>
      <point x="456" y="244" type="curve"/>
      <point x="461" y="242" type="line"/>
      <point x="461" y="0" type="line"/>
      <point x="551" y="0" type="line"/>
      <point x="551" y="532" type="line"/>
      <point x="461" y="532" type="line"/>
      <point x="461" y="340" type="line"/>
      <point x="434" y="328"/>
      <point x="379" y="291"/>
      <point x="362" y="260" type="curve"/>
      <point x="359" y="260" type="line"/>
      <point x="342" y="304"/>
      <point x="309" y="339"/>
      <point x="238" y="386" type="curve" smooth="yes"/>
      <point x="169" y="433"/>
      <point x="138" y="477"/>
      <point x="138" y="537" type="curve" smooth="yes"/>
      <point x="138" y="602"/>
      <point x="184" y="635"/>
    </contour>
  </outline>
</glyph>
<glyph name="Ra-adlam" format="2">
  <advance width="679"/>
  <unicode hex="1E908"/>
  <anchor x="349" y="663" name="top"/>
  <outline>
    <contour>
      <point x="340" y="236" type="curve" smooth="yes"/>
      <point x="495" y="236"/>
      <point x="594" y="289"/>
      <point x="594" y="452" type="curve" smooth="yes"/>
      <point x="594" y="714" type="line"/>
      <point x="504" y="714" type="line"/>
      <point x="504" y="451" type="line" smooth="yes"/>
      <point x="504" y="348"/>
      <point x="448" y="315"/>
      <point x="340" y="315" type="curve" smooth="yes"/>
      <point x="240" y="315"/>
      <point x="200" y="357"/>
      <point x="180" y="380" type="curve"/>
      <point x="180" y="714" type="line"/>
      <point x="90" y="714" type="line"/>
      <point x="90" y="118" type="line" smooth="yes"/>
      <point x="90" y="32"/>
      <point x="108" y="0"/>
      <point x="202" y="0" type="curve" smooth="yes"/>
      <point x="594" y="0" type="line"/>
      <point x="594" y="79" type="line"/>
      <point x="229" y="79" type="line" smooth="yes"/>
      <point x="189" y="79"/>
      <point x="180" y="95"/>
      <point x="180" y="137" type="curve" smooth="yes"/>
      <point x="180" y="276" type="line"/>
      <point x="185" y="279" type="line"/>
      <point x="198" y="268"/>
      <point x="240" y="236"/>
    </contour>
  </outline>
</glyph>
<glyph name="E-adlam" format="2">
  <advance width="711"/>
  <unicode hex="1E909"/>
  <anchor x="357" y="0" name="bottom"/>
  <anchor x="353" y="666" name="top"/>
  <anchor x="415" y="557" name="vowellengthencomb-adlam.case"/>
  <outline>
    <contour>
      <point x="473" y="0" type="line" smooth="yes"/>
      <point x="586" y="0"/>
      <point x="656" y="33"/>
      <point x="656" y="147" type="curve" smooth="yes"/>
      <point x="656" y="276"/>
      <point x="547" y="316"/>
      <point x="491" y="326" type="curve"/>
      <point x="490" y="330" type="line"/>
      <point x="562" y="382"/>
      <point x="611" y="438"/>
      <point x="611" y="545" type="curve" smooth="yes"/>
      <point x="611" y="657"/>
      <point x="542" y="724"/>
      <point x="363" y="724" type="curve" smooth="yes"/>
      <point x="168" y="724"/>
      <point x="90" y="655"/>
      <point x="90" y="483" type="curve" smooth="yes"/>
      <point x="90" y="0" type="line"/>
      <point x="180" y="0" type="line"/>
      <point x="180" y="38" type="line"/>
      <point x="186" y="73"/>
      <point x="205" y="99"/>
      <point x="215" y="109" type="curve"/>
      <point x="220" y="109" type="line"/>
      <point x="220" y="52"/>
      <point x="263" y="0"/>
      <point x="357" y="0" type="curve" smooth="yes"/>
    </contour>
    <contour>
      <point x="227" y="200" type="curve"/>
      <point x="202" y="184"/>
      <point x="188" y="162"/>
      <point x="183" y="151" type="curve"/>
      <point x="180" y="151" type="line"/>
      <point x="180" y="483" type="line" smooth="yes"/>
      <point x="180" y="608"/>
      <point x="237" y="645"/>
      <point x="363" y="645" type="curve" smooth="yes"/>
      <point x="483" y="645"/>
      <point x="518" y="597"/>
      <point x="518" y="534" type="curve" smooth="yes"/>
      <point x="518" y="456"/>
      <point x="483" y="422"/>
      <point x="376" y="350" type="curve" smooth="yes"/>
      <point x="271" y="279"/>
      <point x="243" y="244"/>
    </contour>
    <contour>
      <point x="473" y="79" type="curve" smooth="yes"/>
      <point x="380" y="79" type="line" smooth="yes"/>
      <point x="326" y="79"/>
      <point x="298" y="97"/>
      <point x="298" y="145" type="curve" smooth="yes"/>
      <point x="298" y="199"/>
      <point x="347" y="245"/>
      <point x="385" y="264" type="curve"/>
      <point x="390" y="266"/>
      <point x="401" y="267"/>
      <point x="412" y="267" type="curve" smooth="yes"/>
      <point x="475" y="267"/>
      <point x="563" y="228"/>
      <point x="563" y="146" type="curve" smooth="yes"/>
      <point x="563" y="97"/>
      <point x="535" y="79"/>
    </contour>
  </outline>
</glyph>
<glyph name="Fa-adlam" format="2">
  <advance width="647"/>
  <unicode hex="1E90A"/>
  <anchor x="333" y="663" name="top"/>
  <outline>
    <contour>
      <point x="90" y="0" type="line"/>
      <point x="180" y="0" type="line"/>
      <point x="180" y="321" type="line" smooth="yes"/>
      <point x="180" y="360"/>
      <point x="238" y="422"/>
      <point x="343" y="422" type="curve" smooth="yes"/>
      <point x="430" y="422"/>
      <point x="472" y="382"/>
      <point x="472" y="269" type="curve" smooth="yes"/>
      <point x="472" y="-104" type="line"/>
      <point x="562" y="-104" type="line"/>
      <point x="562" y="291" type="line" smooth="yes"/>
      <point x="562" y="450"/>
      <point x="492" y="501"/>
      <point x="365" y="501" type="curve" smooth="yes"/>
      <point x="250" y="501"/>
      <point x="206" y="460"/>
      <point x="184" y="435" type="curve"/>
      <point x="180" y="436" type="line"/>
      <point x="180" y="577" type="line" smooth="yes"/>
      <point x="180" y="619"/>
      <point x="189" y="635"/>
      <point x="229" y="635" type="curve" smooth="yes"/>
      <point x="540" y="635" type="line"/>
      <point x="540" y="714" type="line"/>
      <point x="202" y="714" type="line" smooth="yes"/>
      <point x="108" y="714"/>
      <point x="90" y="682"/>
      <point x="90" y="596" type="curve" smooth="yes"/>
    </contour>
  </outline>
</glyph>
<glyph name="I-adlam" format="2">
  <advance width="793"/>
  <unicode hex="1E90B"/>
  <anchor x="449" y="557" name="vowellengthencomb-adlam.case"/>
  <outline>
    <contour>
      <point x="693" y="714" type="line"/>
      <point x="603" y="714" type="line"/>
      <point x="603" y="236" type="line" smooth="yes"/>
      <point x="603" y="114"/>
      <point x="546" y="69"/>
      <point x="397" y="69" type="curve" smooth="yes"/>
      <point x="248" y="69"/>
      <point x="190" y="114"/>
      <point x="190" y="236" type="curve" smooth="yes"/>
      <point x="190" y="714" type="line"/>
      <point x="100" y="714" type="line"/>
      <point x="100" y="233" type="line" smooth="yes"/>
      <point x="100" y="37"/>
      <point x="198" y="-10"/>
      <point x="391" y="-10" type="curve" smooth="yes"/>
      <point x="585" y="-10"/>
      <point x="693" y="37"/>
      <point x="693" y="233" type="curve" smooth="yes"/>
    </contour>
  </outline>
</glyph>
<glyph name="O-adlam" format="2">
  <advance width="706"/>
  <unicode hex="1E90C"/>
  <anchor x="349" y="0" name="bottom"/>
  <anchor x="364" y="663" name="top"/>
  <anchor x="399" y="557" name="vowellengthencomb-adlam.case"/>
  <outline>
    <contour>
      <point x="553" y="470" type="curve"/>
      <point x="646" y="495" type="line"/>
      <point x="625" y="589"/>
      <point x="572" y="724"/>
      <point x="372" y="724" type="curve" smooth="yes"/>
      <point x="199" y="724"/>
      <point x="65" y="621"/>
      <point x="65" y="356" type="curve" smooth="yes"/>
      <point x="65" y="56"/>
      <point x="202" y="0"/>
      <point x="417" y="0" type="curve" smooth="yes"/>
      <point x="646" y="0" type="line"/>
      <point x="646" y="79" type="line"/>
      <point x="417" y="79" type="line" smooth="yes"/>
      <point x="282" y="79"/>
      <point x="160" y="114"/>
      <point x="160" y="362" type="curve" smooth="yes"/>
      <point x="160" y="554"/>
      <point x="249" y="645"/>
      <point x="368" y="645" type="curve" smooth="yes"/>
      <point x="489" y="645"/>
      <point x="538" y="542"/>
    </contour>
  </outline>
</glyph>
<glyph name="Dha-adlam" format="2">
  <advance width="694"/>
  <unicode hex="1E90D"/>
  <anchor x="342" y="663" name="top"/>
  <outline>
    <contour>
      <point x="604" y="0" type="line"/>
      <point x="604" y="597" type="line" smooth="yes"/>
      <point x="604" y="683"/>
      <point x="586" y="714"/>
      <point x="492" y="714" type="curve" smooth="yes"/>
      <point x="294" y="714" type="line"/>
      <point x="294" y="635" type="line"/>
      <point x="465" y="635" type="line" smooth="yes"/>
      <point x="505" y="635"/>
      <point x="514" y="619"/>
      <point x="514" y="576" type="curve" smooth="yes"/>
      <point x="514" y="441" type="line"/>
      <point x="510" y="439" type="line"/>
      <point x="482" y="476"/>
      <point x="433" y="501"/>
      <point x="348" y="501" type="curve" smooth="yes"/>
      <point x="259" y="501"/>
      <point x="199" y="468"/>
      <point x="174" y="439" type="curve"/>
      <point x="170" y="440" type="line"/>
      <point x="170" y="714" type="line"/>
      <point x="80" y="714" type="line"/>
      <point x="80" y="260" type="line" smooth="yes"/>
      <point x="80" y="71"/>
      <point x="170" y="-10"/>
      <point x="326" y="-10" type="curve" smooth="yes"/>
      <point x="442" y="-10"/>
      <point x="491" y="41"/>
      <point x="509" y="67" type="curve"/>
      <point x="514" y="66" type="line"/>
      <point x="514" y="0" type="line"/>
    </contour>
    <contour>
      <point x="514" y="300" type="curve"/>
      <point x="514" y="184" type="line"/>
      <point x="496" y="136"/>
      <point x="457" y="69"/>
      <point x="337" y="69" type="curve" smooth="yes"/>
      <point x="225" y="69"/>
      <point x="170" y="138"/>
      <point x="170" y="264" type="curve" smooth="yes"/>
      <point x="170" y="338" type="line"/>
      <point x="190" y="372"/>
      <point x="243" y="422"/>
      <point x="347" y="422" type="curve" smooth="yes"/>
      <point x="444" y="422"/>
      <point x="500" y="372"/>
    </contour>
  </outline>
</glyph>
<glyph name="Yhe-adlam" format="2">
  <advance width="638"/>
  <unicode hex="1E90E"/>
  <anchor x="335" y="663" name="top"/>
  <outline>
    <contour>
      <point x="583" y="79" type="line"/>
      <point x="332" y="79" type="line" smooth="yes"/>
      <point x="232" y="79"/>
      <point x="155" y="152"/>
      <point x="155" y="268" type="curve" smooth="yes"/>
      <point x="155" y="379"/>
      <point x="200" y="449"/>
      <point x="332" y="449" type="curve" smooth="yes"/>
      <point x="573" y="449" type="line"/>
      <point x="573" y="528" type="line"/>
      <point x="510" y="572"/>
      <point x="367" y="696"/>
      <point x="333" y="735" type="curve"/>
      <point x="268" y="677" type="line"/>
      <point x="298" y="645"/>
      <point x="402" y="559"/>
      <point x="442" y="533" type="curve"/>
      <point x="440" y="528" type="line"/>
      <point x="331" y="528" type="line" smooth="yes"/>
      <point x="144" y="528"/>
      <point x="60" y="415"/>
      <point x="60" y="266" type="curve" smooth="yes"/>
      <point x="60" y="94"/>
      <point x="159" y="0"/>
      <point x="331" y="0" type="curve" smooth="yes"/>
      <point x="583" y="0" type="line"/>
    </contour>
  </outline>
</glyph>
<glyph name="Waw-adlam" format="2">
  <advance width="649"/>
  <unicode hex="1E90F"/>
  <anchor x="331" y="663" name="top"/>
  <outline>
    <contour>
      <point x="559" y="0" type="line"/>
      <point x="559" y="714" type="line"/>
      <point x="208" y="714" type="line" smooth="yes"/>
      <point x="108" y="714"/>
      <point x="90" y="682"/>
      <point x="90" y="596" type="curve" smooth="yes"/>
      <point x="90" y="0" type="line"/>
      <point x="180" y="0" type="line"/>
      <point x="180" y="298" type="line"/>
      <point x="262" y="298" type="line" smooth="yes"/>
      <point x="319" y="298"/>
      <point x="336" y="284"/>
      <point x="347" y="273" type="curve"/>
      <point x="393" y="338" type="line"/>
      <point x="382" y="351"/>
      <point x="359" y="377"/>
      <point x="286" y="377" type="curve" smooth="yes"/>
      <point x="180" y="377" type="line"/>
      <point x="180" y="577" type="line" smooth="yes"/>
      <point x="180" y="619"/>
      <point x="189" y="635"/>
      <point x="229" y="635" type="curve" smooth="yes"/>
      <point x="469" y="635" type="line"/>
      <point x="469" y="0" type="line"/>
    </contour>
  </outline>
</glyph>
<glyph name="Nun-adlam" format="2">
  <advance width="651"/>
  <unicode hex="1E910"/>
  <anchor x="329" y="663" name="top"/>
  <outline>
    <contour>
      <point x="375" y="79" type="line"/>
      <point x="276" y="79" type="line" smooth="yes"/>
      <point x="173" y="79"/>
      <point x="135" y="98"/>
      <point x="135" y="186" type="curve" smooth="yes"/>
      <point x="135" y="285"/>
      <point x="198" y="315"/>
      <point x="333" y="354" type="curve" smooth="yes"/>
      <point x="475" y="396"/>
      <point x="557" y="427"/>
      <point x="557" y="554" type="curve" smooth="yes"/>
      <point x="557" y="673"/>
      <point x="487" y="714"/>
      <point x="359" y="714" type="curve" smooth="yes"/>
      <point x="284" y="714" type="line" smooth="yes"/>
      <point x="153" y="714"/>
      <point x="100" y="645"/>
      <point x="84" y="617" type="curve"/>
      <point x="149" y="570" type="line"/>
      <point x="164" y="597"/>
      <point x="193" y="635"/>
      <point x="284" y="635" type="curve" smooth="yes"/>
      <point x="357" y="635" type="line" smooth="yes"/>
      <point x="433" y="635"/>
      <point x="467" y="609"/>
      <point x="467" y="554" type="curve" smooth="yes"/>
      <point x="467" y="480"/>
      <point x="412" y="460"/>
      <point x="276" y="419" type="curve" smooth="yes"/>
      <point x="130" y="374"/>
      <point x="45" y="324"/>
      <point x="45" y="177" type="curve" smooth="yes"/>
      <point x="45" y="41"/>
      <point x="119" y="0"/>
      <point x="264" y="0" type="curve" smooth="yes"/>
      <point x="375" y="0" type="line"/>
    </contour>
    <contour>
      <point x="448" y="111" type="line" smooth="yes"/>
      <point x="448" y="35"/>
      <point x="479" y="-4"/>
      <point x="495" y="-15" type="curve"/>
      <point x="566" y="38" type="line"/>
      <point x="552" y="52"/>
      <point x="538" y="72"/>
      <point x="538" y="129" type="curve" smooth="yes"/>
      <point x="538" y="333" type="line"/>
      <point x="448" y="333" type="line"/>
    </contour>
  </outline>
</glyph>
<glyph name="Kaf-adlam" format="2">
  <advance width="753"/>
  <unicode hex="1E911"/>
  <anchor x="352" y="663" name="top"/>
  <outline>
    <contour>
      <point x="551" y="714" type="curve" smooth="yes"/>
      <point x="40" y="714" type="line"/>
      <point x="40" y="635" type="line"/>
      <point x="523" y="635" type="line" smooth="yes"/>
      <point x="564" y="635"/>
      <point x="573" y="619"/>
      <point x="573" y="576" type="curve" smooth="yes"/>
      <point x="573" y="399" type="line"/>
      <point x="383" y="399" type="line"/>
      <point x="383" y="558" type="line"/>
      <point x="293" y="558" type="line"/>
      <point x="293" y="399" type="line"/>
      <point x="142" y="399" type="line"/>
      <point x="142" y="320" type="line"/>
      <point x="293" y="320" type="line"/>
      <point x="293" y="137" type="line" smooth="yes"/>
      <point x="293" y="95"/>
      <point x="284" y="79"/>
      <point x="243" y="79" type="curve" smooth="yes"/>
      <point x="40" y="79" type="line"/>
      <point x="40" y="0" type="line"/>
      <point x="271" y="0" type="line" smooth="yes"/>
      <point x="365" y="0"/>
      <point x="383" y="32"/>
      <point x="383" y="118" type="curve" smooth="yes"/>
      <point x="383" y="320" type="line"/>
      <point x="573" y="320" type="line"/>
      <point x="573" y="0" type="line"/>
      <point x="663" y="0" type="line"/>
      <point x="663" y="597" type="line" smooth="yes"/>
      <point x="663" y="683"/>
      <point x="645" y="714"/>
    </contour>
  </outline>
</glyph>
<glyph name="Ya-adlam" format="2">
  <advance width="560"/>
  <unicode hex="1E912"/>
  <anchor x="261" y="663" name="top"/>
  <outline>
    <contour>
      <point x="510" y="207" type="curve" smooth="yes"/>
      <point x="510" y="350"/>
      <point x="422" y="387"/>
      <point x="391" y="399" type="curve"/>
      <point x="391" y="404" type="line"/>
      <point x="421" y="416"/>
      <point x="493" y="454"/>
      <point x="493" y="554" type="curve" smooth="yes"/>
      <point x="493" y="668"/>
      <point x="415" y="714"/>
      <point x="292" y="714" type="curve" smooth="yes"/>
      <point x="231" y="714" type="line" smooth="yes"/>
      <point x="102" y="714"/>
      <point x="54" y="649"/>
      <point x="40" y="622" type="curve"/>
      <point x="100" y="575" type="line"/>
      <point x="112" y="597"/>
      <point x="144" y="635"/>
      <point x="227" y="635" type="curve" smooth="yes"/>
      <point x="292" y="635" type="line" smooth="yes"/>
      <point x="353" y="635"/>
      <point x="400" y="613"/>
      <point x="400" y="554" type="curve" smooth="yes"/>
      <point x="400" y="488"/>
      <point x="331" y="459"/>
      <point x="201" y="422" type="curve" smooth="yes"/>
      <point x="109" y="396" type="line"/>
      <point x="130" y="322" type="line"/>
      <point x="176" y="337"/>
      <point x="257" y="360"/>
      <point x="270" y="360" type="curve" smooth="yes"/>
      <point x="353" y="360"/>
      <point x="417" y="309"/>
      <point x="417" y="204" type="curve" smooth="yes"/>
      <point x="417" y="108"/>
      <point x="362" y="79"/>
      <point x="265" y="79" type="curve" smooth="yes"/>
      <point x="57" y="79" type="line"/>
      <point x="57" y="0" type="line"/>
      <point x="265" y="0" type="line" smooth="yes"/>
      <point x="415" y="0"/>
      <point x="510" y="42"/>
    </contour>
  </outline>
</glyph>
<glyph name="U-adlam" format="2">
  <advance width="817"/>
  <unicode hex="1E913"/>
  <anchor x="449" y="548" name="vowellengthencomb-adlam.case"/>
  <outline>
    <contour>
      <point x="656" y="719" type="curve" smooth="yes"/>
      <point x="613" y="719"/>
      <point x="557" y="721"/>
      <point x="526" y="728" type="curve"/>
      <point x="515" y="649" type="line"/>
      <point x="534" y="643"/>
      <point x="576" y="641"/>
      <point x="602" y="640" type="curve" smooth="yes"/>
      <point x="630" y="639"/>
      <point x="637" y="629"/>
      <point x="637" y="602" type="curve" smooth="yes"/>
      <point x="637" y="555" type="line" smooth="yes"/>
      <point x="637" y="517"/>
      <point x="630" y="513"/>
      <point x="562" y="472" type="curve" smooth="yes"/>
      <point x="509" y="440"/>
      <point x="495" y="431"/>
      <point x="481" y="421" type="curve"/>
      <point x="476" y="422" type="line"/>
      <point x="477" y="433"/>
      <point x="477" y="444"/>
      <point x="477" y="461" type="curve" smooth="yes"/>
      <point x="477" y="664"/>
      <point x="386" y="724"/>
      <point x="270" y="724" type="curve" smooth="yes"/>
      <point x="157" y="724"/>
      <point x="104" y="664"/>
      <point x="90" y="631" type="curve"/>
      <point x="90" y="218" type="line" smooth="yes"/>
      <point x="90" y="84"/>
      <point x="159" y="-10"/>
      <point x="409" y="-10" type="curve" smooth="yes"/>
      <point x="654" y="-10"/>
      <point x="727" y="84"/>
      <point x="727" y="218" type="curve" smooth="yes"/>
      <point x="727" y="640" type="line" smooth="yes"/>
      <point x="727" y="700"/>
      <point x="712" y="719"/>
    </contour>
    <contour>
      <point x="408" y="69" type="curve" smooth="yes"/>
      <point x="234" y="69"/>
      <point x="180" y="125"/>
      <point x="180" y="236" type="curve" smooth="yes"/>
      <point x="180" y="601" type="line"/>
      <point x="193" y="624"/>
      <point x="222" y="645"/>
      <point x="270" y="645" type="curve" smooth="yes"/>
      <point x="324" y="645"/>
      <point x="387" y="604"/>
      <point x="387" y="455" type="curve" smooth="yes"/>
      <point x="387" y="273"/>
      <point x="287" y="202"/>
      <point x="264" y="186" type="curve"/>
      <point x="324" y="122" type="line"/>
      <point x="354" y="145"/>
      <point x="408" y="197"/>
      <point x="443" y="275" type="curve" smooth="yes"/>
      <point x="468" y="331"/>
      <point x="474" y="338"/>
      <point x="537" y="376" type="curve" smooth="yes"/>
      <point x="602" y="414"/>
      <point x="617" y="425"/>
      <point x="632" y="436" type="curve"/>
      <point x="637" y="435" type="line"/>
      <point x="637" y="236" type="line" smooth="yes"/>
      <point x="637" y="125"/>
      <point x="582" y="69"/>
    </contour>
  </outline>
</glyph>
<glyph name="Jiim-adlam" format="2">
  <advance width="897"/>
  <unicode hex="1E914"/>
  <anchor x="433" y="0" name="bottom"/>
  <anchor x="449" y="665" name="gemconsonanttop"/>
  <anchor x="458" y="665" name="top"/>
  <outline>
    <contour>
      <point x="626" y="687" type="curve" smooth="yes"/>
      <point x="518" y="687"/>
      <point x="482" y="633"/>
      <point x="471" y="613" type="curve"/>
      <point x="466" y="613" type="line"/>
      <point x="457" y="645"/>
      <point x="424" y="724"/>
      <point x="290" y="724" type="curve" smooth="yes"/>
      <point x="144" y="724"/>
      <point x="90" y="630"/>
      <point x="90" y="511" type="curve" smooth="yes"/>
      <point x="90" y="270" type="line"/>
      <point x="180" y="270" type="line"/>
      <point x="180" y="499" type="line" smooth="yes"/>
      <point x="180" y="604"/>
      <point x="223" y="645"/>
      <point x="290" y="645" type="curve" smooth="yes"/>
      <point x="357" y="645"/>
      <point x="399" y="594"/>
      <point x="399" y="486" type="curve" smooth="yes"/>
      <point x="399" y="147" type="line" smooth="yes"/>
      <point x="399" y="100"/>
      <point x="378" y="79"/>
      <point x="313" y="79" type="curve" smooth="yes"/>
      <point x="90" y="79" type="line"/>
      <point x="90" y="0" type="line"/>
      <point x="313" y="0" type="line" smooth="yes"/>
      <point x="453" y="0"/>
      <point x="489" y="42"/>
      <point x="489" y="146" type="curve" smooth="yes"/>
      <point x="489" y="452" type="line" smooth="yes"/>
      <point x="489" y="558"/>
      <point x="532" y="608"/>
      <point x="613" y="608" type="curve" smooth="yes"/>
      <point x="685" y="608"/>
      <point x="717" y="554"/>
      <point x="717" y="455" type="curve" smooth="yes"/>
      <point x="717" y="117" type="line" smooth="yes"/>
      <point x="717" y="71"/>
      <point x="704" y="22"/>
      <point x="671" y="-8" type="curve"/>
      <point x="743" y="-54" type="line"/>
      <point x="785" y="-12"/>
      <point x="807" y="42"/>
      <point x="807" y="117" type="curve" smooth="yes"/>
      <point x="807" y="476" type="line" smooth="yes"/>
      <point x="807" y="614"/>
      <point x="750" y="687"/>
    </contour>
  </outline>
</glyph>
<glyph name="Chi-adlam" format="2">
  <advance width="690"/>
  <unicode hex="1E915"/>
  <anchor x="342" y="663" name="top"/>
  <outline>
    <contour>
      <point x="488" y="714" type="curve" smooth="yes"/>
      <point x="296" y="714" type="line"/>
      <point x="296" y="635" type="line"/>
      <point x="461" y="635" type="line" smooth="yes"/>
      <point x="501" y="635"/>
      <point x="510" y="619"/>
      <point x="510" y="579" type="curve" smooth="yes"/>
      <point x="510" y="429" type="line"/>
      <point x="506" y="427" type="line"/>
      <point x="488" y="447"/>
      <point x="447" y="466"/>
      <point x="339" y="479" type="curve" smooth="yes"/>
      <point x="224" y="493"/>
      <point x="168" y="514"/>
      <point x="168" y="635" type="curve" smooth="yes"/>
      <point x="168" y="743" type="line"/>
      <point x="78" y="743" type="line"/>
      <point x="78" y="636" type="line" smooth="yes"/>
      <point x="78" y="489"/>
      <point x="135" y="448"/>
      <point x="219" y="437" type="curve"/>
      <point x="219" y="432" type="line"/>
      <point x="138" y="413"/>
      <point x="60" y="350"/>
      <point x="60" y="209" type="curve" smooth="yes"/>
      <point x="60" y="54"/>
      <point x="138" y="0"/>
      <point x="306" y="0" type="curve" smooth="yes"/>
      <point x="439" y="0" type="line"/>
      <point x="439" y="79" type="line"/>
      <point x="307" y="79" type="line" smooth="yes"/>
      <point x="223" y="79"/>
      <point x="154" y="105"/>
      <point x="154" y="209" type="curve" smooth="yes"/>
      <point x="154" y="336"/>
      <point x="230" y="397"/>
      <point x="342" y="397" type="curve" smooth="yes"/>
      <point x="445" y="397"/>
      <point x="492" y="352"/>
      <point x="510" y="326" type="curve"/>
      <point x="510" y="0" type="line"/>
      <point x="600" y="0" type="line"/>
      <point x="600" y="597" type="line" smooth="yes"/>
      <point x="600" y="683"/>
      <point x="582" y="714"/>
    </contour>
  </outline>
</glyph>
<glyph name="Ha-adlam" format="2">
  <advance width="613"/>
  <unicode hex="1E916"/>
  <anchor x="317" y="663" name="gemconsonanttop"/>
  <anchor x="321" y="663" name="top"/>
  <outline>
    <contour>
      <point x="278" y="508" type="curve" smooth="yes"/>
      <point x="221" y="508" type="line" smooth="yes"/>
      <point x="180" y="508"/>
      <point x="171" y="524"/>
      <point x="171" y="566" type="curve" smooth="yes"/>
      <point x="171" y="714" type="line"/>
      <point x="81" y="714" type="line"/>
      <point x="81" y="547" type="line" smooth="yes"/>
      <point x="81" y="461"/>
      <point x="99" y="429"/>
      <point x="194" y="429" type="curve" smooth="yes"/>
      <point x="273" y="429" type="line" smooth="yes"/>
      <point x="384" y="429"/>
      <point x="470" y="391"/>
      <point x="470" y="244" type="curve" smooth="yes"/>
      <point x="470" y="126"/>
      <point x="415" y="79"/>
      <point x="283" y="79" type="curve" smooth="yes"/>
      <point x="80" y="79" type="line"/>
      <point x="80" y="0" type="line"/>
      <point x="283" y="0" type="line" smooth="yes"/>
      <point x="480" y="0"/>
      <point x="563" y="72"/>
      <point x="563" y="249" type="curve" smooth="yes"/>
      <point x="563" y="440"/>
      <point x="461" y="508"/>
    </contour>
  </outline>
</glyph>
<glyph name="Qaaf-adlam" format="2">
  <advance width="749"/>
  <unicode hex="1E917"/>
  <anchor x="416" y="666" name="top"/>
  <outline>
    <contour>
      <point x="61" y="79" type="line"/>
      <point x="61" y="0" type="line"/>
      <point x="315" y="0" type="line" smooth="yes"/>
      <point x="409" y="0"/>
      <point x="427" y="32"/>
      <point x="427" y="118" type="curve" smooth="yes"/>
      <point x="427" y="275" type="line"/>
      <point x="470" y="275"/>
      <point x="534" y="284"/>
      <point x="569" y="294" type="curve"/>
      <point x="569" y="0" type="line"/>
      <point x="659" y="0" type="line"/>
      <point x="659" y="714" type="line"/>
      <point x="569" y="714" type="line"/>
      <point x="569" y="375" type="line"/>
      <point x="538" y="365"/>
      <point x="473" y="355"/>
      <point x="427" y="354" type="curve"/>
      <point x="427" y="552" type="line" smooth="yes"/>
      <point x="427" y="675"/>
      <point x="371" y="724"/>
      <point x="269" y="724" type="curve" smooth="yes"/>
      <point x="143" y="724"/>
      <point x="50" y="651"/>
      <point x="50" y="513" type="curve" smooth="yes"/>
      <point x="50" y="358"/>
      <point x="164" y="285"/>
      <point x="337" y="275" type="curve"/>
      <point x="337" y="137" type="line" smooth="yes"/>
      <point x="337" y="95"/>
      <point x="328" y="79"/>
      <point x="288" y="79" type="curve" smooth="yes"/>
    </contour>
    <contour>
      <point x="337" y="545" type="curve" smooth="yes"/>
      <point x="337" y="354" type="line"/>
      <point x="228" y="365"/>
      <point x="143" y="407"/>
      <point x="143" y="516" type="curve" smooth="yes"/>
      <point x="143" y="598"/>
      <point x="189" y="645"/>
      <point x="259" y="645" type="curve" smooth="yes"/>
      <point x="316" y="645"/>
      <point x="337" y="612"/>
    </contour>
  </outline>
</glyph>
<glyph name="Ga-adlam" format="2">
  <advance width="632"/>
  <unicode hex="1E918"/>
  <anchor x="320" y="663" name="gemconsonanttop"/>
  <anchor x="307" y="663" name="top"/>
  <outline>
    <contour>
      <point x="425" y="377" type="curve"/>
      <point x="425" y="383" type="line"/>
      <point x="483" y="404"/>
      <point x="540" y="464"/>
      <point x="540" y="559" type="curve" smooth="yes"/>
      <point x="540" y="683"/>
      <point x="478" y="714"/>
      <point x="365" y="714" type="curve" smooth="yes"/>
      <point x="286" y="714" type="line"/>
      <point x="286" y="635" type="line"/>
      <point x="365" y="635" type="line" smooth="yes"/>
      <point x="415" y="635"/>
      <point x="450" y="615"/>
      <point x="450" y="546" type="curve" smooth="yes"/>
      <point x="450" y="466"/>
      <point x="399" y="411"/>
      <point x="272" y="411" type="curve" smooth="yes"/>
      <point x="176" y="411"/>
      <point x="165" y="421"/>
      <point x="165" y="475" type="curve" smooth="yes"/>
      <point x="164" y="714" type="line"/>
      <point x="74" y="714" type="line"/>
      <point x="74" y="473" type="line" smooth="yes"/>
      <point x="74" y="346"/>
      <point x="89" y="332"/>
      <point x="265" y="332" type="curve" smooth="yes"/>
      <point x="393" y="332"/>
      <point x="459" y="302"/>
      <point x="459" y="189" type="curve" smooth="yes"/>
      <point x="459" y="114"/>
      <point x="416" y="79"/>
      <point x="337" y="79" type="curve" smooth="yes"/>
      <point x="65" y="79" type="line"/>
      <point x="65" y="0" type="line"/>
      <point x="340" y="0" type="line" smooth="yes"/>
      <point x="473" y="0"/>
      <point x="552" y="48"/>
      <point x="552" y="189" type="curve" smooth="yes"/>
      <point x="552" y="327"/>
      <point x="472" y="365"/>
    </contour>
  </outline>
</glyph>
<glyph name="Nya-adlam" format="2">
  <advance width="676"/>
  <unicode hex="1E919"/>
  <anchor x="357" y="663" name="top"/>
  <outline>
    <contour>
      <point x="356" y="439" type="curve" smooth="yes"/>
      <point x="226" y="472"/>
      <point x="181" y="488"/>
      <point x="181" y="550" type="curve" smooth="yes"/>
      <point x="181" y="606"/>
      <point x="221" y="635"/>
      <point x="311" y="635" type="curve" smooth="yes"/>
      <point x="381" y="635" type="line" smooth="yes"/>
      <point x="489" y="635"/>
      <point x="520" y="600"/>
      <point x="534" y="580" type="curve"/>
      <point x="596" y="638" type="line"/>
      <point x="580" y="661"/>
      <point x="536" y="714"/>
      <point x="382" y="714" type="curve" smooth="yes"/>
      <point x="311" y="714" type="line" smooth="yes"/>
      <point x="162" y="714"/>
      <point x="88" y="656"/>
      <point x="88" y="544" type="curve" smooth="yes"/>
      <point x="88" y="450"/>
      <point x="146" y="412"/>
      <point x="196" y="396" type="curve"/>
      <point x="196" y="391" type="line"/>
      <point x="136" y="369"/>
      <point x="55" y="308"/>
      <point x="55" y="186" type="curve" smooth="yes"/>
      <point x="55" y="48"/>
      <point x="148" y="0"/>
      <point x="285" y="0" type="curve" smooth="yes"/>
      <point x="461" y="0" type="line"/>
      <point x="461" y="79" type="line"/>
      <point x="285" y="79" type="line" smooth="yes"/>
      <point x="203" y="79"/>
      <point x="148" y="109"/>
      <point x="148" y="191" type="curve" smooth="yes"/>
      <point x="148" y="296"/>
      <point x="232" y="353"/>
      <point x="311" y="367" type="curve"/>
      <point x="470" y="333"/>
      <point x="531" y="312"/>
      <point x="531" y="158" type="curve" smooth="yes"/>
      <point x="531" y="-52" type="line"/>
      <point x="621" y="-52" type="line"/>
      <point x="621" y="159" type="line" smooth="yes"/>
      <point x="621" y="374"/>
      <point x="526" y="396"/>
    </contour>
  </outline>
</glyph>
<glyph name="Tu-adlam" format="2">
  <advance width="913"/>
  <unicode hex="1E91A"/>
  <anchor x="447" y="666" name="gemconsonanttop"/>
  <anchor x="451" y="666" name="top"/>
  <outline>
    <contour>
      <point x="818" y="79" type="line"/>
      <point x="538" y="79" type="line" smooth="yes"/>
      <point x="512" y="79"/>
      <point x="503" y="90"/>
      <point x="503" y="117" type="curve" smooth="yes"/>
      <point x="503" y="593" type="line"/>
      <point x="517" y="612"/>
      <point x="549" y="645"/>
      <point x="617" y="645" type="curve" smooth="yes"/>
      <point x="688" y="645"/>
      <point x="743" y="587"/>
      <point x="743" y="449" type="curve" smooth="yes"/>
      <point x="743" y="304"/>
      <point x="695" y="242"/>
      <point x="636" y="186" type="curve"/>
      <point x="696" y="127" type="line"/>
      <point x="777" y="199"/>
      <point x="833" y="275"/>
      <point x="833" y="449" type="curve" smooth="yes"/>
      <point x="833" y="644"/>
      <point x="759" y="724"/>
      <point x="620" y="724" type="curve" smooth="yes"/>
      <point x="530" y="724"/>
      <point x="463" y="677"/>
      <point x="447" y="659" type="curve"/>
      <point x="442" y="659" type="line"/>
      <point x="428" y="677"/>
      <point x="381" y="724"/>
      <point x="284" y="724" type="curve" smooth="yes"/>
      <point x="156" y="724"/>
      <point x="100" y="647"/>
      <point x="90" y="613" type="curve"/>
      <point x="90" y="0" type="line"/>
      <point x="180" y="0" type="line"/>
      <point x="180" y="593" type="line"/>
      <point x="189" y="615"/>
      <point x="223" y="645"/>
      <point x="284" y="645" type="curve" smooth="yes"/>
      <point x="367" y="645"/>
      <point x="403" y="598"/>
      <point x="413" y="569" type="curve"/>
      <point x="413" y="54" type="line" smooth="yes"/>
      <point x="413" y="17"/>
      <point x="427" y="0"/>
      <point x="464" y="0" type="curve" smooth="yes"/>
      <point x="818" y="0" type="line"/>
    </contour>
  </outline>
</glyph>
<glyph name="Nha-adlam" format="2">
  <advance width="708"/>
  <unicode hex="1E91B"/>
  <anchor x="382" y="663" name="top"/>
  <outline>
    <contour>
      <point x="638" y="79" type="line"/>
      <point x="472" y="79" type="line" smooth="yes"/>
      <point x="431" y="79"/>
      <point x="422" y="95"/>
      <point x="422" y="137" type="curve" smooth="yes"/>
      <point x="422" y="366" type="line"/>
      <point x="584" y="399"/>
      <point x="658" y="434"/>
      <point x="658" y="553" type="curve" smooth="yes"/>
      <point x="658" y="661"/>
      <point x="597" y="714"/>
      <point x="425" y="714" type="curve" smooth="yes"/>
      <point x="355" y="714" type="line" smooth="yes"/>
      <point x="192" y="714"/>
      <point x="130" y="658"/>
      <point x="108" y="618" type="curve"/>
      <point x="168" y="570" type="line"/>
      <point x="183" y="595"/>
      <point x="216" y="630"/>
      <point x="332" y="635" type="curve"/>
      <point x="332" y="426" type="line"/>
      <point x="137" y="388"/>
      <point x="35" y="326"/>
      <point x="35" y="180" type="curve" smooth="yes"/>
      <point x="35" y="39"/>
      <point x="133" y="-10"/>
      <point x="220" y="-24" type="curve"/>
      <point x="240" y="54" type="line"/>
      <point x="196" y="64"/>
      <point x="128" y="84"/>
      <point x="128" y="184" type="curve" smooth="yes"/>
      <point x="128" y="279"/>
      <point x="186" y="315"/>
      <point x="332" y="348" type="curve"/>
      <point x="332" y="118" type="line" smooth="yes"/>
      <point x="332" y="32"/>
      <point x="350" y="0"/>
      <point x="448" y="0" type="curve" smooth="yes"/>
      <point x="638" y="0" type="line"/>
    </contour>
    <contour>
      <point x="565" y="550" type="curve" smooth="yes"/>
      <point x="565" y="488"/>
      <point x="536" y="470"/>
      <point x="422" y="445" type="curve"/>
      <point x="422" y="635" type="line"/>
      <point x="523" y="635"/>
      <point x="565" y="610"/>
    </contour>
  </outline>
</glyph>
<glyph name="Va-adlam" format="2">
  <advance width="649"/>
  <unicode hex="1E91C"/>
  <anchor x="330" y="663" name="top"/>
  <outline>
    <contour>
      <point x="559" y="0" type="line"/>
      <point x="559" y="714" type="line"/>
      <point x="202" y="714" type="line" smooth="yes"/>
      <point x="108" y="714"/>
      <point x="90" y="682"/>
      <point x="90" y="596" type="curve" smooth="yes"/>
      <point x="90" y="0" type="line"/>
      <point x="180" y="0" type="line"/>
      <point x="180" y="577" type="line" smooth="yes"/>
      <point x="180" y="619"/>
      <point x="189" y="635"/>
      <point x="229" y="635" type="curve" smooth="yes"/>
      <point x="469" y="635" type="line"/>
      <point x="469" y="377" type="line"/>
      <point x="285" y="377" type="line"/>
      <point x="285" y="298" type="line"/>
      <point x="469" y="298" type="line"/>
      <point x="469" y="0" type="line"/>
    </contour>
  </outline>
</glyph>
<glyph name="Kha-adlam" format="2">
  <advance width="753"/>
  <unicode hex="1E91D"/>
  <anchor x="421" y="663" name="top"/>
  <outline>
    <contour>
      <point x="202" y="714" type="line" smooth="yes"/>
      <point x="108" y="714"/>
      <point x="90" y="683"/>
      <point x="90" y="597" type="curve" smooth="yes"/>
      <point x="90" y="0" type="line"/>
      <point x="180" y="0" type="line"/>
      <point x="180" y="321" type="line"/>
      <point x="366" y="321" type="line"/>
      <point x="366" y="118" type="line" smooth="yes"/>
      <point x="366" y="32"/>
      <point x="384" y="0"/>
      <point x="478" y="0" type="curve" smooth="yes"/>
      <point x="713" y="0" type="line"/>
      <point x="713" y="79" type="line"/>
      <point x="506" y="79" type="line" smooth="yes"/>
      <point x="465" y="79"/>
      <point x="456" y="95"/>
      <point x="456" y="137" type="curve" smooth="yes"/>
      <point x="456" y="321" type="line"/>
      <point x="607" y="321" type="line"/>
      <point x="607" y="400" type="line"/>
      <point x="456" y="400" type="line"/>
      <point x="456" y="558" type="line"/>
      <point x="366" y="558" type="line"/>
      <point x="366" y="400" type="line"/>
      <point x="180" y="400" type="line"/>
      <point x="180" y="576" type="line" smooth="yes"/>
      <point x="180" y="619"/>
      <point x="189" y="635"/>
      <point x="230" y="635" type="curve" smooth="yes"/>
      <point x="713" y="635" type="line"/>
      <point x="713" y="714" type="line"/>
    </contour>
  </outline>
</glyph>
<glyph name="Gbe-adlam" format="2">
  <advance width="636"/>
  <unicode hex="1E91E"/>
  <anchor x="346" y="663" name="top"/>
  <outline>
    <contour>
      <point x="590" y="79" type="line"/>
      <point x="473" y="79" type="line" smooth="yes"/>
      <point x="385" y="79"/>
      <point x="360" y="107"/>
      <point x="360" y="162" type="curve" smooth="yes"/>
      <point x="360" y="225"/>
      <point x="384" y="264"/>
      <point x="468" y="328" type="curve" smooth="yes"/>
      <point x="554" y="393"/>
      <point x="596" y="437"/>
      <point x="596" y="538" type="curve" smooth="yes"/>
      <point x="596" y="683"/>
      <point x="496" y="714"/>
      <point x="357" y="714" type="curve" smooth="yes"/>
      <point x="90" y="714" type="line"/>
      <point x="90" y="635" type="line"/>
      <point x="357" y="635" type="line" smooth="yes"/>
      <point x="457" y="635"/>
      <point x="503" y="602"/>
      <point x="503" y="537" type="curve" smooth="yes"/>
      <point x="503" y="464"/>
      <point x="460" y="427"/>
      <point x="393" y="376" type="curve" smooth="yes"/>
      <point x="324" y="324"/>
      <point x="296" y="288"/>
      <point x="281" y="247" type="curve"/>
      <point x="180" y="247" type="line"/>
      <point x="180" y="556" type="line"/>
      <point x="90" y="556" type="line"/>
      <point x="90" y="0" type="line"/>
      <point x="180" y="0" type="line"/>
      <point x="180" y="168" type="line"/>
      <point x="267" y="168" type="line"/>
      <point x="267" y="50"/>
      <point x="316" y="0"/>
      <point x="468" y="0" type="curve" smooth="yes"/>
      <point x="590" y="0" type="line"/>
    </contour>
  </outline>
</glyph>
<glyph name="Zal-adlam" format="2">
  <advance width="814"/>
  <unicode hex="1E91F"/>
  <anchor x="430" y="663" name="top"/>
  <outline>
    <contour>
      <point x="724" y="714" type="line"/>
      <point x="634" y="714" type="line"/>
      <point x="634" y="417" type="line"/>
      <point x="453" y="417" type="line"/>
      <point x="453" y="620" type="line"/>
      <point x="437" y="656"/>
      <point x="392" y="724"/>
      <point x="272" y="724" type="curve" smooth="yes"/>
      <point x="162" y="724"/>
      <point x="90" y="672"/>
      <point x="90" y="531" type="curve" smooth="yes"/>
      <point x="90" y="0" type="line"/>
      <point x="180" y="0" type="line"/>
      <point x="180" y="518" type="line" smooth="yes"/>
      <point x="180" y="612"/>
      <point x="214" y="645"/>
      <point x="272" y="645" type="curve" smooth="yes"/>
      <point x="331" y="645"/>
      <point x="353" y="613"/>
      <point x="363" y="592" type="curve"/>
      <point x="363" y="170" type="line"/>
      <point x="453" y="170" type="line"/>
      <point x="453" y="338" type="line"/>
      <point x="634" y="338" type="line"/>
      <point x="634" y="137" type="line" smooth="yes"/>
      <point x="634" y="95"/>
      <point x="625" y="79"/>
      <point x="585" y="79" type="curve" smooth="yes"/>
      <point x="366" y="79" type="line"/>
      <point x="366" y="0" type="line"/>
      <point x="613" y="0" type="line" smooth="yes"/>
      <point x="707" y="0"/>
      <point x="724" y="32"/>
      <point x="724" y="118" type="curve" smooth="yes"/>
    </contour>
  </outline>
</glyph>
<glyph name="Kpo-adlam" format="2">
  <advance width="659"/>
  <unicode hex="1E920"/>
  <anchor x="339" y="663" name="top"/>
  <outline>
    <contour>
      <point x="588" y="79" type="line"/>
      <point x="229" y="79" type="line" smooth="yes"/>
      <point x="189" y="79"/>
      <point x="180" y="95"/>
      <point x="180" y="137" type="curve" smooth="yes"/>
      <point x="180" y="588" type="line"/>
      <point x="202" y="614"/>
      <point x="253" y="645"/>
      <point x="339" y="645" type="curve" smooth="yes"/>
      <point x="423" y="645"/>
      <point x="501" y="606"/>
      <point x="501" y="472" type="curve" smooth="yes"/>
      <point x="501" y="351"/>
      <point x="423" y="310"/>
      <point x="354" y="310" type="curve" smooth="yes"/>
      <point x="302" y="310"/>
      <point x="277" y="327"/>
      <point x="264" y="337" type="curve"/>
      <point x="228" y="266" type="line"/>
      <point x="241" y="254"/>
      <point x="269" y="231"/>
      <point x="353" y="231" type="curve" smooth="yes"/>
      <point x="475" y="231"/>
      <point x="594" y="286"/>
      <point x="594" y="477" type="curve" smooth="yes"/>
      <point x="594" y="672"/>
      <point x="477" y="724"/>
      <point x="340" y="724" type="curve" smooth="yes"/>
      <point x="193" y="724"/>
      <point x="122" y="668"/>
      <point x="90" y="629" type="curve"/>
      <point x="90" y="118" type="line" smooth="yes"/>
      <point x="90" y="32"/>
      <point x="108" y="0"/>
      <point x="202" y="0" type="curve" smooth="yes"/>
      <point x="588" y="0" type="line"/>
    </contour>
  </outline>
</glyph>
<glyph name="Sha-adlam" format="2">
  <advance width="834"/>
  <unicode hex="1E921"/>
  <anchor x="430" y="663" name="top"/>
  <outline>
    <contour>
      <point x="744" y="0" type="line"/>
      <point x="744" y="596" type="line" smooth="yes"/>
      <point x="744" y="682"/>
      <point x="727" y="714"/>
      <point x="633" y="714" type="curve" smooth="yes"/>
      <point x="368" y="714" type="line"/>
      <point x="368" y="635" type="line"/>
      <point x="605" y="635" type="line" smooth="yes"/>
      <point x="645" y="635"/>
      <point x="654" y="619"/>
      <point x="654" y="577" type="curve" smooth="yes"/>
      <point x="654" y="376" type="line"/>
      <point x="458" y="376" type="line"/>
      <point x="458" y="544" type="line"/>
      <point x="368" y="544" type="line"/>
      <point x="368" y="183" type="line" smooth="yes"/>
      <point x="368" y="102"/>
      <point x="334" y="69"/>
      <point x="272" y="69" type="curve" smooth="yes"/>
      <point x="210" y="69"/>
      <point x="186" y="104"/>
      <point x="180" y="121" type="curve"/>
      <point x="180" y="714" type="line"/>
      <point x="90" y="714" type="line"/>
      <point x="90" y="94" type="line"/>
      <point x="98" y="74"/>
      <point x="140" y="-10"/>
      <point x="272" y="-10" type="curve" smooth="yes"/>
      <point x="388" y="-10"/>
      <point x="458" y="42"/>
      <point x="458" y="183" type="curve" smooth="yes"/>
      <point x="458" y="297" type="line"/>
      <point x="654" y="297" type="line"/>
      <point x="654" y="0" type="line"/>
    </contour>
  </outline>
</glyph>
<glyph name="alif-adlam" format="2">
  <advance width="634"/>
  <unicode hex="1E922"/>
  <anchor x="318" y="565" name="gemconsonanttop"/>
  <anchor x="331" y="565" name="top"/>
  <anchor x="85" y="597" name="topAlif"/>
  <outline>
    <contour>
      <point x="428" y="482" type="curve" smooth="yes"/>
      <point x="354" y="482"/>
      <point x="302" y="511"/>
      <point x="284" y="525" type="curve"/>
      <point x="244" y="458" type="line"/>
      <point x="261" y="444"/>
      <point x="287" y="429"/>
      <point x="331" y="417" type="curve" smooth="yes"/>
      <point x="405" y="396"/>
      <point x="474" y="340"/>
      <point x="474" y="221" type="curve" smooth="yes"/>
      <point x="474" y="119"/>
      <point x="424" y="64"/>
      <point x="320" y="64" type="curve" smooth="yes"/>
      <point x="229" y="64"/>
      <point x="173" y="103"/>
      <point x="173" y="226" type="curve" smooth="yes"/>
      <point x="173" y="644" type="line"/>
      <point x="85" y="644" type="line"/>
      <point x="85" y="226" type="line" smooth="yes"/>
      <point x="85" y="50"/>
      <point x="160" y="-10"/>
      <point x="320" y="-10" type="curve" smooth="yes"/>
      <point x="477" y="-10"/>
      <point x="565" y="79"/>
      <point x="565" y="221" type="curve" smooth="yes"/>
      <point x="565" y="334"/>
      <point x="502" y="390"/>
      <point x="481" y="407" type="curve"/>
      <point x="481" y="412" type="line"/>
      <point x="512" y="415"/>
      <point x="552" y="430"/>
      <point x="569" y="443" type="curve"/>
      <point x="541" y="509" type="line"/>
      <point x="519" y="496"/>
      <point x="477" y="482"/>
    </contour>
  </outline>
</glyph>
<glyph name="laam-adlam" format="2">
  <advance width="581"/>
  <unicode hex="1E924"/>
  <anchor x="281" y="565" name="top"/>
  <outline>
    <contour>
      <point x="345" y="74" type="curve" smooth="yes"/>
      <point x="71" y="74" type="line"/>
      <point x="71" y="0" type="line"/>
      <point x="380" y="0" type="line" smooth="yes"/>
      <point x="484" y="0"/>
      <point x="496" y="27"/>
      <point x="496" y="119" type="curve" smooth="yes"/>
      <point x="496" y="410" type="line" smooth="yes"/>
      <point x="496" y="533"/>
      <point x="434" y="585"/>
      <point x="308" y="585" type="curve" smooth="yes"/>
      <point x="158" y="585"/>
      <point x="90" y="501"/>
      <point x="70" y="465" type="curve"/>
      <point x="70" y="288" type="line"/>
      <point x="158" y="288" type="line"/>
      <point x="158" y="444" type="line"/>
      <point x="171" y="464"/>
      <point x="217" y="511"/>
      <point x="307" y="511" type="curve" smooth="yes"/>
      <point x="380" y="511"/>
      <point x="408" y="477"/>
      <point x="408" y="398" type="curve" smooth="yes"/>
      <point x="408" y="140" type="line" smooth="yes"/>
      <point x="408" y="86"/>
      <point x="401" y="74"/>
    </contour>
  </outline>
</glyph>
<glyph name="miim-adlam" format="2">
  <advance width="573"/>
  <unicode hex="1E925"/>
  <anchor x="282" y="565" name="top"/>
  <outline>
    <contour>
      <point x="279" y="585" type="curve" smooth="yes"/>
      <point x="133" y="585"/>
      <point x="50" y="526"/>
      <point x="50" y="407" type="curve" smooth="yes"/>
      <point x="50" y="287"/>
      <point x="125" y="255"/>
      <point x="240" y="235" type="curve" smooth="yes"/>
      <point x="357" y="215"/>
      <point x="400" y="200"/>
      <point x="400" y="122" type="curve" smooth="yes"/>
      <point x="400" y="86"/>
      <point x="393" y="74"/>
      <point x="337" y="74" type="curve" smooth="yes"/>
      <point x="53" y="74" type="line"/>
      <point x="53" y="0" type="line"/>
      <point x="372" y="0" type="line" smooth="yes"/>
      <point x="476" y="0"/>
      <point x="488" y="27"/>
      <point x="488" y="119" type="curve" smooth="yes"/>
      <point x="488" y="408" type="line" smooth="yes"/>
      <point x="488" y="540"/>
      <point x="418" y="585"/>
    </contour>
    <contour>
      <point x="261" y="306" type="curve" smooth="yes"/>
      <point x="172" y="322"/>
      <point x="141" y="345"/>
      <point x="141" y="408" type="curve" smooth="yes"/>
      <point x="141" y="481"/>
      <point x="185" y="511"/>
      <point x="273" y="511" type="curve" smooth="yes"/>
      <point x="354" y="511"/>
      <point x="400" y="483"/>
      <point x="400" y="398" type="curve" smooth="yes"/>
      <point x="400" y="252" type="line"/>
      <point x="395" y="251" type="line"/>
      <point x="378" y="273"/>
      <point x="350" y="290"/>
    </contour>
  </outline>
</glyph>
<glyph name="ba-adlam" format="2">
  <advance width="674"/>
  <unicode hex="1E926"/>
  <anchor x="394" y="597" name="top"/>
  <outline>
    <contour>
      <point x="85" y="714" type="line"/>
      <point x="85" y="119" type="line" smooth="yes"/>
      <point x="85" y="27"/>
      <point x="97" y="0"/>
      <point x="201" y="0" type="curve" smooth="yes"/>
      <point x="618" y="0" type="line"/>
      <point x="618" y="74" type="line"/>
      <point x="236" y="74" type="line" smooth="yes"/>
      <point x="181" y="74"/>
      <point x="173" y="86"/>
      <point x="173" y="140" type="curve" smooth="yes"/>
      <point x="173" y="216" type="line"/>
      <point x="178" y="218" type="line"/>
      <point x="202" y="203"/>
      <point x="265" y="177"/>
      <point x="357" y="177" type="curve" smooth="yes"/>
      <point x="498" y="177"/>
      <point x="629" y="243"/>
      <point x="629" y="401" type="curve" smooth="yes"/>
      <point x="629" y="531"/>
      <point x="565" y="585"/>
      <point x="449" y="585" type="curve" smooth="yes"/>
      <point x="368" y="585"/>
      <point x="321" y="557"/>
      <point x="302" y="538" type="curve"/>
      <point x="302" y="292" type="line"/>
      <point x="390" y="292" type="line"/>
      <point x="390" y="497" type="line"/>
      <point x="402" y="505"/>
      <point x="421" y="511"/>
      <point x="449" y="511" type="curve" smooth="yes"/>
      <point x="488" y="511"/>
      <point x="538" y="490"/>
      <point x="538" y="396" type="curve" smooth="yes"/>
      <point x="538" y="294"/>
      <point x="459" y="250"/>
      <point x="357" y="250" type="curve" smooth="yes"/>
      <point x="260" y="250"/>
      <point x="196" y="284"/>
      <point x="173" y="302" type="curve"/>
      <point x="173" y="714" type="line"/>
    </contour>
  </outline>
</glyph>
<glyph name="sinnyiiyhe-adlam" format="2">
  <advance width="835"/>
  <unicode hex="1E927"/>
  <anchor x="420" y="2" name="bottom"/>
  <anchor x="422" y="565" name="gemconsonanttop"/>
  <anchor x="418" y="565" name="top"/>
  <outline>
    <contour>
      <point x="750" y="575" type="line"/>
      <point x="662" y="575" type="line"/>
      <point x="662" y="203" type="line" smooth="yes"/>
      <point x="662" y="102"/>
      <point x="627" y="64"/>
      <point x="564" y="64" type="curve" smooth="yes"/>
      <point x="504" y="64"/>
      <point x="462" y="102"/>
      <point x="462" y="192" type="curve" smooth="yes"/>
      <point x="462" y="575" type="line"/>
      <point x="374" y="575" type="line"/>
      <point x="374" y="192" type="line" smooth="yes"/>
      <point x="374" y="102"/>
      <point x="336" y="64"/>
      <point x="271" y="64" type="curve" smooth="yes"/>
      <point x="207" y="64"/>
      <point x="173" y="98"/>
      <point x="173" y="201" type="curve" smooth="yes"/>
      <point x="173" y="666" type="line"/>
      <point x="85" y="666" type="line"/>
      <point x="85" y="184" type="line" smooth="yes"/>
      <point x="85" y="38"/>
      <point x="159" y="-10"/>
      <point x="267" y="-10" type="curve" smooth="yes"/>
      <point x="359" y="-10"/>
      <point x="398" y="30"/>
      <point x="415" y="73" type="curve"/>
      <point x="421" y="73" type="line"/>
      <point x="439" y="27"/>
      <point x="479" y="-10"/>
      <point x="562" y="-10" type="curve" smooth="yes"/>
      <point x="669" y="-10"/>
      <point x="750" y="40"/>
      <point x="750" y="183" type="curve" smooth="yes"/>
    </contour>
  </outline>
</glyph>
<glyph name="pe-adlam" format="2">
  <advance width="534"/>
  <unicode hex="1E928"/>
  <anchor x="275" y="565" name="top"/>
  <outline>
    <contour>
      <point x="443" y="74" type="line"/>
      <point x="236" y="74" type="line" smooth="yes"/>
      <point x="180" y="74"/>
      <point x="173" y="86"/>
      <point x="173" y="140" type="curve" smooth="yes"/>
      <point x="173" y="503" type="line"/>
      <point x="184" y="507"/>
      <point x="205" y="512"/>
      <point x="234" y="512" type="curve" smooth="yes"/>
      <point x="291" y="512"/>
      <point x="371" y="486"/>
      <point x="371" y="352" type="curve" smooth="yes"/>
      <point x="371" y="263"/>
      <point x="336" y="225"/>
      <point x="293" y="184" type="curve"/>
      <point x="354" y="128" type="line"/>
      <point x="415" y="174"/>
      <point x="459" y="235"/>
      <point x="459" y="352" type="curve" smooth="yes"/>
      <point x="459" y="517"/>
      <point x="371" y="585"/>
      <point x="246" y="585" type="curve" smooth="yes"/>
      <point x="167" y="585"/>
      <point x="112" y="565"/>
      <point x="85" y="551" type="curve"/>
      <point x="85" y="119" type="line" smooth="yes"/>
      <point x="85" y="27"/>
      <point x="97" y="0"/>
      <point x="201" y="0" type="curve" smooth="yes"/>
      <point x="443" y="0" type="line"/>
    </contour>
  </outline>
</glyph>
<glyph name="bhe-adlam" format="2">
  <advance width="551"/>
  <unicode hex="1E929"/>
  <anchor x="282" y="581" name="top"/>
  <outline>
    <contour>
      <point x="378" y="443" type="line"/>
      <point x="378" y="314" type="line"/>
      <point x="365" y="300"/>
      <point x="318" y="272"/>
      <point x="255" y="272" type="curve" smooth="yes"/>
      <point x="196" y="272"/>
      <point x="161" y="295"/>
      <point x="161" y="354" type="curve" smooth="yes"/>
      <point x="161" y="414"/>
      <point x="195" y="437"/>
      <point x="277" y="479" type="curve" smooth="yes"/>
      <point x="378" y="531"/>
      <point x="426" y="568"/>
      <point x="464" y="610" type="curve"/>
      <point x="411" y="665" type="line"/>
      <point x="380" y="629"/>
      <point x="326" y="591"/>
      <point x="241" y="547" type="curve" smooth="yes"/>
      <point x="138" y="494"/>
      <point x="70" y="450"/>
      <point x="70" y="342" type="curve" smooth="yes"/>
      <point x="70" y="241"/>
      <point x="137" y="198"/>
      <point x="226" y="198" type="curve" smooth="yes"/>
      <point x="306" y="198"/>
      <point x="352" y="225"/>
      <point x="373" y="245" type="curve"/>
      <point x="378" y="244" type="line"/>
      <point x="378" y="140" type="line" smooth="yes"/>
      <point x="378" y="86"/>
      <point x="370" y="74"/>
      <point x="315" y="74" type="curve" smooth="yes"/>
      <point x="73" y="74" type="line"/>
      <point x="73" y="0" type="line"/>
      <point x="350" y="0" type="line" smooth="yes"/>
      <point x="454" y="0"/>
      <point x="466" y="27"/>
      <point x="466" y="119" type="curve" smooth="yes"/>
      <point x="466" y="443" type="line"/>
    </contour>
  </outline>
</glyph>
<glyph name="ra-adlam" format="2">
  <advance width="619"/>
  <unicode hex="1E92A"/>
  <anchor x="332" y="640" name="top"/>
  <outline>
    <contour>
      <point x="178" y="267" type="line"/>
      <point x="196" y="236"/>
      <point x="246" y="203"/>
      <point x="338" y="203" type="curve" smooth="yes"/>
      <point x="466" y="203"/>
      <point x="549" y="250"/>
      <point x="549" y="414" type="curve" smooth="yes"/>
      <point x="549" y="575" type="line"/>
      <point x="461" y="575" type="line"/>
      <point x="461" y="416" type="line" smooth="yes"/>
      <point x="461" y="307"/>
      <point x="407" y="277"/>
      <point x="332" y="277" type="curve" smooth="yes"/>
      <point x="228" y="277"/>
      <point x="182" y="327"/>
      <point x="173" y="360" type="curve"/>
      <point x="173" y="575" type="line"/>
      <point x="85" y="575" type="line"/>
      <point x="85" y="119" type="line" smooth="yes"/>
      <point x="85" y="27"/>
      <point x="97" y="0"/>
      <point x="201" y="0" type="curve" smooth="yes"/>
      <point x="548" y="0" type="line"/>
      <point x="548" y="74" type="line"/>
      <point x="236" y="74" type="line" smooth="yes"/>
      <point x="180" y="74"/>
      <point x="173" y="86"/>
      <point x="173" y="140" type="curve" smooth="yes"/>
      <point x="173" y="265" type="line"/>
    </contour>
  </outline>
</glyph>
<glyph name="e-adlam" format="2">
  <advance width="660"/>
  <unicode hex="1E92B"/>
  <anchor x="313" y="0" name="bottom"/>
  <anchor x="320" y="565" name="top"/>
  <outline>
    <contour>
      <point x="464" y="-29" type="curve"/>
      <point x="516" y="-63" type="line"/>
      <point x="535" y="-47"/>
      <point x="600" y="12"/>
      <point x="600" y="115" type="curve" smooth="yes"/>
      <point x="600" y="239"/>
      <point x="524" y="270"/>
      <point x="476" y="281" type="curve"/>
      <point x="476" y="286" type="line"/>
      <point x="518" y="317"/>
      <point x="560" y="350"/>
      <point x="560" y="434" type="curve" smooth="yes"/>
      <point x="560" y="533"/>
      <point x="497" y="585"/>
      <point x="335" y="585" type="curve" smooth="yes"/>
      <point x="170" y="585"/>
      <point x="80" y="526"/>
      <point x="80" y="354" type="curve" smooth="yes"/>
      <point x="80" y="0" type="line"/>
      <point x="168" y="0" type="line"/>
      <point x="168" y="356" type="line" smooth="yes"/>
      <point x="168" y="465"/>
      <point x="219" y="511"/>
      <point x="333" y="511" type="curve" smooth="yes"/>
      <point x="434" y="511"/>
      <point x="469" y="481"/>
      <point x="469" y="430" type="curve" smooth="yes"/>
      <point x="469" y="374"/>
      <point x="433" y="350"/>
      <point x="357" y="299" type="curve" smooth="yes"/>
      <point x="283" y="249"/>
      <point x="220" y="205"/>
      <point x="220" y="124" type="curve" smooth="yes"/>
      <point x="220" y="28"/>
      <point x="277" y="0"/>
      <point x="360" y="0" type="curve" smooth="yes"/>
      <point x="453" y="0" type="line"/>
      <point x="453" y="74" type="line"/>
      <point x="364" y="74" type="line" smooth="yes"/>
      <point x="331" y="74"/>
      <point x="311" y="85"/>
      <point x="311" y="124" type="curve" smooth="yes"/>
      <point x="311" y="170"/>
      <point x="346" y="200"/>
      <point x="392" y="233" type="curve"/>
      <point x="449" y="224"/>
      <point x="509" y="183"/>
      <point x="509" y="101" type="curve" smooth="yes"/>
      <point x="509" y="38"/>
      <point x="478" y="-13"/>
    </contour>
  </outline>
</glyph>
<glyph name="fa-adlam" format="2">
  <advance width="606"/>
  <unicode hex="1E92C"/>
  <anchor x="306" y="565" name="top"/>
  <outline>
    <contour>
      <point x="515" y="575" type="line"/>
      <point x="201" y="575" type="line" smooth="yes"/>
      <point x="97" y="575"/>
      <point x="85" y="547"/>
      <point x="85" y="456" type="curve" smooth="yes"/>
      <point x="85" y="-130" type="line"/>
      <point x="173" y="-130" type="line"/>
      <point x="173" y="247" type="line"/>
      <point x="197" y="285"/>
      <point x="245" y="327"/>
      <point x="335" y="327" type="curve" smooth="yes"/>
      <point x="421" y="327"/>
      <point x="455" y="279"/>
      <point x="455" y="184" type="curve" smooth="yes"/>
      <point x="455" y="102"/>
      <point x="437" y="74"/>
      <point x="363" y="74" type="curve" smooth="yes"/>
      <point x="262" y="74" type="line"/>
      <point x="262" y="0" type="line"/>
      <point x="363" y="0" type="line" smooth="yes"/>
      <point x="478" y="0"/>
      <point x="546" y="30"/>
      <point x="546" y="189" type="curve" smooth="yes"/>
      <point x="546" y="333"/>
      <point x="477" y="401"/>
      <point x="351" y="401" type="curve" smooth="yes"/>
      <point x="265" y="401"/>
      <point x="208" y="365"/>
      <point x="178" y="329" type="curve"/>
      <point x="173" y="330" type="line"/>
      <point x="173" y="435" type="line" smooth="yes"/>
      <point x="173" y="489"/>
      <point x="180" y="501"/>
      <point x="236" y="501" type="curve" smooth="yes"/>
      <point x="515" y="501" type="line"/>
    </contour>
  </outline>
</glyph>
<glyph name="i-adlam" format="2">
  <advance width="682"/>
  <unicode hex="1E92D"/>
  <anchor x="341" y="565" name="top"/>
  <outline>
    <contour>
      <point x="592" y="575" type="line"/>
      <point x="504" y="575" type="line"/>
      <point x="504" y="216" type="line" smooth="yes"/>
      <point x="504" y="104"/>
      <point x="459" y="64"/>
      <point x="341" y="64" type="curve" smooth="yes"/>
      <point x="224" y="64"/>
      <point x="178" y="104"/>
      <point x="178" y="216" type="curve" smooth="yes"/>
      <point x="178" y="575" type="line"/>
      <point x="90" y="575" type="line"/>
      <point x="90" y="186" type="line" smooth="yes"/>
      <point x="90" y="43"/>
      <point x="172" y="-10"/>
      <point x="339" y="-10" type="curve" smooth="yes"/>
      <point x="506" y="-10"/>
      <point x="592" y="43"/>
      <point x="592" y="186" type="curve" smooth="yes"/>
    </contour>
  </outline>
</glyph>
<glyph name="o-adlam" format="2">
  <advance width="591"/>
  <unicode hex="1E92E"/>
  <anchor x="312" y="0" name="bottom"/>
  <anchor x="322" y="565" name="top"/>
  <outline>
    <contour>
      <point x="461" y="397" type="curve"/>
      <point x="541" y="439" type="line"/>
      <point x="513" y="498"/>
      <point x="461" y="585"/>
      <point x="308" y="585" type="curve" smooth="yes"/>
      <point x="164" y="585"/>
      <point x="50" y="496"/>
      <point x="50" y="288" type="curve" smooth="yes"/>
      <point x="50" y="42"/>
      <point x="208" y="0"/>
      <point x="341" y="0" type="curve" smooth="yes"/>
      <point x="536" y="0" type="line"/>
      <point x="536" y="74" type="line"/>
      <point x="341" y="74" type="line" smooth="yes"/>
      <point x="264" y="74"/>
      <point x="141" y="106"/>
      <point x="141" y="293" type="curve" smooth="yes"/>
      <point x="141" y="437"/>
      <point x="212" y="511"/>
      <point x="308" y="511" type="curve" smooth="yes"/>
      <point x="399" y="511"/>
      <point x="442" y="434"/>
    </contour>
  </outline>
</glyph>
<glyph name="dha-adlam" format="2">
  <advance width="687"/>
  <unicode hex="1E92F"/>
  <anchor x="333" y="640" name="top"/>
  <outline>
    <contour>
      <point x="514" y="714" type="line"/>
      <point x="514" y="484" type="line"/>
      <point x="509" y="482" type="line"/>
      <point x="493" y="511"/>
      <point x="453" y="564"/>
      <point x="347" y="564" type="curve" smooth="yes"/>
      <point x="241" y="564"/>
      <point x="194" y="506"/>
      <point x="179" y="482" type="curve"/>
      <point x="174" y="484" type="line"/>
      <point x="173" y="575" type="line"/>
      <point x="85" y="575" type="line"/>
      <point x="85" y="238" type="line" smooth="yes"/>
      <point x="85" y="69"/>
      <point x="141" y="-10"/>
      <point x="338" y="-10" type="curve" smooth="yes"/>
      <point x="537" y="-10"/>
      <point x="602" y="69"/>
      <point x="602" y="238" type="curve" smooth="yes"/>
      <point x="602" y="714" type="line"/>
    </contour>
    <contour>
      <point x="514" y="228" type="line" smooth="yes"/>
      <point x="514" y="120"/>
      <point x="471" y="64"/>
      <point x="343" y="64" type="curve" smooth="yes"/>
      <point x="215" y="64"/>
      <point x="173" y="120"/>
      <point x="173" y="228" type="curve" smooth="yes"/>
      <point x="173" y="277" type="line" smooth="yes"/>
      <point x="173" y="388"/>
      <point x="208" y="490"/>
      <point x="346" y="490" type="curve" smooth="yes"/>
      <point x="468" y="490"/>
      <point x="514" y="397"/>
      <point x="514" y="285" type="curve" smooth="yes"/>
    </contour>
  </outline>
</glyph>
<glyph name="yhe-adlam" format="2">
  <advance width="613"/>
  <unicode hex="1E930"/>
  <anchor x="336" y="565" name="top"/>
  <outline>
    <contour>
      <point x="551" y="612" type="line"/>
      <point x="531" y="593"/>
      <point x="490" y="568"/>
      <point x="413" y="568" type="curve" smooth="yes"/>
      <point x="116" y="568" type="line"/>
      <point x="116" y="495" type="line"/>
      <point x="204" y="495" type="line"/>
      <point x="205" y="488" type="line"/>
      <point x="148" y="460"/>
      <point x="65" y="385"/>
      <point x="65" y="246" type="curve" smooth="yes"/>
      <point x="65" y="87"/>
      <point x="153" y="0"/>
      <point x="320" y="0" type="curve" smooth="yes"/>
      <point x="593" y="0" type="line"/>
      <point x="593" y="74" type="line"/>
      <point x="336" y="74" type="line" smooth="yes"/>
      <point x="204" y="74"/>
      <point x="156" y="138"/>
      <point x="156" y="248" type="curve" smooth="yes"/>
      <point x="156" y="407"/>
      <point x="268" y="495"/>
      <point x="346" y="495" type="curve" smooth="yes"/>
      <point x="423" y="495" type="line" smooth="yes"/>
      <point x="505" y="495"/>
      <point x="556" y="514"/>
      <point x="593" y="555" type="curve"/>
    </contour>
  </outline>
</glyph>
<glyph name="waw-adlam" format="2">
  <advance width="581"/>
  <unicode hex="1E931"/>
  <anchor x="285" y="565" name="top"/>
  <outline>
    <contour>
      <point x="493" y="130" type="curve" smooth="yes"/>
      <point x="493" y="575" type="line"/>
      <point x="405" y="575" type="line"/>
      <point x="405" y="512" type="line"/>
      <point x="400" y="511" type="line"/>
      <point x="384" y="539"/>
      <point x="348" y="585"/>
      <point x="264" y="585" type="curve" smooth="yes"/>
      <point x="170" y="585"/>
      <point x="80" y="547"/>
      <point x="80" y="401" type="curve" smooth="yes"/>
      <point x="80" y="0" type="line"/>
      <point x="168" y="0" type="line"/>
      <point x="168" y="234" type="line"/>
      <point x="326" y="234" type="line"/>
      <point x="326" y="308" type="line"/>
      <point x="168" y="308" type="line"/>
      <point x="168" y="387" type="line" smooth="yes"/>
      <point x="168" y="478"/>
      <point x="208" y="511"/>
      <point x="280" y="511" type="curve" smooth="yes"/>
      <point x="358" y="511"/>
      <point x="400" y="441"/>
      <point x="405" y="383" type="curve"/>
      <point x="405" y="112" type="line" smooth="yes"/>
      <point x="405" y="33"/>
      <point x="433" y="-2"/>
      <point x="450" y="-14" type="curve"/>
      <point x="526" y="30" type="line"/>
      <point x="512" y="44"/>
      <point x="493" y="71"/>
    </contour>
  </outline>
</glyph>
<glyph name="nun-adlam" format="2">
  <advance width="499"/>
  <unicode hex="1E932"/>
  <anchor x="258" y="565" name="top"/>
  <outline>
    <contour>
      <point x="434" y="74" type="line"/>
      <point x="237" y="74" type="line" smooth="yes"/>
      <point x="169" y="74"/>
      <point x="136" y="98"/>
      <point x="136" y="163" type="curve" smooth="yes"/>
      <point x="136" y="225"/>
      <point x="175" y="250"/>
      <point x="279" y="275" type="curve" smooth="yes"/>
      <point x="383" y="300"/>
      <point x="454" y="327"/>
      <point x="454" y="435" type="curve" smooth="yes"/>
      <point x="454" y="530"/>
      <point x="397" y="585"/>
      <point x="238" y="585" type="curve" smooth="yes"/>
      <point x="161" y="585"/>
      <point x="105" y="570"/>
      <point x="83" y="560" type="curve"/>
      <point x="106" y="489" type="line"/>
      <point x="126" y="498"/>
      <point x="175" y="511"/>
      <point x="238" y="511" type="curve" smooth="yes"/>
      <point x="335" y="511"/>
      <point x="363" y="476"/>
      <point x="363" y="433" type="curve" smooth="yes"/>
      <point x="363" y="379"/>
      <point x="327" y="364"/>
      <point x="233" y="341" type="curve" smooth="yes"/>
      <point x="109" y="311"/>
      <point x="45" y="271"/>
      <point x="45" y="161" type="curve" smooth="yes"/>
      <point x="45" y="35"/>
      <point x="127" y="0"/>
      <point x="236" y="0" type="curve" smooth="yes"/>
      <point x="434" y="0" type="line"/>
    </contour>
  </outline>
</glyph>
<glyph name="kaf-adlam" format="2">
  <advance width="619"/>
  <unicode hex="1E933"/>
  <anchor x="287" y="565" name="top"/>
  <outline>
    <contour>
      <point x="426" y="575" type="curve" smooth="yes"/>
      <point x="50" y="575" type="line"/>
      <point x="50" y="501" type="line"/>
      <point x="382" y="501" type="line" smooth="yes"/>
      <point x="438" y="501"/>
      <point x="446" y="489"/>
      <point x="446" y="435" type="curve" smooth="yes"/>
      <point x="446" y="331" type="line"/>
      <point x="291" y="331" type="line"/>
      <point x="291" y="425" type="line"/>
      <point x="203" y="425" type="line"/>
      <point x="203" y="331" type="line"/>
      <point x="86" y="331" type="line"/>
      <point x="86" y="257" type="line"/>
      <point x="203" y="257" type="line"/>
      <point x="203" y="140" type="line" smooth="yes"/>
      <point x="203" y="86"/>
      <point x="196" y="74"/>
      <point x="140" y="74" type="curve" smooth="yes"/>
      <point x="45" y="74" type="line"/>
      <point x="45" y="0" type="line"/>
      <point x="176" y="0" type="line" smooth="yes"/>
      <point x="279" y="0"/>
      <point x="291" y="27"/>
      <point x="291" y="119" type="curve" smooth="yes"/>
      <point x="291" y="257" type="line"/>
      <point x="446" y="257" type="line"/>
      <point x="446" y="0" type="line"/>
      <point x="534" y="0" type="line"/>
      <point x="534" y="456" type="line" smooth="yes"/>
      <point x="534" y="548"/>
      <point x="519" y="575"/>
    </contour>
  </outline>
</glyph>
<glyph name="ya-adlam" format="2">
  <advance width="523"/>
  <unicode hex="1E934"/>
  <anchor x="246" y="565" name="top"/>
  <outline>
    <contour>
      <point x="104" y="241" type="line"/>
      <point x="149" y="254"/>
      <point x="229" y="273"/>
      <point x="255" y="273" type="curve" smooth="yes"/>
      <point x="312" y="273"/>
      <point x="367" y="236"/>
      <point x="367" y="158" type="curve" smooth="yes"/>
      <point x="367" y="87"/>
      <point x="329" y="74"/>
      <point x="266" y="74" type="curve" smooth="yes"/>
      <point x="50" y="74" type="line"/>
      <point x="50" y="0" type="line"/>
      <point x="266" y="0" type="line" smooth="yes"/>
      <point x="399" y="0"/>
      <point x="458" y="39"/>
      <point x="458" y="156" type="curve" smooth="yes"/>
      <point x="458" y="261"/>
      <point x="391" y="294"/>
      <point x="357" y="304" type="curve"/>
      <point x="357" y="309" type="line"/>
      <point x="391" y="321"/>
      <point x="445" y="357"/>
      <point x="445" y="440" type="curve" smooth="yes"/>
      <point x="445" y="539"/>
      <point x="379" y="575"/>
      <point x="266" y="575" type="curve" smooth="yes"/>
      <point x="69" y="575" type="line"/>
      <point x="69" y="501" type="line"/>
      <point x="254" y="501" type="line" smooth="yes"/>
      <point x="314" y="501"/>
      <point x="354" y="484"/>
      <point x="354" y="431" type="curve" smooth="yes"/>
      <point x="354" y="381"/>
      <point x="323" y="370"/>
      <point x="272" y="358" type="curve" smooth="yes"/>
      <point x="85" y="315" type="line"/>
    </contour>
  </outline>
</glyph>
<glyph name="u-adlam" format="2">
  <advance width="707"/>
  <unicode hex="1E935"/>
  <anchor x="365" y="565" name="top"/>
  <outline>
    <contour>
      <point x="534" y="575" type="line"/>
      <point x="534" y="455" type="line" smooth="yes"/>
      <point x="534" y="429"/>
      <point x="528" y="426"/>
      <point x="482" y="402" type="curve" smooth="yes"/>
      <point x="451" y="386"/>
      <point x="439" y="379"/>
      <point x="430" y="372" type="curve"/>
      <point x="427" y="374" type="line"/>
      <point x="418" y="526"/>
      <point x="354" y="585"/>
      <point x="247" y="585" type="curve" smooth="yes"/>
      <point x="147" y="585"/>
      <point x="103" y="540"/>
      <point x="85" y="501" type="curve"/>
      <point x="85" y="216" type="line" smooth="yes"/>
      <point x="85" y="57"/>
      <point x="153" y="-10"/>
      <point x="354" y="-10" type="curve" smooth="yes"/>
      <point x="538" y="-10"/>
      <point x="622" y="63"/>
      <point x="622" y="193" type="curve" smooth="yes"/>
      <point x="622" y="575" type="line"/>
    </contour>
    <contour>
      <point x="173" y="213" type="curve" smooth="yes"/>
      <point x="173" y="482" type="line"/>
      <point x="185" y="498"/>
      <point x="210" y="511"/>
      <point x="242" y="511" type="curve" smooth="yes"/>
      <point x="288" y="511"/>
      <point x="341" y="486"/>
      <point x="341" y="332" type="curve" smooth="yes"/>
      <point x="341" y="180"/>
      <point x="272" y="107"/>
      <point x="223" y="82" type="curve"/>
      <point x="207" y="93"/>
      <point x="173" y="118"/>
    </contour>
    <contour>
      <point x="534" y="213" type="line" smooth="yes"/>
      <point x="534" y="113"/>
      <point x="497" y="61"/>
      <point x="349" y="61" type="curve" smooth="yes"/>
      <point x="326" y="61"/>
      <point x="316" y="62"/>
      <point x="310" y="63" type="curve"/>
      <point x="310" y="68" type="line"/>
      <point x="355" y="98"/>
      <point x="389" y="147"/>
      <point x="412" y="229" type="curve" smooth="yes"/>
      <point x="431" y="295"/>
      <point x="433" y="307"/>
      <point x="493" y="337" type="curve" smooth="yes"/>
      <point x="515" y="348"/>
      <point x="521" y="351"/>
      <point x="531" y="358" type="curve"/>
      <point x="534" y="357" type="line"/>
    </contour>
  </outline>
</glyph>
<glyph name="jiim-adlam" format="2">
  <advance width="802"/>
  <unicode hex="1E936"/>
  <anchor x="404" y="0" name="bottom"/>
  <anchor x="408" y="566" name="gemconsonanttop"/>
  <anchor x="410" y="566" name="top"/>
  <outline>
    <contour>
      <point x="629" y="365" type="curve" smooth="yes"/>
      <point x="629" y="-140" type="line"/>
      <point x="717" y="-140" type="line"/>
      <point x="717" y="364" type="line" smooth="yes"/>
      <point x="717" y="523"/>
      <point x="656" y="562"/>
      <point x="563" y="562" type="curve" smooth="yes"/>
      <point x="481" y="562"/>
      <point x="446" y="522"/>
      <point x="433" y="500" type="curve"/>
      <point x="428" y="500" type="line"/>
      <point x="417" y="527"/>
      <point x="389" y="585"/>
      <point x="267" y="585" type="curve" smooth="yes"/>
      <point x="144" y="585"/>
      <point x="85" y="527"/>
      <point x="85" y="377" type="curve" smooth="yes"/>
      <point x="85" y="0" type="line"/>
      <point x="173" y="0" type="line"/>
      <point x="173" y="389" type="line" smooth="yes"/>
      <point x="173" y="480"/>
      <point x="207" y="511"/>
      <point x="267" y="511" type="curve" smooth="yes"/>
      <point x="324" y="511"/>
      <point x="357" y="475"/>
      <point x="357" y="389" type="curve" smooth="yes"/>
      <point x="357" y="0" type="line"/>
      <point x="445" y="0" type="line"/>
      <point x="445" y="371" type="line" smooth="yes"/>
      <point x="445" y="451"/>
      <point x="486" y="488"/>
      <point x="547" y="488" type="curve" smooth="yes"/>
      <point x="599" y="488"/>
      <point x="629" y="456"/>
    </contour>
  </outline>
</glyph>
